<svg aria-label="Graphics Symbol" role="graphics-symbol" width="24" height="24" viewBox="0 0 24 24" fill="none" xmlns="http://www.w3.org/2000/svg">
						<path d="M15.5 3.44238C17.5031 3.44238 19.2827 3.75597 20.5341 4.23728C21.1623 4.47889 21.6192 4.74822 21.906 5.00906C22.1927 5.26971 22.25 5.46272 22.25 5.577V17.1155C22.25 17.2297 22.1927 17.4227 21.906 17.6834C21.6192 17.9442 21.1623 18.2136 20.5341 18.4552C19.2827 18.9365 17.5031 19.2501 15.5 19.2501C13.4969 19.2501 11.7173 18.9365 10.4659 18.4552C9.83773 18.2136 9.38082 17.9442 9.09397 17.6834C8.80733 17.4227 8.75 17.2297 8.75 17.1155V5.577C8.75 5.46272 8.80733 5.26971 9.09397 5.00906C9.38082 4.74822 9.83773 4.47889 10.4659 4.23728C11.7173 3.75597 13.4969 3.44238 15.5 3.44238Z" fill="#D7D8F3" stroke="#494FC9" stroke-width="1.5" stroke-linejoin="round"></path>
						<path d="M22.25 5.577C22.25 5.69127 22.1927 5.88428 21.906 6.14493C21.6192 6.40578 21.1623 6.6751 20.5341 6.91672C19.2827 7.39803 17.5031 7.71161 15.5 7.71161C13.4969 7.71161 11.7173 7.39803 10.4659 6.91672C9.83773 6.6751 9.38082 6.40578 9.09397 6.14493C8.80733 5.88428 8.75 5.69127 8.75 5.577C8.75 5.46272 8.80733 5.26971 9.09397 5.00906C9.38082 4.74822 9.83773 4.47889 10.4659 4.23728C11.7173 3.75597 13.4969 3.44238 15.5 3.44238C17.5031 3.44238 19.2827 3.75597 20.5341 4.23728C21.1623 4.47889 21.6192 4.74822 21.906 5.00906C22.1927 5.26971 22.25 5.46272 22.25 5.577Z" stroke="#494FC9" stroke-width="1.5" stroke-linejoin="round"></path>
						<path d="M22.4295 9.61523C22.0526 9.96521 21.5001 10.2832 20.8037 10.5511C20.1072 10.8189 19.2805 11.0314 18.3705 11.1764C17.4606 11.3213 16.4853 11.396 15.5004 11.396C14.5155 11.396 13.5402 11.3213 12.6303 11.1764C11.7203 11.0314 10.8935 10.8189 10.1971 10.5511C9.50065 10.2832 8.9482 9.96521 8.57129 9.61523" stroke="#494FC9" stroke-width="1.5" stroke-linejoin="round"></path>
						<path d="M22.4295 13.0771C22.0526 13.4271 21.5001 13.7451 20.8037 14.013C20.1072 14.2808 19.2805 14.4933 18.3705 14.6383C17.4606 14.7833 16.4853 14.8579 15.5004 14.8579C14.5155 14.8579 13.5402 14.7833 12.6303 14.6383C11.7203 14.4933 10.8935 14.2808 10.1971 14.013C9.50065 13.7451 8.9482 13.4271 8.57129 13.0771" stroke="#494FC9" stroke-width="1.5" stroke-linejoin="round"></path>
						<circle cx="8" cy="15.4609" r="6.25" fill="#D7D8F3" stroke="#494FC9" stroke-width="1.5"></circle>
						<path d="M9.23973 18.9197C9.09069 18.9197 8.95097 18.901 8.82056 18.8638C8.69015 18.8327 8.52248 18.7799 8.31755 18.7054C8.13125 18.6371 7.9729 18.5874 7.84249 18.5564C7.71829 18.5191 7.58788 18.5005 7.45126 18.5005C7.26496 18.5005 7.10661 18.5222 6.9762 18.5657C6.84579 18.6092 6.71227 18.6899 6.57565 18.8079C6.48871 18.8886 6.37693 18.929 6.24031 18.929C6.12854 18.929 6.02297 18.901 5.92361 18.8451C5.82425 18.7893 5.74352 18.7116 5.68142 18.6123C5.60069 18.4881 5.56032 18.3701 5.56032 18.2583C5.56032 18.103 5.64726 17.9509 5.82114 17.8019C6.18753 17.4976 6.43593 17.2616 6.56634 17.0939C6.70296 16.9201 6.77127 16.7369 6.77127 16.5443C6.77127 16.3456 6.74022 16.1842 6.67812 16.06H5.89566C5.7342 16.06 5.6069 16.0196 5.51375 15.9389C5.4206 15.8519 5.37402 15.7339 5.37402 15.5849C5.37402 15.4297 5.4206 15.3117 5.51375 15.2309C5.6069 15.144 5.7342 15.1005 5.89566 15.1005H6.12854C6.02297 14.9329 5.94845 14.7776 5.90498 14.6348C5.86151 14.4857 5.83977 14.315 5.83977 14.1225C5.83977 13.5201 6.0416 13.0512 6.44524 12.7159C6.8551 12.3806 7.42331 12.2129 8.14988 12.2129C8.6591 12.2129 9.11864 12.3247 9.5285 12.5482C9.94456 12.7718 10.2644 13.0823 10.4879 13.4797C10.5252 13.5542 10.5438 13.6257 10.5438 13.694C10.5438 13.8616 10.4507 13.9983 10.2644 14.1038C10.1464 14.1721 10.0346 14.2063 9.92904 14.2063C9.74895 14.2063 9.58438 14.11 9.43535 13.9175C9.25526 13.6815 9.06585 13.5046 8.86713 13.3866C8.66841 13.2624 8.42933 13.2003 8.14988 13.2003C7.80833 13.2003 7.5413 13.2841 7.34879 13.4518C7.1625 13.6132 7.06935 13.8399 7.06935 14.1318C7.06935 14.2932 7.1004 14.4516 7.1625 14.6068C7.23081 14.7621 7.33327 14.9266 7.46989 15.1005H9.04412C9.19316 15.1005 9.30804 15.144 9.38877 15.2309C9.47571 15.3117 9.51918 15.4297 9.51918 15.5849C9.51918 15.7339 9.47571 15.8519 9.38877 15.9389C9.30804 16.0196 9.19316 16.06 9.04412 16.06H7.92632C7.976 16.2276 8.00084 16.3891 8.00084 16.5443C8.00084 16.7555 7.93564 16.9573 7.80523 17.1498C7.67482 17.3361 7.46678 17.5379 7.18113 17.7553L7.19044 17.7739C7.32706 17.7242 7.44505 17.687 7.54441 17.6621C7.64377 17.6373 7.75865 17.6249 7.88906 17.6249C8.0381 17.6249 8.16541 17.6404 8.27098 17.6715C8.37655 17.6963 8.48522 17.7336 8.597 17.7832C8.7212 17.8329 8.82987 17.8702 8.92302 17.895C9.02238 17.9199 9.14037 17.9323 9.27699 17.9323C9.50055 17.9323 9.70858 17.8453 9.90109 17.6715C10.0129 17.5597 10.134 17.5038 10.2644 17.5038C10.3699 17.5038 10.4786 17.541 10.5904 17.6156C10.727 17.7149 10.7953 17.8391 10.7953 17.9882C10.7953 18.1062 10.7488 18.221 10.6556 18.3328C10.4941 18.5253 10.2892 18.6713 10.0408 18.7706C9.79242 18.87 9.52539 18.9197 9.23973 18.9197Z" fill="#494FC9"></path>
					</svg>