<svg width="24" height="25" viewBox="0 0 24 25" fill="none" xmlns="http://www.w3.org/2000/svg">
										<path d="M3.89405 19.4097C3.98159 20.9295 5.17228 22.1525 6.69047 22.2633C10.305 22.527 13.6951 22.527 17.3096 22.2633C18.8278 22.1525 20.0185 20.9295 20.1061 19.4097C20.3574 15.0476 20.3574 10.8496 20.1061 6.48741C20.0185 4.96771 18.8278 3.74467 17.3096 3.63387C13.6951 3.37009 10.305 3.37009 6.69047 3.63387C5.17228 3.74467 3.98159 4.96771 3.89405 6.48741C3.64274 10.8496 3.64274 15.0476 3.89405 19.4097Z" fill="#E0E1E6" stroke="#676779" stroke-width="1.57797"></path>
										<path d="M20.2739 10.8215H3.7262C3.75403 9.38698 3.80997 7.94637 3.89403 6.48741C3.98157 4.96771 5.17226 3.74467 6.69045 3.63387C10.305 3.37009 13.695 3.37009 17.3096 3.63387C18.8277 3.74467 20.0185 4.96771 20.106 6.48741C20.1901 7.94637 20.246 9.38698 20.2739 10.8215Z" fill="white" stroke="#676779" stroke-width="1.57797" stroke-linejoin="round"></path>
										<path d="M14.0736 7.12891H16.2408" stroke="#676779" stroke-width="1.57797" stroke-linecap="round" stroke-linejoin="round"></path>
										<path d="M7.74634 18.3662H8.19072" stroke="#676779" stroke-width="1.57797" stroke-linecap="round" stroke-linejoin="round"></path>
										<path d="M11.7777 18.3662H12.2221" stroke="#676779" stroke-width="1.57797" stroke-linecap="round" stroke-linejoin="round"></path>
										<path d="M15.8712 18.3662H16.3156" stroke="#676779" stroke-width="1.57797" stroke-linecap="round" stroke-linejoin="round"></path>
										<path d="M7.74634 14.8154H8.19072" stroke="#676779" stroke-width="1.57797" stroke-linecap="round" stroke-linejoin="round"></path>
										<path d="M11.7777 14.8154H12.2221" stroke="#676779" stroke-width="1.57797" stroke-linecap="round" stroke-linejoin="round"></path>
										<path d="M15.8712 14.8154H16.3156" stroke="#676779" stroke-width="1.57797" stroke-linecap="round" stroke-linejoin="round"></path>
									</svg>