<svg width="24" height="25" viewBox="0 0 24 25" fill="none" xmlns="http://www.w3.org/2000/svg">
										<path d="M20.3565 2.22949H3.64362C3.24066 2.22949 2.85421 2.38957 2.56927 2.6745C2.28434 2.95943 2.12427 3.34588 2.12427 3.74884V16.6633C2.12427 17.0663 2.28434 17.4527 2.56927 17.7376C2.85421 18.0226 3.24066 18.1827 3.64362 18.1827H6.68231V21.981L11.4227 18.1827H20.3565C20.7594 18.1827 21.1459 18.0226 21.4308 17.7376C21.7157 17.4527 21.8758 17.0663 21.8758 16.6633V3.74884C21.8758 3.34588 21.7157 2.95943 21.4308 2.6745C21.1459 2.38957 20.7594 2.22949 20.3565 2.22949Z" fill="#E0E1E6" stroke="#676779" stroke-width="1.71" stroke-linecap="round" stroke-linejoin="round"></path>
										<path d="M9.72107 8.30686C9.72107 7.85611 9.85473 7.41548 10.1052 7.0407C10.3556 6.66592 10.7115 6.37381 11.1279 6.20131C11.5444 6.02882 12.0026 5.98369 12.4447 6.07162C12.8868 6.15956 13.2929 6.37662 13.6116 6.69534C13.9303 7.01407 14.1474 7.42015 14.2353 7.86224C14.3233 8.30433 14.2781 8.76256 14.1056 9.179C13.9331 9.59544 13.641 9.95137 13.2663 10.2018C12.8915 10.4522 12.4508 10.5859 12.0001 10.5859V11.3456" stroke="#676779" stroke-width="1.71" stroke-linecap="round" stroke-linejoin="round"></path>
										<path d="M12.0001 13.6245C11.7747 13.6245 11.5544 13.6913 11.367 13.8166C11.1796 13.9418 11.0336 14.1197 10.9473 14.328C10.8611 14.5362 10.8385 14.7653 10.8825 14.9863C10.9265 15.2074 11.035 15.4104 11.1944 15.5698C11.3537 15.7291 11.5568 15.8377 11.7778 15.8816C11.9988 15.9256 12.228 15.903 12.4362 15.8168C12.6444 15.7305 12.8224 15.5845 12.9476 15.3971C13.0728 15.2097 13.1396 14.9894 13.1396 14.764C13.1357 14.463 13.0144 14.1755 12.8015 13.9626C12.5887 13.7498 12.3011 13.6284 12.0001 13.6245Z" fill="#676779"></path>
									</svg>