<svg class="menu-hovered" data-state="active" width="24" height="24" viewBox="0 0 24 24" fill="none" xmlns="http://www.w3.org/2000/svg">
										<path d="M5.54976 12.6625L1.54383 16.5511C1.34391 16.7452 1.34118 17.0652 1.53777 17.2627L5.47445 21.2165C5.67039 21.4133 5.98917 21.4127 6.18438 21.2152L7.23565 20.1516C7.32958 20.0565 7.45764 20.003 7.59127 20.003H15.61C16.6546 19.8935 17.4333 19.1234 17.692 18.752L22.6885 13.1653C22.8855 12.9063 22.8175 12.6258 22.7589 12.5179C21.9096 11.199 20.6151 12.0817 20.0218 12.5179L16.7198 15.2511C16.0025 15.8449 15.1004 16.1698 14.1692 16.1698H11.5993C11.4773 16.158 11.2334 16.0656 11.2334 15.7898C11.2334 15.5799 11.3746 14.7885 11.4958 14.4137C11.5429 14.2684 11.676 14.2148 11.8287 14.2148H14.2498C14.7782 14.2289 15.7891 13.9308 15.7891 12.9978C15.7891 12.1398 14.7829 12.1093 14.2498 12.1398H12.1119C11.2914 12.1255 10.5087 11.8165 10.3044 11.7042C8.0366 10.6641 6.246 11.9946 5.54976 12.6625Z" fill="#D7E0FF"></path>
										<path fill-rule="evenodd" clip-rule="evenodd" d="M6.0358 13.1663L2.17678 16.9124L5.8283 20.5798L6.73784 19.6595C6.96327 19.4315 7.27062 19.3031 7.59131 19.3031H15.5702C16.3215 19.2093 16.9258 18.6273 17.1177 18.3519L17.142 18.3171L22.0903 12.7842C21.9764 12.6401 21.8766 12.581 21.8057 12.5538C21.7142 12.5187 21.599 12.5097 21.4441 12.5436C21.1082 12.6171 20.7512 12.8515 20.4524 13.0702L17.1662 15.7904C16.3233 16.4881 15.2635 16.8698 14.1693 16.8698H11.5657L11.5323 16.8666C11.3671 16.8507 11.1426 16.7877 10.942 16.6323C10.7145 16.4561 10.5334 16.1683 10.5334 15.7899C10.5334 15.6099 10.5823 15.2969 10.631 15.0355C10.683 14.7561 10.7552 14.4292 10.8299 14.1982C11.013 13.6324 11.5386 13.5148 11.8287 13.5148H14.2592L14.2685 13.5151C14.42 13.5191 14.6706 13.4723 14.8601 13.3597C15.0226 13.2632 15.0891 13.1585 15.0891 12.9978C15.0891 12.9682 15.0861 12.9518 15.0839 12.944C15.0764 12.9375 15.0506 12.9182 14.9887 12.8966C14.8084 12.8336 14.541 12.8243 14.2898 12.8387L14.2698 12.8398H12.0998C11.1753 12.8237 10.3067 12.4954 9.9944 12.3322C8.14887 11.4971 6.67753 12.5513 6.0358 13.1663ZM5.06525 12.1573C5.81466 11.4385 7.91613 9.83877 10.5962 11.068L10.6192 11.0785L10.6414 11.0907C10.7634 11.1577 11.4321 11.4264 12.1184 11.4398H14.2305C14.5157 11.4245 15.0049 11.4194 15.4501 11.5748C15.6871 11.6575 15.953 11.7996 16.1611 12.0491C16.3786 12.3098 16.4891 12.6356 16.4891 12.9978C16.4891 13.7702 16.0503 14.2811 15.5752 14.5633C15.1312 14.8271 14.6175 14.9229 14.2415 14.9148H12.0858C12.059 15.03 12.0319 15.1601 12.0073 15.2918C11.9958 15.3535 11.9853 15.4135 11.976 15.4698H14.1693C14.9375 15.4698 15.6817 15.2018 16.2735 14.7119L19.591 11.9659L19.6072 11.954C19.8985 11.7398 20.4787 11.3218 21.1447 11.176C21.4938 11.0996 21.8985 11.0899 22.3071 11.2466C22.7201 11.405 23.0697 11.7076 23.3475 12.139L23.3615 12.1608L23.374 12.1837C23.5228 12.4576 23.6563 13.0495 23.2457 13.5892L23.2288 13.6113L18.2394 19.1901C17.8935 19.6651 16.9706 20.5642 15.683 20.6993L15.6466 20.7031H7.67484L6.68229 21.7073C6.21377 22.1814 5.44871 22.1828 4.97845 21.7104L1.04177 17.7566C0.56996 17.2827 0.576502 16.5147 1.05631 16.0489L5.06525 12.1573Z" fill="#494FC9"></path>
										<path d="M17.5562 4.02955C16.5068 3.10937 15.295 3.98578 14.826 4.36918C13.5356 3.28135 12.4654 3.67726 12.0639 4.09687C10.9982 5.16869 11.5761 6.61338 12.0639 7.17601C13.1349 8.41145 14.2865 9.32393 14.6702 9.64756C14.8203 9.74256 14.9584 9.68714 15.0086 9.64756C16.1341 8.72738 17.176 7.61645 17.5562 7.17601C18.7426 5.67787 18.0505 4.45414 17.5562 4.02955Z" fill="#D7E0FF"></path>
										<path fill-rule="evenodd" clip-rule="evenodd" d="M16.1798 4.37922C15.8217 4.48969 15.4879 4.73203 15.2691 4.91092L14.8191 5.27876L14.3748 4.90418C13.3459 4.03678 12.6971 4.44741 12.5696 4.58064L12.5604 4.59031L12.5603 4.59022C12.2062 4.94634 12.1257 5.347 12.1757 5.73849C12.2293 6.15805 12.4331 6.53315 12.5928 6.71729L12.0639 7.17581L12.5928 6.71729C13.4332 7.68672 14.3244 8.4481 14.8388 8.87685C15.8082 8.04818 16.6777 7.12068 17.0164 6.72987C17.4928 6.12311 17.5475 5.64056 17.4951 5.30949C17.4377 4.9469 17.2374 4.67825 17.1001 4.56035L17.0947 4.55571L17.0947 4.55568C16.7969 4.29452 16.5024 4.27968 16.1798 4.37922ZM18.0151 3.50074C17.2642 2.84399 16.4291 2.83719 15.7671 3.04143C15.4045 3.15328 15.0823 3.32993 14.8265 3.4986C13.4465 2.60519 12.1748 2.97343 11.563 3.60758C10.8552 4.32238 10.6927 5.17795 10.787 5.91589C10.8779 6.62728 11.2068 7.25585 11.5349 7.63434L12.0355 7.2004L11.5349 7.63434C12.5288 8.78081 13.5905 9.66093 14.0707 10.0591C14.1291 10.1074 14.1789 10.1487 14.2189 10.1824L14.2554 10.2133L14.2958 10.2388C14.756 10.5301 15.2187 10.3728 15.4416 10.1974L15.4417 10.1975L15.4517 10.1893C16.6169 9.23667 17.6876 8.09487 18.0861 7.63325L18.0958 7.62201L18.105 7.61038C18.8066 6.72435 18.9981 5.84993 18.8779 5.09052C18.7626 4.36246 18.3714 3.80793 18.0151 3.50074Z" fill="#494FC9"></path>
									</svg>