<svg aria-label="Graphics Symbol" role="graphics-symbol" width="20" height="20" viewBox="0 0 20 20" fill="none" xmlns="http://www.w3.org/2000/svg">
									<g clip-path="url(#clip0_2287_120809)">
										<path d="M16.9636 1.77026H3.03627C2.70047 1.77026 2.37843 1.90366 2.14098 2.1411C1.90354 2.37855 1.77014 2.70059 1.77014 3.03639V13.7984C1.77014 14.1342 1.90354 14.4563 2.14098 14.6937C2.37843 14.9312 2.70047 15.0646 3.03627 15.0646H5.56851V18.2299L9.51882 15.0646H16.9636C17.2994 15.0646 17.6215 14.9312 17.8589 14.6937C18.0964 14.4563 18.2298 14.1342 18.2298 13.7984V3.03639C18.2298 2.70059 18.0964 2.37855 17.8589 2.1411C17.6215 1.90366 17.2994 1.77026 16.9636 1.77026Z" fill="#E5E5E5" stroke="#595959" stroke-width="1.71" stroke-linecap="round" stroke-linejoin="round"></path>
										<path d="M8.10083 6.83473C8.10083 6.45911 8.21222 6.09192 8.4209 5.7796C8.62959 5.46728 8.9262 5.22386 9.27323 5.08011C9.62026 4.93637 10.0021 4.89876 10.3705 4.97204C10.7389 5.04532 11.0773 5.2262 11.3429 5.49181C11.6085 5.75741 11.7894 6.09581 11.8627 6.46422C11.936 6.83263 11.8984 7.21449 11.7546 7.56152C11.6109 7.90855 11.3675 8.20516 11.0551 8.41385C10.7428 8.62253 10.3756 8.73392 10 8.73392V9.36698" stroke="#595959" stroke-width="1.71" stroke-linecap="round" stroke-linejoin="round"></path>
										<path d="M10 11.2661C9.8122 11.2661 9.6286 11.3218 9.47244 11.4261C9.31628 11.5305 9.19457 11.6788 9.1227 11.8523C9.05083 12.0258 9.03202 12.2168 9.06866 12.401C9.1053 12.5852 9.19574 12.7544 9.32854 12.8872C9.46135 13.02 9.63055 13.1104 9.81475 13.1471C9.99895 13.1837 10.1899 13.1649 10.3634 13.093C10.5369 13.0211 10.6852 12.8994 10.7896 12.7433C10.8939 12.5871 10.9496 12.4035 10.9496 12.2157C10.9463 11.9649 10.8452 11.7252 10.6678 11.5479C10.4905 11.3705 10.2508 11.2694 10 11.2661Z" fill="#616161"></path>
									</g>
									<defs>
										<clipPath id="clip0_2287_120809">
											<rect width="20" height="20" fill="white"></rect>
										</clipPath>
									</defs>
								</svg>