<svg aria-label="Graphics Symbol" role="graphics-symbol" width="21" height="20" viewBox="0 0 21 20" fill="none" xmlns="http://www.w3.org/2000/svg">
									<path d="M16.9812 15.1152C17.0848 13.4641 17.1393 11.7531 17.1393 9.99989C17.1393 9.28982 17.1304 8.58668 17.1129 7.89164C17.1006 7.40337 16.9421 6.92885 16.6532 6.53511C15.5515 5.03436 14.6739 4.10136 13.2276 2.98512C12.8301 2.67836 12.3424 2.51193 11.8405 2.50096C11.3371 2.48996 10.8115 2.48437 10.2501 2.48437C8.55036 2.48437 7.17928 2.53557 5.76042 2.63312C4.55338 2.71612 3.59474 3.67701 3.51894 4.88453C3.41531 6.53565 3.36084 8.24666 3.36084 9.99989C3.36084 11.7531 3.41531 13.4641 3.51894 15.1152C3.59474 16.3228 4.55338 17.2837 5.76042 17.3666C7.17928 17.4642 8.55036 17.5154 10.2501 17.5154C11.9498 17.5154 13.3208 17.4642 14.7397 17.3666C15.9467 17.2837 16.9054 16.3228 16.9812 15.1152Z" fill="#EEEEEE" stroke="#707070" stroke-width="1.71"></path>
									<path d="M6.91675 9.92188H11.2025" stroke="#707070" stroke-width="1.71" stroke-linecap="round"></path>
									<path d="M6.91675 6.58984L11.2025 6.58984" stroke="#707070" stroke-width="1.71" stroke-linecap="round"></path>
									<path d="M6.91675 13.2578L14.4167 13.2578" stroke="#707070" stroke-width="1.71" stroke-linecap="round"></path>
									<path fill-rule="evenodd" clip-rule="evenodd" d="M15.9436 8.78941L18.9387 4.73349C19.4366 4.05931 19.211 3.06347 18.4411 2.53653C17.6892 2.02199 16.7062 2.15291 16.2451 2.82896L13.378 7.03344C13.378 7.03344 14.2098 7.20378 14.8514 7.64291C15.493 8.08203 15.9436 8.78941 15.9436 8.78941Z" fill="#EEEEEE" stroke="#707070" stroke-width="1.3" stroke-linecap="round" stroke-linejoin="round"></path>
									<path d="M13.7022 9.81414L15.9421 8.79069C15.9421 8.79069 15.4922 8.0829 14.851 7.64319C14.2098 7.20349 13.3781 7.0324 13.3781 7.0324L13.1717 9.44086C13.1485 9.71181 13.4547 9.92721 13.7022 9.81414Z" fill="white" stroke="#707070" stroke-width="1.3" stroke-linecap="round" stroke-linejoin="round"></path>
								</svg>