<svg aria-label="Graphics Symbol" role="graphics-symbol" width="24" height="24" viewBox="0 0 24 24" fill="none" xmlns="http://www.w3.org/2000/svg">
							<path d="M17.3164 13.7933C17.6614 14.1512 17.6508 14.7209 17.2929 15.0658C16.935 15.4108 16.3653 15.4002 16.0204 15.0424L11.3599 10.2066C11.015 9.84868 11.0255 9.27893 11.3834 8.93401C11.7413 8.58908 12.311 8.5996 12.656 8.9575L17.3164 13.7933Z" fill="#494FC9"></path>
							<path d="M12.64 10.2066C12.9849 9.84874 12.9744 9.27899 12.6165 8.93407C12.2586 8.58914 11.6889 8.59966 11.3439 8.95756L6.68348 13.7933C6.33856 14.1512 6.34908 14.721 6.70698 15.0659C7.06488 15.4108 7.63463 15.4003 7.97955 15.0424L12.64 10.2066Z" fill="#494FC9"></path>
						</svg>