<svg width="25" height="24" viewBox="0 0 25 24" fill="none" xmlns="http://www.w3.org/2000/svg">
<g id="Icons/active/Phone" clip-path="url(#clip0_4578_61538)">
<path id="Vector" d="M15.1007 22.286C16.1564 22.9671 17.4144 23.2639 18.6632 23.1265C19.912 22.9892 21.0755 22.426 21.9579 21.5318L22.7293 20.7775C23.0675 20.4315 23.2569 19.967 23.2569 19.4832C23.2569 18.9994 23.0675 18.5348 22.7293 18.1889L19.455 14.9489C19.112 14.6118 18.6503 14.4229 18.1693 14.4229C17.6883 14.4229 17.2266 14.6118 16.8836 14.9489C16.5376 15.2871 16.0731 15.4765 15.5893 15.4765C15.1055 15.4765 14.6409 15.2871 14.295 14.9489L9.15215 9.80604C8.98059 9.63697 8.84435 9.43548 8.75136 9.21328C8.65837 8.99109 8.61048 8.75262 8.61048 8.51175C8.61048 8.27088 8.65837 8.03242 8.75136 7.81022C8.84435 7.58803 8.98059 7.38653 9.15215 7.21747C9.48927 6.87443 9.67818 6.41271 9.67818 5.93175C9.67818 5.45079 9.48927 4.98907 9.15215 4.64604L5.89501 1.38889C5.54908 1.05069 5.08451 0.861328 4.60072 0.861328C4.11694 0.861328 3.65237 1.05069 3.30644 1.38889L2.55215 2.16032C1.65789 3.04274 1.09472 4.20616 0.957357 5.45495C0.819989 6.70375 1.11679 7.96176 1.79787 9.01747C5.34651 14.2473 9.86176 18.7509 15.1007 22.286Z" fill="#D7E0FF" stroke="#494FC9" stroke-width="1.71429" stroke-linecap="round" stroke-linejoin="round"/>
</g>
<defs>
<clipPath id="clip0_4578_61538">
<rect width="24" height="24" fill="white" transform="translate(0.0836182)"/>
</clipPath>
</defs>
</svg>
