<svg
                aria-label="Graphics Symbol"
                role="graphics-symbol"
                width="24"
                height="24"
                viewBox="0 0 24 24"
                fill="none"
                xmlns="http://www.w3.org/2000/svg"
              >
                <path
                  d="M8.15385 17.3846V20.4615C8.15385 20.8696 8.31594 21.2609 8.60445 21.5494C8.89297 21.8379 9.28428 22 9.69231 22H20.4615C20.8696 22 21.2609 21.8379 21.5494 21.5494C21.8379 21.2609 22 20.8696 22 20.4615V3.53846C22 3.13044 21.8379 2.73912 21.5494 2.4506C21.2609 2.16209 20.8696 2 20.4615 2H9.69231C9.28428 2 8.89297 2.16209 8.60445 2.4506C8.31594 2.73912 8.15385 3.13044 8.15385 3.53846V6.61538"
                  fill="#D7E0FF"
                />
                <path
                  d="M8.15385 17.3846V20.4615C8.15385 20.8696 8.31593 21.2609 8.60445 21.5494C8.89297 21.8379 9.28428 22 9.69231 22H20.4615C20.8696 22 21.2609 21.8379 21.5494 21.5494C21.8379 21.2609 22 20.8696 22 20.4615V3.53846C22 3.13044 21.8379 2.73912 21.5494 2.4506C21.2609 2.16209 20.8696 2 20.4615 2H9.69231C9.28428 2 8.89297 2.16209 8.60445 2.4506C8.31593 2.73912 8.15385 3.13044 8.15385 3.53846V6.61538"
                  stroke="#494FC9"
                  stroke-width="1.71"
                  stroke-linecap="round"
                  stroke-linejoin="round"
                />
                <path
                  d="M4 12H14.7692"
                  stroke="#494FC9"
                  stroke-width="1.71"
                  stroke-linecap="round"
                  stroke-linejoin="round"
                />
                <path
                  d="M11.6921 8.92188L14.7691 11.9988L11.6921 15.0757"
                  stroke="#494FC9"
                  stroke-width="1.71"
                  stroke-linecap="round"
                  stroke-linejoin="round"
                />
              </svg>