<svg aria-label="Graphics Symbol" role="graphics-symbol" width="20" height="20" viewbox="0 0 20 20" fill="none" xmlns="http://www.w3.org/2000/svg">
												<g clip-path="url(#clip0_2287_108859)">
													<path d="M14.9338 14.4431C13.8634 17.0731 11.2818 18.9272 8.26716 18.9272C4.29363 18.9272 1.07245 15.7061 1.07245 11.7325C1.07245 7.75901 4.29363 4.53784 8.26716 4.53784C9.21315 4.53784 10.1165 4.72041 10.9439 5.05224C8.8956 5.72143 7.41579 7.6476 7.41579 9.9194C7.41579 12.7467 9.70776 15.0386 12.535 15.0386C13.4018 15.0386 14.2183 14.8232 14.9338 14.4431Z" fill="#E5E5E5" stroke="#595959" stroke-width="1.71429" stroke-linecap="round" stroke-linejoin="round"></path>
													<path d="M17.8846 8.00205V5.31421" stroke="#595959" stroke-width="1.71429" stroke-linecap="round" stroke-linejoin="round"></path>
													<path d="M19.2283 6.65894H16.5404" stroke="#595959" stroke-width="1.71429" stroke-linecap="round" stroke-linejoin="round"></path>
													<path d="M13.9481 3.61143V0.923584" stroke="#616161" stroke-width="1.71429" stroke-linecap="round" stroke-linejoin="round"></path>
													<path d="M15.2917 2.26807H12.6039" stroke="#616161" stroke-width="1.71429" stroke-linecap="round" stroke-linejoin="round"></path>
												</g>
												<defs>
													<clipPath id="clip0_2287_108859">
														<rect width="20" height="20" fill="white"></rect>
													</clipPath>
												</defs>
											</svg>