<svg aria-label="Graphics Symbol" role="graphics-symbol" width="20" height="20" viewbox="0 0 20 20" fill="none" xmlns="http://www.w3.org/2000/svg">
												<g clip-path="url(#clip0_2287_109097)">
													<path d="M1.14488 15.8328L1.07144 9.97937C3.34178 6.26949 5.19509 4.14421 9.21463 1.38216C9.68756 1.05718 10.3125 1.05718 10.7854 1.38216C14.805 4.14421 16.6583 6.26949 18.9286 9.97937L18.8552 15.8328C18.7012 17.2039 17.6076 18.2969 16.2369 18.4558C12.2478 18.9182 7.75227 18.9182 3.76316 18.4558C2.39246 18.2969 1.29883 17.2039 1.14488 15.8328Z" fill="#E5E5E5"></path>
													<path d="M10 11.9288C11.7254 11.9288 13.124 10.5302 13.124 8.80488C13.124 7.07955 11.7254 5.68091 10 5.68091C8.27471 5.68091 6.87607 7.07955 6.87607 8.80488C6.87607 10.5302 8.27471 11.9288 10 11.9288Z" fill="white"></path>
													<path fill-rule="evenodd" clip-rule="evenodd" d="M6.16177 8.80481C6.16177 6.68499 7.88021 4.96655 10 4.96655C12.1198 4.96655 13.8383 6.68499 13.8383 8.80481C13.8383 10.9246 12.1198 12.6431 10 12.6431C7.88022 12.6431 6.16177 10.9246 6.16177 8.80481ZM10 6.39512C8.66919 6.39512 7.59035 7.47397 7.59035 8.80481C7.59035 10.1356 8.66919 11.2145 10 11.2145C11.3309 11.2145 12.4097 10.1356 12.4097 8.80481C12.4097 7.47397 11.3309 6.39512 10 6.39512Z" fill="#616161"></path>
													<path d="M4.63425 18.5466C4.88558 17.3089 5.55708 16.196 6.53498 15.3967C7.51288 14.5975 8.73702 14.1609 10 14.1609C11.263 14.1609 12.4871 14.5975 13.465 15.3967C14.4429 16.196 15.1144 17.3089 15.3657 18.5466" fill="white"></path>
													<path fill-rule="evenodd" clip-rule="evenodd" d="M9.99998 14.8753C8.90174 14.8753 7.8373 15.255 6.98699 15.95C6.13668 16.645 5.55277 17.6127 5.33423 18.6889C5.25572 19.0755 4.87868 19.3253 4.49208 19.2468C4.10549 19.1683 3.85572 18.7912 3.93423 18.4046C4.21834 17.0055 4.97743 15.7474 6.08292 14.8439C7.18841 13.9403 8.57225 13.4468 9.99998 13.4468C11.4277 13.4468 12.8116 13.9403 13.9171 14.8439L13.9171 14.8439C15.0225 15.7474 15.7816 17.0055 16.0657 18.4047C16.1442 18.7913 15.8944 19.1683 15.5078 19.2468C15.1212 19.3253 14.7442 19.0755 14.6657 18.6889C14.4472 17.6127 13.8633 16.645 13.013 15.95M9.99998 14.8753C11.0982 14.8753 12.1627 15.255 13.013 15.95L9.99998 14.8753Z" fill="#616161"></path>
													<path fill-rule="evenodd" clip-rule="evenodd" d="M10.3809 1.97102C10.1516 1.81351 9.84838 1.8135 9.61914 1.97103C5.75259 4.62795 3.96151 6.65427 1.78826 10.1773L1.85863 15.786C1.98895 16.8101 2.81444 17.6269 3.8454 17.7464C7.77986 18.2025 12.2201 18.2025 16.1546 17.7464C17.1856 17.6269 18.011 16.8101 18.1414 15.786L18.2118 10.1773C16.0386 6.65427 14.2475 4.62795 10.3809 1.97103L10.3809 1.97102ZM8.81009 0.793634C9.52671 0.301215 10.4733 0.301206 11.1899 0.793633C15.2989 3.61711 17.2197 5.81858 19.5378 9.60672C19.6081 9.72155 19.6445 9.8539 19.6428 9.98852L19.5694 15.8419C19.5691 15.8655 19.5676 15.8892 19.565 15.9127C19.3737 17.6159 18.0186 18.9685 16.3191 19.1655C12.2753 19.6342 7.72466 19.6342 3.68092 19.1655C1.98144 18.9685 0.626265 17.6159 0.435048 15.9126C0.432411 15.8891 0.430941 15.8655 0.430645 15.8419L0.357203 9.98852C0.355514 9.8539 0.391905 9.72154 0.462179 9.60671C2.78041 5.81858 4.70116 3.61711 8.81009 0.793636L9.17341 1.32236L8.81009 0.793634Z" fill="#616161"></path>
												</g>
												<defs>
													<clipPath id="clip0_2287_109097">
														<rect width="20" height="20" fill="white"></rect>
													</clipPath>
												</defs>
											</svg>