<svg width="121" height="38" viewBox="0 0 121 38" fill="none" xmlns="http://www.w3.org/2000/svg">
<path d="M51.609 21.3469C49.2764 21.3469 47.7699 23.0509 47.7699 25.567C47.7699 28.0988 49.2597 29.7546 51.494 29.7546C53.8099 29.7546 55.3163 28.083 55.3163 25.567C55.3163 23.0027 53.8441 21.3469 51.609 21.3469ZM51.5756 28.5791C50.2044 28.5791 49.1763 27.3553 49.1763 25.5179C49.1763 23.7146 50.0867 22.5067 51.5265 22.5067C52.9004 22.5067 53.9117 23.7471 53.9117 25.5846C53.9117 27.4053 53.0663 28.5791 51.5756 28.5791ZM100.165 18.535C99.6845 18.535 99.3053 18.9169 99.3053 19.3971C99.3053 19.8765 99.6845 20.2575 100.165 20.2575C100.643 20.2575 101.025 19.8765 101.025 19.3971C101.025 18.9169 100.643 18.535 100.165 18.535ZM43.8168 28.4641C41.3824 28.4641 39.8592 26.7091 39.8592 24.0122C39.8592 21.2477 41.6808 19.6096 43.9318 19.6096C45.4883 19.6096 46.4645 20.2706 46.5971 20.354L47.2423 19.3296C47.1097 19.1952 46.0343 18.3033 43.8501 18.3033C40.8047 18.3033 38.3369 20.4533 38.3369 24.1448C38.3369 27.7012 40.6713 29.7871 43.6342 29.7871C45.8693 29.7871 47.2257 28.7617 47.3415 28.63L46.6972 27.6037C46.5804 27.6697 45.4049 28.4641 43.8168 28.4641ZM106.223 21.3469C103.89 21.3469 102.384 23.0509 102.384 25.567C102.384 28.0988 103.873 29.7546 106.108 29.7546C108.425 29.7546 109.93 28.083 109.93 25.567C109.93 23.0027 108.459 21.3469 106.223 21.3469ZM106.19 28.5791C104.816 28.5791 103.791 27.3553 103.791 25.5179C103.791 23.7146 104.701 22.5067 106.142 22.5067C107.514 22.5067 108.525 23.7471 108.525 25.5846C108.525 27.4053 107.68 28.5791 106.19 28.5791ZM115.162 21.3469C113.804 21.3469 112.795 22.0765 112.661 22.159V21.5629H111.405V29.572H112.81V23.2353C112.877 23.1843 113.886 22.5383 114.913 22.5383C115.409 22.5383 115.822 22.7217 116.038 22.9359C116.451 23.3503 116.469 24.0122 116.469 25.021V29.572H117.874V24.9226C117.874 23.6321 117.841 22.8034 117.08 22.0422C116.833 21.7946 116.269 21.3469 115.162 21.3469ZM65.0128 21.3469C63.8057 21.3469 62.8944 21.8597 62.2334 22.274C61.8682 21.7771 61.2712 21.3469 60.2633 21.3469C59.0053 21.3469 57.9132 22.0914 57.814 22.159V21.5629H56.5551V29.572H57.9624V23.2011C58.0783 23.1361 59.0369 22.5383 60.0149 22.5383C60.4934 22.5383 60.8428 22.6883 61.057 22.9034C61.4713 23.3336 61.4556 24.0614 61.4556 25.1368V29.572H62.8461V25.0877C62.8461 24.4415 62.8461 23.5654 62.7118 23.2169C62.8944 23.1019 63.8539 22.5383 64.8301 22.5383C65.3103 22.5383 65.6756 22.6716 65.9231 22.9535C66.3375 23.3995 66.3217 24.3924 66.3217 24.8893V29.572H67.7281V24.9226C67.7281 23.6321 67.6947 22.8034 66.9318 22.0422C66.6842 21.7946 66.1207 21.3469 65.0128 21.3469ZM82.2064 29.572H83.6128V21.562H82.2064V29.572ZM82.9017 18.535C82.4215 18.535 82.0396 18.9169 82.0396 19.3971C82.0396 19.8765 82.4215 20.2575 82.9017 20.2575C83.3802 20.2575 83.7612 19.8765 83.7612 19.3971C83.7612 18.9169 83.3802 18.535 82.9017 18.535ZM77.7195 21.3469C76.5132 21.3469 75.602 21.8597 74.9391 22.274C74.5766 21.7771 73.9805 21.3469 72.9718 21.3469C71.7129 21.3469 70.6199 22.0914 70.5207 22.159V21.5629H69.2627V29.572H70.6699V23.2011C70.7866 23.1361 71.7462 22.5383 72.7216 22.5383C73.2026 22.5383 73.5512 22.6883 73.7654 22.9034C74.1798 23.3336 74.1631 24.0614 74.1631 25.1368V29.572H75.5537V25.0877C75.5537 24.4415 75.5537 23.5654 75.4193 23.2169C75.6019 23.1019 76.5623 22.5383 77.5385 22.5383C78.017 22.5383 78.3822 22.6716 78.6315 22.9535C79.045 23.3995 79.0275 24.3924 79.0275 24.8893V29.572H80.4347V24.9226C80.4347 23.6321 80.4014 22.8034 79.6402 22.0422C79.3926 21.7946 78.83 21.3469 77.7195 21.3469ZM86.8724 23.532C86.8724 22.936 87.3693 22.4558 88.3446 22.4558C89.3217 22.4558 90.1504 22.9359 90.2488 23.0027L90.7773 22.0589C90.6946 21.993 89.8019 21.3469 88.2463 21.3469C86.6081 21.3469 85.4484 22.2582 85.4484 23.6137C85.4484 26.1631 89.4034 25.7988 89.4034 27.4378C89.4034 28.1498 88.7265 28.63 87.8644 28.63C86.7073 28.63 85.8961 28.1173 85.7293 28.0172L85.2 28.9934C85.3 29.0768 86.3588 29.7871 87.9469 29.7871C89.521 29.7871 90.8782 28.8942 90.8782 27.3386C90.8782 24.7901 86.8724 25.0719 86.8724 23.532ZM99.4702 29.572H100.877V21.562H99.4702V29.572ZM93.6936 23.532C93.6936 22.936 94.1888 22.4558 95.1667 22.4558C96.1421 22.4558 96.97 22.9359 97.0709 23.0027L97.5986 22.0589C97.5169 21.993 96.6232 21.3469 95.0676 21.3469C93.4294 21.3469 92.2706 22.2582 92.2706 23.6137C92.2706 26.1631 96.2246 25.7988 96.2246 27.4378C96.2246 28.1498 95.5486 28.63 94.6865 28.63C93.5286 28.63 92.7157 28.1173 92.5506 28.0172L92.0212 28.9934C92.1223 29.0768 93.1801 29.7871 94.7708 29.7871C96.3405 29.7871 97.6977 28.8942 97.6977 27.3386C97.6977 24.7901 93.6936 25.0719 93.6936 23.532Z" fill="#596876"/>
<path d="M43.767 15.7147C46.2348 15.7147 47.6579 14.49 47.7895 14.3583L46.8247 12.8053C46.6456 12.9036 45.4833 13.7043 44.0435 13.7043C41.9682 13.7043 40.6443 12.2171 40.6443 9.94424C40.6443 7.62396 42.1806 6.23248 44.1594 6.23248C45.7449 6.23248 46.629 6.98485 46.7589 7.06649L47.7571 5.54773C47.6421 5.43276 46.5139 4.2888 44.062 4.2888C40.8076 4.2888 38.3223 6.4625 38.3223 10.0926C38.3223 13.5902 40.6935 15.7147 43.767 15.7147ZM48.4216 13.0494C48.4216 14.5708 49.418 15.633 51.0202 15.633C52.2949 15.633 53.1447 14.979 53.2922 14.8807V15.4539H55.206V10.6307C55.206 9.58428 55.2235 8.7512 54.5511 8.08046C53.7663 7.2965 52.6066 7.18235 51.9201 7.18235C50.0721 7.18235 48.9764 7.9488 48.8632 8.04712L49.5971 9.45436C49.7131 9.38842 50.6769 8.8653 51.7401 8.8653C52.3449 8.8653 52.704 9.01286 52.8831 9.19186C53.1123 9.4218 53.129 9.65016 53.129 10.14H52.8998C51.9201 10.14 48.4216 10.1893 48.4216 13.0494ZM53.1289 13.4751C53.0314 13.5244 52.4907 13.9659 51.5917 13.9659C51.0536 13.9659 50.3504 13.7367 50.3504 12.9037C50.3504 11.8897 51.3626 11.6447 52.7865 11.6447H53.1289V13.4751Z" fill="#596876"/>
<path d="M58.4531 10.1734C58.699 9.81431 59.367 9.01281 60.7085 9.01281C60.8217 9.01281 61.1333 9.04519 61.1992 9.06187L61.7057 7.39296C61.6575 7.37803 61.3625 7.18218 60.7883 7.18218C59.1879 7.18218 58.1915 8.30852 58.1248 8.42352V7.41043H56.2461V15.4537H58.4531V10.1734ZM65.3973 7.1824C63.1104 7.1824 61.5398 9.01283 61.5398 11.4815C61.5398 13.8193 62.9304 15.6813 65.5448 15.6813C67.3278 15.6813 68.5534 14.8482 68.6008 14.7999L67.8827 13.3935C67.5385 13.5568 66.7537 13.9659 65.7397 13.9659C64.1384 13.9659 63.6477 12.7404 63.681 12.1513H68.9782C68.9782 12.0381 69.0116 11.8081 69.0116 11.4657C69.0116 8.84867 67.7501 7.1824 65.3973 7.1824ZM63.6643 10.565C63.8276 9.56765 64.4474 8.81706 65.4464 8.81706C66.8037 8.81706 66.967 10.1251 66.967 10.565H63.6643ZM85.2115 15.6813C86.3545 15.6813 87.3535 14.9465 87.4835 14.8482V15.454H89.3622V7.41065H87.1569V13.2961C87.0252 13.3936 86.3712 13.8026 85.668 13.8026C85.1465 13.8026 84.9007 13.6068 84.8032 13.5085C84.5083 13.2136 84.4591 12.6921 84.4591 11.6448V7.41065H82.2521V11.7431C82.2521 12.7887 82.2187 13.9984 83.1185 14.8982C83.6418 15.4206 84.3617 15.6813 85.2115 15.6813ZM95.1098 14.8807V15.454H97.0219V10.6308C97.0219 9.58434 97.0393 8.75119 96.3696 8.08048C95.5839 7.29652 94.4242 7.1824 93.7376 7.1824C91.8897 7.1824 90.794 7.94882 90.6799 8.04714L91.4147 9.45442C91.5307 9.38847 92.4937 8.86532 93.5559 8.86532C94.1625 8.86532 94.5216 9.01288 94.6998 9.19188C94.9297 9.42182 94.9464 9.65018 94.9464 10.14H94.7172C93.7375 10.14 90.2391 10.1893 90.2391 13.0494C90.2391 14.5708 91.2355 15.633 92.8377 15.633C94.1124 15.633 94.9623 14.979 95.1098 14.8807ZM92.1678 12.9037C92.1678 11.8897 93.1809 11.6448 94.6031 11.6448H94.9464V13.4752C94.8488 13.5245 94.3082 13.9659 93.4092 13.9659C92.8702 13.9659 92.1678 13.7367 92.1678 12.9037ZM100.309 3.61725H98.1015V15.454H100.309V3.61725ZM102.562 6.41248C103.263 6.41248 103.82 5.85765 103.82 5.15447C103.82 4.45216 103.263 3.89555 102.562 3.89555C101.859 3.89555 101.301 4.45216 101.301 5.15447C101.301 5.85765 101.859 6.41248 102.562 6.41248ZM103.673 7.41065H101.466V15.454H103.673V7.41065ZM109.38 13.8342C108.413 13.8342 108.364 13.0994 108.364 12.4621V9.24106H110.655V7.41065H108.364V5.17114H106.16V7.41065H104.769V9.24106H106.16V12.3804C106.16 13.5085 106.16 14.2758 106.846 14.9623C107.384 15.5023 108.202 15.6813 108.921 15.6813C110.114 15.6813 110.883 15.2082 110.946 15.159L110.392 13.6394C110.246 13.6884 109.885 13.8342 109.38 13.8342ZM112.874 17.4635C112.236 17.4635 111.748 17.2353 111.633 17.1869L110.979 18.7548C111.044 18.7882 111.812 19.2614 112.989 19.2614C114.314 19.2614 114.998 18.7715 115.343 18.4283C115.913 17.8568 116.274 17.1211 116.896 15.5347L120.083 7.41062H117.909L115.898 13.0494L113.74 7.41062H111.403L114.77 15.454C114.639 15.813 114.361 16.6628 113.97 17.0552C113.707 17.316 113.365 17.4635 112.874 17.4635ZM81.2801 9.92668C81.2801 6.64771 79.1802 4.28354 75.9478 4.28354C72.7812 4.28354 70.6172 6.56432 70.6172 9.92668C70.6172 13.3496 72.7338 15.6936 75.8573 15.7472C75.8573 15.7472 75.981 15.7505 75.9917 15.7505C77.5079 15.7856 78.5569 16.294 79.2259 17.1192C79.4534 16.9699 81.0985 15.553 81.0985 15.553C81.0985 15.553 80.5287 14.8709 79.2101 14.6935C80.4962 13.6945 81.2801 12.0372 81.2801 9.92668ZM75.997 13.7981C74.2746 13.7981 72.963 12.3724 72.963 10.0758C72.963 7.79499 74.1104 6.18757 75.8671 6.18757C77.7027 6.18757 78.9345 7.74496 78.9345 9.91073C78.9345 11.6665 78.2629 13.7981 75.997 13.7981Z" fill="#596876"/>
<path d="M27.0155 30.8134C31.3418 27.7478 34.1686 22.706 34.1686 16.9997C34.1686 7.65532 26.5932 0.08078 17.2497 0.08078C7.90362 0.08078 0.329102 7.65532 0.329102 16.9997C0.329102 26.3449 7.90362 33.9194 17.2497 33.9194H17.7308C22.2309 33.9958 25.3238 35.49 27.2991 37.9191C27.9627 37.482 32.7578 33.3532 32.7578 33.3532C32.7578 33.3532 31.0406 31.2795 27.0155 30.8134ZM16.8757 29.5896C21.166 28.7161 24.6689 25.6584 26.2104 21.6174C26.2017 21.6124 26.1903 21.6149 26.1788 21.6224C24.5047 24.8522 21.138 27.0601 17.2497 27.0601C11.6909 27.0601 7.18725 22.5556 7.18725 16.9994C7.18725 11.4431 11.6909 6.93951 17.2497 6.93951C21.138 6.93951 24.5065 9.14917 26.1806 12.379C26.1911 12.3889 26.2025 12.3914 26.2104 12.3815C24.6688 8.34052 21.1651 5.28364 16.8757 4.40925C17.0162 4.40427 17.1549 4.3993 17.2963 4.3993C24.1869 4.3993 29.7712 10.0407 29.7712 16.9989C29.7712 23.9589 24.1869 29.6012 17.2963 29.6012C17.1549 29.6012 17.0162 29.5946 16.8757 29.5896Z" fill="#893277"/>
</svg>
