<svg width="89" height="28" viewBox="0 0 89 28" fill="none" xmlns="http://www.w3.org/2000/svg">
<g clip-path="url(#clip0_9564_23003)">
<path d="M38.1818 16.0012C36.4917 16.0012 35.4001 17.2358 35.4001 19.0588C35.4001 20.8933 36.4796 22.093 38.0984 22.093C39.7764 22.093 40.8679 20.8819 40.8679 19.0588C40.8679 17.2008 39.8012 16.0012 38.1818 16.0012ZM38.1576 21.2413C37.164 21.2413 36.4192 20.3546 36.4192 19.0232C36.4192 17.7167 37.0788 16.8415 38.122 16.8415C39.1175 16.8415 39.8502 17.7402 39.8502 19.0716C39.8502 20.3908 39.2377 21.2413 38.1576 21.2413ZM73.363 13.9638C73.0151 13.9638 72.7403 14.2405 72.7403 14.5885C72.7403 14.9358 73.0151 15.2118 73.363 15.2118C73.7097 15.2118 73.9864 14.9358 73.9864 14.5885C73.9864 14.2405 73.7097 13.9638 73.363 13.9638ZM32.5359 21.1579C30.772 21.1579 29.6684 19.8864 29.6684 17.9323C29.6684 15.9293 30.9883 14.7424 32.6192 14.7424C33.747 14.7424 34.4543 15.2213 34.5504 15.2818L35.0179 14.5395C34.9218 14.4421 34.1426 13.7959 32.5601 13.7959C30.3535 13.7959 28.5654 15.3537 28.5654 18.0284C28.5654 20.6052 30.2568 22.1165 32.4036 22.1165C34.023 22.1165 35.0058 21.3736 35.0898 21.2782L34.6229 20.5346C34.5383 20.5824 33.6866 21.1579 32.5359 21.1579ZM77.7527 16.0012C76.0619 16.0012 74.9711 17.2358 74.9711 19.0588C74.9711 20.8933 76.0499 22.093 77.6693 22.093C79.348 22.093 80.4382 20.8819 80.4382 19.0588C80.4382 17.2008 79.3728 16.0012 77.7527 16.0012ZM77.7285 21.2413C76.733 21.2413 75.9907 20.3546 75.9907 19.0232C75.9907 17.7167 76.6497 16.8415 77.6935 16.8415C78.6877 16.8415 79.4205 17.7402 79.4205 19.0716C79.4205 20.3908 78.8079 21.2413 77.7285 21.2413ZM84.2293 16.0012C83.2453 16.0012 82.5144 16.5298 82.4171 16.5896V16.1577H81.5075V21.9607H82.5252V17.3694C82.5736 17.3324 83.3051 16.8644 84.0493 16.8644C84.408 16.8644 84.7076 16.9972 84.8641 17.1525C85.1631 17.4527 85.1764 17.9324 85.1764 18.6632V21.9607H86.1942V18.592C86.1942 17.6569 86.1707 17.0565 85.6191 16.505C85.4397 16.3256 85.0314 16.0012 84.2293 16.0012ZM47.8935 16.0012C47.0189 16.0012 46.3587 16.3727 45.8797 16.6729C45.6151 16.3129 45.1825 16.0012 44.4523 16.0012C43.5408 16.0012 42.7495 16.5406 42.6776 16.5896V16.1577H41.7655V21.9607H42.7851V17.3446C42.8692 17.2975 43.5637 16.8644 44.2723 16.8644C44.619 16.8644 44.8721 16.9731 45.0273 17.129C45.3276 17.4407 45.3161 17.968 45.3161 18.7472V21.9607H46.3237V18.7116C46.3237 18.2434 46.3237 17.6086 46.2263 17.3561C46.3587 17.2727 47.0539 16.8644 47.7612 16.8644C48.1091 16.8644 48.3737 16.961 48.5531 17.1652C48.8533 17.4884 48.8419 18.2078 48.8419 18.5678V21.9607H49.8609V18.592C49.8609 17.6569 49.8368 17.0565 49.284 16.505C49.1046 16.3256 48.6963 16.0012 47.8935 16.0012ZM60.3512 21.9607H61.3702V16.157H60.3512V21.9607ZM60.855 13.9638C60.5071 13.9638 60.2304 14.2405 60.2304 14.5885C60.2304 14.9358 60.5071 15.2118 60.855 15.2118C61.2017 15.2118 61.4777 14.9358 61.4777 14.5885C61.4777 14.2405 61.2017 13.9638 60.855 13.9638ZM57.1002 16.0012C56.2262 16.0012 55.566 16.3727 55.0857 16.6729C54.823 16.3129 54.3911 16.0012 53.6602 16.0012C52.7481 16.0012 51.9562 16.5406 51.8843 16.5896V16.1577H50.9728V21.9607H51.9924V17.3446C52.077 17.2975 52.7723 16.8644 53.479 16.8644C53.8275 16.8644 54.0801 16.9731 54.2353 17.129C54.5355 17.4407 54.5234 17.968 54.5234 18.7472V21.9607H55.531V18.7116C55.531 18.2434 55.531 17.6086 55.4336 17.3561C55.566 17.2727 56.2618 16.8644 56.9691 16.8644C57.3158 16.8644 57.5804 16.961 57.761 17.1652C58.0606 17.4884 58.0479 18.2078 58.0479 18.5678V21.9607H59.0676V18.592C59.0676 17.6569 59.0434 17.0565 58.4919 16.505C58.3125 16.3256 57.9049 16.0012 57.1002 16.0012ZM63.732 17.5844C63.732 17.1525 64.092 16.8046 64.7987 16.8046C65.5067 16.8046 66.1071 17.1525 66.1784 17.2009L66.5613 16.517C66.5014 16.4693 65.8546 16.0012 64.7275 16.0012C63.5405 16.0012 62.7002 16.6614 62.7002 17.6436C62.7002 19.4908 65.5658 19.2268 65.5658 20.4143C65.5658 20.9302 65.0754 21.2782 64.4508 21.2782C63.6124 21.2782 63.0247 20.9067 62.9038 20.8342L62.5203 21.5415C62.5927 21.6019 63.3599 22.1165 64.5106 22.1165C65.6511 22.1165 66.6344 21.4696 66.6344 20.3425C66.6344 18.4959 63.732 18.7001 63.732 17.5844ZM72.8598 21.9607H73.8788V16.157H72.8598V21.9607ZM68.6744 17.5844C68.6744 17.1525 69.0331 16.8046 69.7417 16.8046C70.4484 16.8046 71.0482 17.1525 71.1214 17.2009L71.5037 16.517C71.4445 16.4693 70.797 16.0012 69.6698 16.0012C68.4829 16.0012 67.6433 16.6614 67.6433 17.6436C67.6433 19.4908 70.5082 19.2268 70.5082 20.4143C70.5082 20.9302 70.0184 21.2782 69.3938 21.2782C68.5548 21.2782 67.9658 20.9067 67.8462 20.8342L67.4626 21.5415C67.5358 21.6019 68.3023 22.1165 69.4548 22.1165C70.5922 22.1165 71.5756 21.4696 71.5756 20.3425C71.5756 18.4959 68.6744 18.7001 68.6744 17.5844Z" fill="white"/>
<path d="M32.4997 11.9268C34.2877 11.9268 35.3188 11.0395 35.4142 10.9441L34.7152 9.81887C34.5854 9.89009 33.7432 10.4702 32.7001 10.4702C31.1963 10.4702 30.2371 9.39269 30.2371 7.74586C30.2371 6.06469 31.3503 5.05649 32.784 5.05649C33.9328 5.05649 34.5733 5.60162 34.6675 5.66078L35.3907 4.56035C35.3074 4.47705 34.49 3.64819 32.7134 3.64819C30.3554 3.64819 28.5547 5.22315 28.5547 7.85336C28.5547 10.3875 30.2728 11.9268 32.4997 11.9268ZM35.8722 9.99569C35.8722 11.098 36.5942 11.8677 37.755 11.8677C38.6786 11.8677 39.2943 11.3938 39.4012 11.3226V11.7379H40.7879V8.24327C40.7879 7.48506 40.8005 6.88144 40.3134 6.39545C39.7447 5.82743 38.9044 5.74472 38.407 5.74472C37.0681 5.74472 36.2742 6.30006 36.1922 6.3713L36.7239 7.39092C36.808 7.34314 37.5063 6.96412 38.2766 6.96412C38.7149 6.96412 38.975 7.07103 39.1048 7.20073C39.2709 7.36733 39.283 7.53278 39.283 7.88772H39.1169C38.407 7.88772 35.8722 7.9234 35.8722 9.99569ZM39.2829 10.3042C39.2122 10.3399 38.8205 10.6598 38.1691 10.6598C37.7792 10.6598 37.2697 10.4937 37.2697 9.89013C37.2697 9.15545 38.0031 8.97797 39.0348 8.97797H39.2829V10.3042Z" fill="white"/>
<path d="M43.1401 7.90823C43.3183 7.64807 43.8023 7.06733 44.7742 7.06733C44.8563 7.06733 45.0821 7.0908 45.1298 7.10288L45.4968 5.89366C45.4618 5.88285 45.2481 5.74094 44.8321 5.74094C43.6725 5.74094 42.9506 6.55704 42.9022 6.64036V5.90632H41.541V11.7341H43.1401V7.90823ZM48.1716 5.74111C46.5146 5.74111 45.3766 7.06735 45.3766 8.85602C45.3766 10.5499 46.3842 11.899 48.2784 11.899C49.5703 11.899 50.4583 11.2954 50.4926 11.2604L49.9723 10.2414C49.723 10.3597 49.1543 10.6561 48.4197 10.6561C47.2594 10.6561 46.9039 9.76815 46.928 9.34135H50.7661C50.7661 9.25931 50.7903 9.09264 50.7903 8.84458C50.7903 6.9484 49.8763 5.74111 48.1716 5.74111ZM46.9159 8.19194C47.0342 7.46934 47.4833 6.9255 48.2072 6.9255C49.1905 6.9255 49.3089 7.87327 49.3089 8.19194H46.9159ZM62.528 11.899C63.3562 11.899 64.08 11.3666 64.1742 11.2954V11.7343H65.5354V5.90649H63.9376V10.1708C63.8422 10.2415 63.3683 10.5378 62.8588 10.5378C62.4809 10.5378 62.3028 10.3959 62.2322 10.3247C62.0185 10.111 61.9829 9.73317 61.9829 8.97433V5.90649H60.3837V9.04558C60.3837 9.80315 60.3596 10.6797 61.0116 11.3316C61.3907 11.7101 61.9123 11.899 62.528 11.899ZM69.6999 11.3189V11.7343H71.0853V8.23965C71.0853 7.48144 71.0979 6.87778 70.6126 6.39181C70.0434 5.82379 69.2031 5.74111 68.7056 5.74111C67.3667 5.74111 66.5729 6.29642 66.4902 6.36765L67.0226 7.38731C67.1066 7.33952 67.8043 6.96047 68.574 6.96047C69.0135 6.96047 69.2737 7.06739 69.4028 7.19708C69.5694 7.36369 69.5815 7.52914 69.5815 7.88408H69.4154C68.7056 7.88408 66.1708 7.91976 66.1708 9.99205C66.1708 11.0944 66.8927 11.864 68.0536 11.864C68.9772 11.864 69.593 11.3902 69.6999 11.3189ZM67.5683 9.88648C67.5683 9.1518 68.3023 8.97433 69.3327 8.97433H69.5815V10.3006C69.5108 10.3363 69.119 10.6561 68.4677 10.6561C68.0771 10.6561 67.5683 10.4901 67.5683 9.88648ZM73.4667 3.15796H71.8676V11.7343H73.4667V3.15796ZM75.0995 5.18326C75.6071 5.18326 76.011 4.78125 76.011 4.27176C76.011 3.76289 75.6071 3.3596 75.0995 3.3596C74.59 3.3596 74.1861 3.76289 74.1861 4.27176C74.1861 4.78125 74.59 5.18326 75.0995 5.18326ZM75.9041 5.90649H74.305V11.7343H75.9041V5.90649ZM80.0393 10.5607C79.339 10.5607 79.3034 10.0283 79.3034 9.56651V7.23271H80.9629V5.90649H79.3034V4.28384H77.7062V5.90649H76.6986V7.23271H77.7062V9.50736C77.7062 10.3247 77.7062 10.8807 78.2036 11.3781C78.5935 11.7693 79.1857 11.899 79.7067 11.899C80.5711 11.899 81.1283 11.5562 81.1741 11.5206L80.7728 10.4195C80.6665 10.455 80.4051 10.5607 80.0393 10.5607ZM82.571 13.1903C82.1085 13.1903 81.7549 13.025 81.6716 12.9899L81.1977 14.126C81.2447 14.1501 81.8013 14.493 82.6543 14.493C83.6141 14.493 84.1096 14.1381 84.3596 13.8893C84.7731 13.4753 85.0345 12.9422 85.4849 11.7928L87.7945 5.90646H86.2189L84.7623 9.99205L83.1981 5.90646H81.5049L83.9449 11.7343C83.8501 11.9944 83.6485 12.6102 83.3648 12.8945C83.1746 13.0834 82.9265 13.1903 82.571 13.1903ZM59.6795 7.72948C59.6795 5.35369 58.158 3.64073 55.8159 3.64073C53.5216 3.64073 51.9536 5.29327 51.9536 7.72948C51.9536 10.2096 53.4872 11.9079 55.7504 11.9468C55.7504 11.9468 55.84 11.9492 55.8478 11.9492C56.9463 11.9746 57.7064 12.3429 58.1911 12.9408C58.3559 12.8327 59.5479 11.8061 59.5479 11.8061C59.5479 11.8061 59.1351 11.3118 58.1797 11.1833C59.1115 10.4595 59.6795 9.25864 59.6795 7.72948ZM55.8516 10.5345C54.6036 10.5345 53.6533 9.5015 53.6533 7.8375C53.6533 6.18496 54.4846 5.0203 55.7575 5.0203C57.0875 5.0203 57.98 6.14871 57.98 7.71793C57.98 8.99009 57.4933 10.5345 55.8516 10.5345Z" fill="white"/>
<path d="M20.3621 22.8631C23.4967 20.6419 25.5449 16.9889 25.5449 12.8544C25.5449 6.08387 20.0561 0.595703 13.2863 0.595703C6.51451 0.595703 1.02637 6.08387 1.02637 12.8544C1.02637 19.6255 6.51451 25.1136 13.2863 25.1136H13.6349C16.8954 25.169 19.1364 26.2516 20.5676 28.0116C21.0484 27.6949 24.5227 24.7034 24.5227 24.7034C24.5227 24.7034 23.2785 23.2009 20.3621 22.8631ZM13.0153 21.9765C16.1239 21.3435 18.6618 19.1281 19.7788 16.2002C19.7725 16.1965 19.7642 16.1983 19.7559 16.2038C18.5429 18.5439 16.1035 20.1437 13.2863 20.1437C9.25859 20.1437 5.99546 16.8799 5.99546 12.8541C5.99546 8.82835 9.25859 5.56523 13.2863 5.56523C16.1035 5.56523 18.5442 7.16624 19.7572 9.5064C19.7647 9.51362 19.773 9.51543 19.7788 9.50822C18.6618 6.58033 16.1232 4.36546 13.0153 3.73191C13.1171 3.72831 13.2176 3.7247 13.32 3.7247C18.3126 3.7247 22.3588 7.8122 22.3588 12.8538C22.3588 17.8967 18.3126 21.9848 13.32 21.9848C13.2176 21.9848 13.1171 21.9801 13.0153 21.9765Z" fill="#893277"/>
</g>
<defs>
<clipPath id="clip0_9564_23003">
<rect width="87.2451" height="27.893" fill="white" transform="translate(0.857422 0.0571289)"/>
</clipPath>
</defs>
</svg>
