<svg width="40" height="26" viewBox="0 0 40 26" fill="none" xmlns="http://www.w3.org/2000/svg">
<g clip-path="url(#clip0_9564_23011)">
<path d="M4.31844 14.9921V16.985C4.31844 17.4852 4.35934 17.5338 4.97961 17.5823V17.736H2.87477V17.5823C3.5264 17.5338 3.55639 17.4771 3.55639 16.985V13.1596C3.55639 12.6675 3.51549 12.6108 2.87477 12.5623V12.4099H4.97961V12.565C4.35116 12.6135 4.31844 12.6621 4.31844 13.1623V14.8006H6.98083V13.1596C6.98083 12.6755 6.93994 12.6108 6.29922 12.5623V12.4099H8.41223V12.565C7.79196 12.6135 7.74288 12.6702 7.74288 13.1623V16.9877C7.74288 17.4879 7.7756 17.5365 8.41223 17.585V17.7387H6.29922V17.585C6.93585 17.5365 6.98083 17.4637 6.98083 16.9877V14.9921H4.31844ZM12.2729 15.8793C12.2729 17.1063 11.7276 17.8318 10.4693 17.8318C9.24244 17.8318 8.67533 17.1063 8.67533 15.8793C8.67533 14.6523 9.23698 13.9134 10.4775 13.9134C11.7181 13.9134 12.2729 14.6455 12.2729 15.8793ZM10.4693 17.6794C11.1796 17.6794 11.4972 16.9688 11.4972 15.8793C11.4972 14.7898 11.1796 14.0806 10.4693 14.0806C9.78773 14.0806 9.45783 14.7979 9.45783 15.8874C9.45783 16.9769 9.78364 17.6794 10.4693 17.6794ZM13.1699 14.6927C13.1699 14.3705 13.1304 14.3057 12.9177 14.2734L12.6723 14.2491V14.121L13.7629 13.9268L13.8856 14.508C14.3505 14.1925 14.6695 13.9188 15.2407 13.9188C15.4531 13.9042 15.6644 13.9596 15.8415 14.0765C16.0186 14.1934 16.1515 14.3651 16.2195 14.5646C16.6761 14.241 17.051 13.9188 17.6304 13.9188C18.3325 13.9188 18.691 14.3624 18.691 15.1323V17.0767C18.691 17.496 18.7483 17.5446 19.2213 17.585V17.7387H17.4123V17.585C17.9426 17.5527 17.9835 17.5041 17.9835 17.0767V15.1539C17.9835 14.5323 17.6986 14.2572 17.201 14.2572C17.0513 14.2619 16.9043 14.2974 16.7693 14.3614C16.6344 14.4255 16.5144 14.5168 16.4171 14.6294C16.3285 14.7413 16.2808 14.7898 16.2808 15.1458V17.074C16.2808 17.5014 16.3462 17.5419 16.852 17.5823V17.736H15.0144V17.5823C15.5447 17.55 15.5856 17.5014 15.5856 17.074V15.1539C15.5856 14.5161 15.3129 14.2572 14.8181 14.2572C14.4186 14.2572 14.0683 14.4756 13.9538 14.7332C13.889 14.8608 13.8607 15.0034 13.872 15.1458V17.074C13.872 17.4933 13.9129 17.5419 14.4432 17.5823V17.736H12.6396V17.5823C13.1849 17.55 13.1699 17.4771 13.1699 17.074V14.6927ZM20.3173 15.7337C20.301 16.5333 20.5055 17.5176 21.4516 17.5176C22.2259 17.5176 22.4549 17.0173 22.6021 16.6546L22.7234 16.7113C22.5449 17.2992 22.1291 17.8318 21.2798 17.8318C19.9915 17.8318 19.5335 17.0983 19.5335 15.9036C19.5335 14.7736 20.0556 13.9188 21.2716 13.9188C22.6757 13.9188 22.7643 14.9975 22.7643 15.4519C22.7643 15.5867 22.7234 15.7337 22.4467 15.7337H20.3173ZM21.7201 15.557C21.9928 15.557 22.0227 15.3871 22.0227 15.162C22.0227 14.8545 21.9491 14.0833 21.2225 14.0833C20.4237 14.0833 20.3173 15.2361 20.3173 15.5665L21.7201 15.557ZM26.5514 16.7274C26.4754 17.049 26.2893 17.3346 26.0247 17.5359C25.7601 17.7371 25.4332 17.8417 25.0996 17.8318C23.949 17.8318 23.3614 17.1711 23.3614 15.9036C23.3614 14.895 23.8018 13.9188 25.1895 13.9188C26.0375 13.9188 26.4778 14.3138 26.4778 14.6617C26.4805 14.7136 26.4722 14.7655 26.4536 14.8141C26.435 14.8626 26.4064 14.9069 26.3696 14.944C26.3329 14.9811 26.2888 15.0103 26.24 15.0297C26.1913 15.0491 26.139 15.0584 26.0865 15.0568C25.9325 15.0568 25.8752 15.0083 25.8425 14.8788C25.7526 14.4595 25.6135 14.0806 25.0996 14.0806C24.5856 14.0806 24.1453 14.6199 24.1453 15.7741C24.1453 16.5171 24.373 17.5095 25.2632 17.5095C25.8084 17.5095 26.2174 17.2992 26.4464 16.6789L26.5514 16.7274ZM30.0304 16.8394C30.0304 17.3153 30.119 17.461 30.258 17.4933C30.3611 17.5234 30.47 17.529 30.5757 17.5095L30.5838 17.6066C30.3723 17.7557 30.1184 17.8345 29.8586 17.8318C29.5478 17.8318 29.4265 17.6632 29.3528 17.3153C29.1075 17.4771 28.6712 17.8318 28.1941 17.8318C27.4511 17.8318 27.1171 17.3153 27.1171 16.7531C27.1171 16.3903 27.2807 16.0924 27.8356 15.9225C28.4381 15.7364 29.1647 15.5436 29.361 15.3494V14.9449C29.361 14.3475 29.0884 14.0738 28.6794 14.0738C28.2704 14.0738 27.9855 14.3435 27.9119 14.9449C27.8956 15.0581 27.856 15.1067 27.7006 15.1067C27.5452 15.1067 27.2603 15.0096 27.2603 14.7669C27.2603 14.3799 27.8724 13.9282 28.7598 13.9282C29.9268 13.9282 30.0331 14.5093 30.0331 14.9611L30.0304 16.8394ZM29.361 15.5314C29.1893 15.6447 28.7653 15.7809 28.4545 15.9022C28.0387 16.0479 27.8765 16.273 27.8765 16.6371C27.8765 17.0807 28.1491 17.5001 28.6262 17.5001C28.9125 17.5001 29.361 17.3652 29.361 16.7652V15.5314ZM32.2565 17.1131C32.2565 17.4839 32.2811 17.5324 32.9163 17.581V17.7347H31.0324V17.581C31.5381 17.5486 31.5545 17.492 31.5545 17.1131V14.6455C31.5545 14.3759 31.4809 14.3057 31.2927 14.2734L31.0651 14.2491V14.121L32.1666 13.9268L32.2565 14.5646C32.7541 14.121 32.9736 13.9188 33.2435 13.9188C33.2962 13.9142 33.3492 13.9207 33.3992 13.9377C33.4492 13.9548 33.4949 13.9821 33.5335 14.0179C33.5721 14.0536 33.6027 14.097 33.6232 14.1452C33.6437 14.1934 33.6536 14.2454 33.6525 14.2977C33.6525 14.5404 33.4807 14.7413 33.2858 14.7413C33.2199 14.7419 33.1559 14.7189 33.1058 14.6765C32.9695 14.5161 32.8932 14.4514 32.6969 14.4514C32.5006 14.4514 32.2484 14.6374 32.2484 15.2173L32.2565 17.1131ZM34.7567 15.7323C34.7417 16.5319 34.9448 17.5163 35.8909 17.5163C36.6666 17.5163 36.8943 17.016 37.0415 16.6533L37.1642 16.7099C36.9842 17.2978 36.5684 17.8304 35.7205 17.8304C34.4309 17.8304 33.9742 17.0969 33.9742 15.9022C33.9742 14.7723 34.4963 13.9174 35.7123 13.9174C37.1151 13.9174 37.2051 14.9961 37.2051 15.4505C37.2051 15.5854 37.1642 15.7323 36.8861 15.7323H34.7567ZM36.1608 15.5557C36.4335 15.5557 36.4621 15.3858 36.4621 15.1606C36.4621 14.8532 36.3885 14.0819 35.6633 14.0819C34.863 14.0819 34.7567 15.2348 34.7567 15.5651L36.1608 15.5557ZM4.0308 24.393V24.2312L4.33207 24.1989C4.57745 24.1746 4.61835 24.064 4.53656 23.8442C4.40023 23.4397 4.13713 22.69 3.97354 22.2383H2.20952C2.05547 22.7385 1.9246 23.1174 1.80055 23.5786C1.67649 24.0397 1.73511 24.1746 1.99685 24.1989L2.3881 24.2393V24.393H0.709961V24.2393C1.20754 24.215 1.29751 24.126 1.55789 23.4411C2.06365 22.0927 2.61031 20.4139 3.07653 19.0345H3.60683C4.05533 20.2697 4.89509 22.6334 5.31087 23.7539C5.4472 24.1409 5.53172 24.1813 6.05383 24.2299V24.3917L4.0308 24.393ZM3.06835 19.6319H3.04382C2.82297 20.3061 2.49852 21.3106 2.27632 22.0441H3.9122C3.70907 21.4643 3.32055 20.2777 3.06835 19.6319ZM8.72986 21.7704C8.56627 21.1245 8.28136 20.7375 7.74288 20.7375C7.65475 20.7339 7.56685 20.7487 7.48488 20.781C7.40291 20.8132 7.32872 20.8621 7.26713 20.9246C7.20554 20.987 7.15793 21.0616 7.12739 21.1434C7.09685 21.2253 7.08408 21.3126 7.08989 21.3996C7.08989 21.8675 7.4566 22.0199 7.90783 22.1736C8.68351 22.4433 9.10748 22.6415 9.10748 23.3116C9.10748 23.9818 8.5281 24.4901 7.60792 24.4901C7.22974 24.4905 6.85656 24.4046 6.51733 24.2393L6.43554 23.1336H6.58277C6.73681 23.7795 7.08035 24.3364 7.69244 24.3364C8.10141 24.3364 8.46676 24.126 8.46676 23.6501C8.46676 23.2145 8.12459 23.0055 7.64882 22.841C7.00401 22.6307 6.49007 22.3731 6.49007 21.7434C6.49007 21.0167 7.02855 20.5811 7.84376 20.5811C8.194 20.5777 8.54087 20.649 8.86073 20.7901V21.7664L8.72986 21.7704ZM12.0016 21.7704C11.838 21.1245 11.5518 20.7375 11.0133 20.7375C10.9253 20.7341 10.8375 20.7491 10.7557 20.7814C10.6739 20.8137 10.5999 20.8626 10.5384 20.9251C10.477 20.9875 10.4295 21.062 10.399 21.1437C10.3686 21.2255 10.3559 21.3127 10.3617 21.3996C10.3617 21.8675 10.7284 22.0199 11.1796 22.1736C11.9553 22.4433 12.3792 22.6415 12.3792 23.3116C12.3792 23.9818 11.7999 24.4901 10.8797 24.4901C10.5015 24.4905 10.1283 24.4046 9.78909 24.2393L9.7073 23.1336H9.85453C10.0086 23.7795 10.3521 24.3364 10.9628 24.3364C11.3718 24.3364 11.7385 24.126 11.7385 23.6501C11.7385 23.2145 11.3963 23.0055 10.9206 22.841C10.2758 22.6307 9.76183 22.3731 9.76183 21.7434C9.76183 21.0167 10.3071 20.5811 11.1155 20.5811C11.4667 20.5771 11.8146 20.6484 12.1352 20.7901V21.7664L12.0016 21.7704ZM16.5698 22.543C16.5698 23.7701 16.0245 24.4968 14.7663 24.4968C13.5393 24.4968 12.9722 23.7701 12.9722 22.543C12.9722 21.316 13.5353 20.5825 14.7744 20.5825C16.0136 20.5825 16.5698 21.3025 16.5698 22.543ZM14.7663 24.3364C15.4765 24.3364 15.7941 23.6258 15.7941 22.5363C15.7941 21.4468 15.4765 20.7375 14.7663 20.7375C14.0846 20.7375 13.7547 21.4562 13.7547 22.5444C13.7547 23.6325 14.0819 24.3364 14.7663 24.3364ZM20.3882 23.3844C20.3118 23.7061 20.1254 23.9917 19.8606 24.1932C19.5959 24.3946 19.2689 24.4995 18.935 24.4901C17.7845 24.4901 17.1983 23.828 17.1983 22.5606C17.1983 21.552 17.6386 20.5757 19.025 20.5757C19.8743 20.5757 20.3146 20.9708 20.3146 21.3187C20.3171 21.3707 20.3087 21.4226 20.2899 21.4711C20.2711 21.5197 20.2424 21.564 20.2055 21.6011C20.1687 21.6381 20.1245 21.6673 20.0757 21.6867C20.0269 21.7061 19.9746 21.7153 19.922 21.7138C19.768 21.7138 19.7107 21.6652 19.678 21.5358C19.588 21.1164 19.449 20.7375 18.935 20.7375C18.4211 20.7375 17.9808 21.2702 17.9808 22.4325C17.9808 23.1741 18.2098 24.1665 19.0986 24.1665C19.6439 24.1665 20.0529 23.9575 20.2819 23.3359L20.3882 23.3844ZM21.2948 21.3187C21.2948 21.0194 21.2457 20.9708 21.0085 20.9304L20.8054 20.9074V20.7726L21.9723 20.5784L21.9968 20.5946V23.766C21.9968 24.1854 22.0364 24.1935 22.5271 24.2339V24.3876H20.7672V24.2339C21.273 24.1854 21.2893 24.1854 21.2893 23.766L21.2948 21.3187ZM22.0282 19.5429C22.0282 19.6455 21.987 19.7439 21.9136 19.8165C21.8402 19.8891 21.7407 19.9299 21.6369 19.9299C21.5332 19.9299 21.4337 19.8891 21.3603 19.8165C21.2869 19.7439 21.2457 19.6455 21.2457 19.5429C21.2439 19.4909 21.2531 19.4391 21.2727 19.3908C21.2922 19.3425 21.3217 19.2988 21.3593 19.2624C21.3968 19.226 21.4417 19.1977 21.4909 19.1794C21.5401 19.1611 21.5926 19.1531 21.6451 19.1559C21.6962 19.1547 21.747 19.164 21.7943 19.1832C21.8416 19.2024 21.8843 19.2311 21.9198 19.2674C21.9553 19.3038 21.9827 19.3471 22.0005 19.3945C22.0182 19.4419 22.0258 19.4924 22.0227 19.5429H22.0282ZM25.8194 23.4977C25.8194 23.9737 25.9093 24.1179 26.0484 24.1503C26.1515 24.1804 26.2603 24.1859 26.366 24.1665L26.3742 24.2636C26.1628 24.4132 25.9088 24.4925 25.6489 24.4901C25.3381 24.4901 25.2168 24.3202 25.1432 23.9737C24.8978 24.1341 24.4616 24.4901 23.9844 24.4901C23.2415 24.4901 22.9075 23.9737 22.9075 23.4114C22.9075 23.0473 23.0711 22.7493 23.6259 22.5794C24.2285 22.3947 24.9551 22.2005 25.1514 22.0064V21.5992C25.1514 21.0018 24.8787 20.7281 24.4697 20.7281C24.0608 20.7281 23.7759 20.9978 23.7022 21.5992C23.6859 21.7124 23.645 21.761 23.4909 21.761C23.3369 21.761 23.0506 21.6639 23.0506 21.4225C23.0506 21.0342 23.6614 20.5825 24.5502 20.5825C25.7171 20.5825 25.8221 21.1636 25.8221 21.6153L25.8194 23.4977ZM25.1514 22.1898C24.9796 22.303 24.5556 22.4406 24.2448 22.5606C23.8358 22.7062 23.6654 22.9327 23.6654 23.2954C23.6654 23.7391 23.9381 24.1584 24.4166 24.1584C24.7015 24.1584 25.1514 24.0236 25.1514 23.4249V22.1898ZM27.6843 20.9155V23.4006C27.6843 23.9737 27.9283 24.1584 28.19 24.1584C28.3466 24.1684 28.5033 24.1406 28.6467 24.0775L28.6876 24.1746C28.4257 24.3633 28.1141 24.4729 27.7906 24.4901C27.5179 24.4901 26.9822 24.4092 26.9822 23.6339V20.9155H26.4751V20.6728H27.0054L27.5193 19.7209H27.6747V20.6728H28.5881V20.9155H27.6843ZM29.635 21.32C29.635 21.0207 29.586 20.9722 29.3488 20.9317L29.1443 20.9088V20.774L30.3112 20.5798L30.3357 20.596V23.7674C30.3357 24.1867 30.3766 24.1948 30.866 24.2353V24.389H29.1075V24.2353C29.6132 24.1867 29.6296 24.1867 29.6296 23.7674L29.635 21.32ZM30.3685 19.5442C30.3712 19.5958 30.363 19.6473 30.3443 19.6955C30.3256 19.7437 30.2969 19.7874 30.26 19.8239C30.2231 19.8604 30.1788 19.8888 30.1301 19.9073C30.0814 19.9258 30.0293 19.9339 29.9772 19.9312C29.9249 19.9348 29.8724 19.9273 29.8233 19.9091C29.7742 19.8909 29.7296 19.8625 29.6925 19.8258C29.6554 19.7892 29.6267 19.745 29.6083 19.6965C29.59 19.6479 29.5823 19.596 29.586 19.5442C29.5842 19.4922 29.5934 19.4405 29.6129 19.3922C29.6325 19.3439 29.662 19.3001 29.6995 19.2637C29.7371 19.2273 29.7819 19.1991 29.8311 19.1807C29.8803 19.1624 29.9329 19.1544 29.9854 19.1572C30.0363 19.1562 30.0869 19.1656 30.134 19.1848C30.181 19.204 30.2236 19.2326 30.2591 19.2688C30.2945 19.3049 30.322 19.348 30.3399 19.3951C30.3578 19.4423 30.3656 19.4926 30.363 19.5429L30.3685 19.5442ZM34.7594 22.543C34.7594 23.7701 34.2141 24.4968 32.9559 24.4968C31.729 24.4968 31.1605 23.7701 31.1605 22.543C31.1605 21.316 31.7235 20.5825 32.9641 20.5825C34.2046 20.5825 34.7594 21.3025 34.7594 22.543ZM32.9559 24.3364C33.6661 24.3364 33.9838 23.6258 33.9838 22.5363C33.9838 21.4468 33.6661 20.7375 32.9559 20.7375C32.2743 20.7375 31.9444 21.4562 31.9444 22.5444C31.9444 23.6325 32.2702 24.3364 32.9559 24.3364ZM38.8178 23.731C38.8178 24.1665 38.8423 24.1989 39.3481 24.2393V24.393H37.5759V24.2393C38.0898 24.2069 38.1212 24.1746 38.1212 23.731V21.8109C38.1212 21.1731 37.8185 20.9155 37.3291 20.9155C36.9297 20.9155 36.563 21.1326 36.4403 21.3834C36.3766 21.5085 36.3483 21.6483 36.3585 21.7879V23.7242C36.3585 24.1678 36.3994 24.1921 36.897 24.2326V24.3863H35.1248V24.2326C35.6224 24.2002 35.6551 24.1597 35.6551 23.7242V21.3511C35.6551 21.0113 35.6387 20.9627 35.4029 20.9304L35.1575 20.9074V20.7726L36.2481 20.5784L36.3544 21.1677C36.8356 20.8697 37.1874 20.5703 37.7408 20.5703C38.4511 20.5703 38.8314 21.014 38.8314 21.7839L38.8178 23.731Z" fill="white"/>
<path d="M21.5816 8.96125C21.8333 9.21021 22.1322 9.4077 22.461 9.54244C22.7899 9.67718 23.1424 9.74653 23.4983 9.74653C23.8543 9.74653 24.2068 9.67718 24.5357 9.54244C24.8645 9.4077 25.1633 9.21021 25.415 8.96125C25.6667 8.71229 25.8664 8.41672 26.0026 8.09144C26.1389 7.76615 26.209 7.41751 26.209 7.06542C26.209 6.71333 26.1389 6.36469 26.0026 6.0394C25.8664 5.71412 25.6667 5.41855 25.415 5.16959L23.865 3.63647L20.0303 7.42814L21.5816 8.96125Z" fill="#FF7272"/>
<path d="M14.6468 5.17094C14.152 5.67667 13.878 6.35449 13.8839 7.05822C13.8898 7.76195 14.1751 8.43519 14.6783 8.93273C15.1815 9.43027 15.8623 9.71224 16.5737 9.71783C17.2852 9.72342 17.9704 9.45217 18.4815 8.9626L20.0315 7.42948L16.1981 3.63647L14.6468 5.17094Z" fill="#FF7A00"/>
<path d="M19.4827 0.380941C19.628 0.239304 19.8239 0.159912 20.028 0.159912C20.232 0.159912 20.4279 0.239304 20.5732 0.380941L23.86 3.6319L20.0307 7.42491L16.1973 3.6319L19.4827 0.380941Z" fill="#FF3012"/>
</g>
<defs>
<clipPath id="clip0_9564_23011">
<rect width="39" height="26" fill="white" transform="translate(0.388672 0.00366211)"/>
</clipPath>
</defs>
</svg>
