<svg width="66" height="10" viewBox="0 0 66 10" fill="none" xmlns="http://www.w3.org/2000/svg">
<path d="M0.386971 7.00366V0.585377H1.46114V7.00366H0.386971ZM2.79627 7.00366V0.585377H5.44826C5.51067 0.585377 5.59089 0.588348 5.68895 0.594291C5.78701 0.597263 5.87764 0.606177 5.96084 0.621034C6.33226 0.677491 6.63832 0.800805 6.87901 0.990977C7.12266 1.18115 7.30244 1.42183 7.41832 1.71303C7.53718 2.00126 7.59661 2.32218 7.59661 2.67578C7.59661 3.19875 7.46438 3.64892 7.19992 4.02629C6.93546 4.40069 6.52986 4.63246 5.98312 4.72161L5.52404 4.76172H3.87044V7.00366H2.79627ZM6.48232 7.00366L5.21649 4.39178L6.30849 4.15109L7.69912 7.00366H6.48232ZM3.87044 3.75886H5.40369C5.46312 3.75886 5.52998 3.75589 5.60427 3.74995C5.67855 3.74401 5.74689 3.73212 5.80929 3.71429C5.98758 3.66972 6.12724 3.59098 6.22826 3.47806C6.33227 3.36515 6.40507 3.23738 6.44667 3.09475C6.49124 2.95212 6.51352 2.81246 6.51352 2.67578C6.51352 2.53909 6.49124 2.39943 6.44667 2.25681C6.40507 2.11121 6.33227 1.98195 6.22826 1.86903C6.12724 1.75612 5.98758 1.67738 5.80929 1.63281C5.74689 1.61498 5.67855 1.60458 5.60427 1.60161C5.52998 1.59566 5.46312 1.59269 5.40369 1.59269H3.87044V3.75886ZM10.5174 7.124C10.1965 7.124 9.89343 7.0616 9.60817 6.9368C9.32291 6.812 9.0748 6.6352 8.86383 6.40641C8.65583 6.17761 8.50577 5.90721 8.41366 5.59521L9.45217 5.31441C9.52646 5.56995 9.66166 5.76755 9.85777 5.90721C10.0569 6.04389 10.2753 6.11075 10.513 6.10778C10.7239 6.10778 10.9126 6.05875 11.079 5.96069C11.2454 5.86263 11.3762 5.73041 11.4713 5.56401C11.5663 5.39463 11.6139 5.20595 11.6139 4.99795C11.6139 4.68001 11.5114 4.41406 11.3063 4.20012C11.1013 3.98618 10.8369 3.87921 10.513 3.87921C10.4149 3.87921 10.3183 3.89258 10.2233 3.91932C10.1311 3.94606 10.042 3.98321 9.95583 4.03075L9.46554 3.18389L11.6228 1.33863L11.7164 1.59715H8.66326V0.585377H12.5989V1.60161L10.8651 3.26858L10.8562 2.95212C11.2454 2.97886 11.5767 3.08732 11.8501 3.27749C12.1265 3.46766 12.3374 3.71281 12.483 4.01292C12.6316 4.31303 12.7059 4.64138 12.7059 4.99795C12.7059 5.40206 12.6063 5.76458 12.4073 6.08549C12.2111 6.4064 11.9467 6.66046 11.6139 6.84766C11.2841 7.03189 10.9186 7.124 10.5174 7.124ZM15.764 7.13738C15.4371 7.13738 15.1325 7.07052 14.8503 6.9368C14.568 6.80012 14.3243 6.61292 14.1193 6.37521C13.9172 6.13749 13.7716 5.86115 13.6825 5.54618L14.7165 5.26983C14.7581 5.44218 14.8339 5.59075 14.9439 5.71555C15.0568 5.84035 15.1875 5.93692 15.3361 6.00526C15.4876 6.07361 15.6436 6.10778 15.8041 6.10778C16.0121 6.10778 16.2023 6.05726 16.3746 5.95623C16.5469 5.85521 16.6836 5.72001 16.7847 5.55063C16.8857 5.37829 16.9362 5.18812 16.9362 4.98012C16.9362 4.77212 16.8842 4.58343 16.7802 4.41406C16.6792 4.24172 16.5425 4.10652 16.3701 4.00846C16.1978 3.90743 16.0091 3.85692 15.8041 3.85692C15.5575 3.85692 15.3524 3.90149 15.189 3.99063C15.0285 4.07978 14.9052 4.17486 14.8191 4.27589L13.9009 3.98172L14.097 0.585377H17.5825V1.59269H14.672L15.0731 1.21383L14.9305 3.57612L14.7344 3.33543C14.9008 3.18389 15.0939 3.07098 15.3138 2.99669C15.5337 2.92241 15.7461 2.88526 15.9512 2.88526C16.3523 2.88526 16.7074 2.97738 17.0164 3.16161C17.3284 3.34286 17.5721 3.59098 17.7474 3.90595C17.9257 4.22092 18.0148 4.57898 18.0148 4.98012C18.0148 5.38126 17.9108 5.74526 17.7028 6.07212C17.4948 6.39601 17.22 6.65452 16.8783 6.84766C16.5395 7.0408 16.1681 7.13738 15.764 7.13738ZM18.9948 4.61463V3.77223H21.6691V4.61463H18.9948ZM24.9177 7.13738C24.4215 7.13738 23.998 7.02743 23.6474 6.80755C23.2968 6.58469 23.0279 6.28161 22.8407 5.89829C22.6564 5.51498 22.5628 5.08115 22.5599 4.59681C22.5628 4.10355 22.6594 3.66675 22.8496 3.28641C23.0427 2.90309 23.3161 2.60298 23.6697 2.38606C24.0233 2.16618 24.4437 2.05623 24.9311 2.05623C25.4778 2.05623 25.9399 2.19441 26.3172 2.47075C26.6976 2.74412 26.9457 3.11852 27.0616 3.59395L25.9919 3.88366C25.9087 3.62515 25.7705 3.42458 25.5773 3.28195C25.3842 3.13635 25.1643 3.06355 24.9177 3.06355C24.6384 3.06355 24.4081 3.13041 24.2268 3.26412C24.0456 3.39486 23.9119 3.57612 23.8257 3.80789C23.7395 4.03966 23.6964 4.30263 23.6964 4.59681C23.6964 5.05441 23.7989 5.42435 24.004 5.70663C24.209 5.98892 24.5136 6.13006 24.9177 6.13006C25.2029 6.13006 25.4273 6.06469 25.5907 5.93395C25.7571 5.80321 25.8819 5.61452 25.9651 5.36789L27.0616 5.61303C26.913 6.10332 26.653 6.48069 26.2816 6.74515C25.9101 7.00663 25.4555 7.13738 24.9177 7.13738ZM29.9502 7.13738C29.4689 7.13738 29.0484 7.02892 28.6889 6.812C28.3293 6.59509 28.05 6.29646 27.8509 5.91612C27.6548 5.53281 27.5567 5.09303 27.5567 4.59681C27.5567 4.09166 27.6578 3.64892 27.8598 3.26858C28.0619 2.88823 28.3427 2.59109 28.7022 2.37715C29.0618 2.16321 29.4778 2.05623 29.9502 2.05623C30.4346 2.05623 30.8565 2.16469 31.2161 2.38161C31.5756 2.59852 31.8549 2.89863 32.054 3.28195C32.2531 3.66229 32.3526 4.10058 32.3526 4.59681C32.3526 5.09601 32.2516 5.53726 32.0495 5.92058C31.8505 6.30092 31.5711 6.59955 31.2116 6.81646C30.8521 7.0304 30.4316 7.13738 29.9502 7.13738ZM29.9502 6.13006C30.3781 6.13006 30.6961 5.98743 30.9041 5.70218C31.1121 5.41692 31.2161 5.04846 31.2161 4.59681C31.2161 4.13029 31.1106 3.75886 30.8996 3.48252C30.6886 3.20321 30.3722 3.06355 29.9502 3.06355C29.662 3.06355 29.4243 3.12892 29.2371 3.25966C29.0529 3.38743 28.9162 3.56721 28.827 3.79898C28.7379 4.02778 28.6933 4.29372 28.6933 4.59681C28.6933 5.06332 28.7988 5.43623 29.0098 5.71555C29.2237 5.99189 29.5372 6.13006 29.9502 6.13006ZM39.1156 7.00366V4.07978C39.1156 3.74995 39.0339 3.49292 38.8704 3.30869C38.707 3.12149 38.4856 3.02789 38.2063 3.02789C38.034 3.02789 37.8795 3.06801 37.7428 3.14823C37.6061 3.22549 37.4976 3.34138 37.4174 3.49589C37.3372 3.64743 37.2971 3.82869 37.2971 4.03966L36.8201 3.75886C36.8172 3.42606 36.8915 3.13338 37.043 2.88081C37.1975 2.62526 37.4055 2.42618 37.667 2.28355C37.9285 2.14092 38.2197 2.06961 38.5406 2.06961C39.0725 2.06961 39.4796 2.23006 39.7619 2.55098C40.0471 2.86892 40.1897 3.28789 40.1897 3.80789V7.00366H39.1156ZM33.3257 7.00366V2.18995H34.2751V3.68309H34.4088V7.00366H33.3257ZM36.2273 7.00366V4.09315C36.2273 3.75738 36.1456 3.49589 35.9822 3.30869C35.8188 3.12149 35.5959 3.02789 35.3136 3.02789C35.0403 3.02789 34.8204 3.12149 34.654 3.30869C34.4905 3.49589 34.4088 3.73955 34.4088 4.03966L33.9275 3.71875C33.9275 3.40675 34.0047 3.12595 34.1592 2.87635C34.3137 2.62675 34.5217 2.43063 34.7832 2.28801C35.0477 2.14241 35.3433 2.06961 35.6702 2.06961C36.0297 2.06961 36.3299 2.14686 36.5705 2.30138C36.8142 2.45292 36.9955 2.66092 37.1143 2.92538C37.2361 3.18686 37.2971 3.48252 37.2971 3.81235V7.00366H36.2273ZM43.6655 7.13738C43.1961 7.13738 42.8023 7.02595 42.4844 6.80309C42.1665 6.58023 41.9273 6.27715 41.7668 5.89383C41.6063 5.50755 41.5261 5.07521 41.5261 4.59681C41.5261 4.11246 41.6063 3.67863 41.7668 3.29532C41.9273 2.91201 42.162 2.61041 42.471 2.39052C42.783 2.16766 43.1678 2.05623 43.6254 2.05623C44.0801 2.05623 44.4738 2.16766 44.8066 2.39052C45.1423 2.61041 45.4023 2.91201 45.5866 3.29532C45.7708 3.67566 45.8629 4.10949 45.8629 4.59681C45.8629 5.07818 45.7723 5.51052 45.591 5.89383C45.4098 6.27715 45.1542 6.58023 44.8244 6.80309C44.4946 7.02595 44.1083 7.13738 43.6655 7.13738ZM41.3434 9.14309V2.18995H42.2927V5.56846H42.4265V9.14309H41.3434ZM43.5006 6.17463C43.7799 6.17463 44.0102 6.10481 44.1915 5.96515C44.3727 5.82549 44.5065 5.63681 44.5926 5.39909C44.6818 5.15841 44.7263 4.89098 44.7263 4.59681C44.7263 4.30561 44.6818 4.04115 44.5926 3.80343C44.5035 3.56275 44.3653 3.37258 44.1781 3.23292C43.9909 3.09029 43.7532 3.01898 43.465 3.01898C43.1916 3.01898 42.9687 3.08583 42.7964 3.21955C42.6241 3.35029 42.4963 3.53452 42.4131 3.77223C42.3329 4.00698 42.2927 4.28183 42.2927 4.59681C42.2927 4.90881 42.3329 5.18366 42.4131 5.42138C42.4963 5.65909 42.6255 5.84481 42.8009 5.97852C42.9791 6.10926 43.2124 6.17463 43.5006 6.17463ZM46.9345 7.00366V0.451663H48.0087V7.00366H46.9345ZM49.4329 1.45898V0.473948H50.5071V1.45898H49.4329ZM49.4329 7.00366V2.18995H50.5071V7.00366H49.4329ZM53.1883 7.13738C52.8406 7.13738 52.5465 7.072 52.3058 6.94126C52.0651 6.80755 51.8824 6.63075 51.7576 6.41086C51.6357 6.19098 51.5748 5.94881 51.5748 5.68435C51.5748 5.45258 51.6134 5.24458 51.6907 5.06035C51.768 4.87315 51.8868 4.71269 52.0473 4.57898C52.2077 4.44229 52.4157 4.33086 52.6713 4.24469C52.8644 4.18229 53.0902 4.12583 53.3488 4.07532C53.6102 4.02481 53.8925 3.97875 54.1956 3.93715C54.5017 3.89258 54.8211 3.84503 55.1539 3.79452L54.7706 4.01292C54.7736 3.68012 54.6993 3.43498 54.5477 3.27749C54.3962 3.12001 54.1406 3.04126 53.7811 3.04126C53.5642 3.04126 53.3547 3.09178 53.1526 3.19281C52.9506 3.29383 52.8094 3.46766 52.7292 3.71429L51.7486 3.40675C51.8675 2.99966 52.0933 2.67281 52.4261 2.42618C52.7619 2.17955 53.2136 2.05623 53.7811 2.05623C54.209 2.05623 54.5849 2.12606 54.9088 2.26572C55.2356 2.40538 55.4778 2.63418 55.6353 2.95212C55.7214 3.12149 55.7734 3.29532 55.7913 3.47361C55.8091 3.64892 55.818 3.84058 55.818 4.04858V7.00366H54.8776V5.96069L55.0336 6.13006C54.8166 6.47772 54.5626 6.73326 54.2714 6.89669C53.9832 7.05715 53.6221 7.13738 53.1883 7.13738ZM53.4022 6.28161C53.6459 6.28161 53.8539 6.23852 54.0262 6.15235C54.1986 6.06618 54.3353 5.96069 54.4363 5.83589C54.5403 5.71109 54.6101 5.59372 54.6458 5.48378C54.7022 5.34709 54.7334 5.19109 54.7394 5.01578C54.7483 4.83749 54.7528 4.69338 54.7528 4.58343L55.0826 4.68149C54.7587 4.73201 54.4809 4.77658 54.2491 4.81521C54.0173 4.85383 53.8182 4.89098 53.6518 4.92663C53.4854 4.95932 53.3384 4.99646 53.2106 5.03806C53.0858 5.08263 52.9803 5.13463 52.8941 5.19406C52.808 5.25349 52.7411 5.32183 52.6936 5.39909C52.649 5.47635 52.6267 5.56698 52.6267 5.67098C52.6267 5.78983 52.6564 5.89532 52.7158 5.98743C52.7753 6.07658 52.8614 6.14789 52.9744 6.20138C53.0902 6.25486 53.2329 6.28161 53.4022 6.28161ZM60.3079 7.00366V4.68595C60.3079 4.53441 60.2975 4.36652 60.2767 4.18229C60.2559 3.99806 60.2069 3.82126 60.1296 3.65189C60.0553 3.47955 59.9424 3.33841 59.7909 3.22846C59.6423 3.11852 59.4402 3.06355 59.1847 3.06355C59.048 3.06355 58.9128 3.08583 58.7791 3.13041C58.6454 3.17498 58.5235 3.25223 58.4136 3.36218C58.3066 3.46915 58.2205 3.61772 58.1551 3.80789C58.0897 3.99509 58.057 4.23578 58.057 4.52995L57.4197 4.25806C57.4197 3.84801 57.4984 3.47658 57.6559 3.14378C57.8163 2.81098 58.0511 2.54652 58.3601 2.35041C58.6691 2.15132 59.0495 2.05178 59.5011 2.05178C59.8577 2.05178 60.1519 2.11121 60.3837 2.23006C60.6154 2.34892 60.7997 2.50046 60.9363 2.68469C61.073 2.86892 61.1741 3.06503 61.2394 3.27303C61.3048 3.48103 61.3464 3.67863 61.3642 3.86583C61.385 4.05006 61.3954 4.20012 61.3954 4.31601V7.00366H60.3079ZM56.9695 7.00366V2.18995H57.9278V3.68309H58.057V7.00366H56.9695ZM65.3799 7.00366C65.062 7.06309 64.75 7.08835 64.4439 7.07943C64.1408 7.07349 63.8689 7.01852 63.6283 6.91452C63.3876 6.80755 63.2048 6.63966 63.08 6.41086C62.9701 6.20286 62.9121 5.99041 62.9062 5.77349C62.9003 5.55658 62.8973 5.31143 62.8973 5.03806V0.852805H63.967V4.97566C63.967 5.16881 63.9685 5.33818 63.9715 5.48378C63.9774 5.62938 64.0086 5.74823 64.0651 5.84035C64.172 6.01863 64.3429 6.11818 64.5776 6.13898C64.8124 6.15978 65.0798 6.14789 65.3799 6.10332V7.00366ZM62.0237 3.03235V2.18995H65.3799V3.03235H62.0237Z" fill="white"/>
</svg>
