<svg width="241" height="71" viewBox="0 0 241 71" fill="none" xmlns="http://www.w3.org/2000/svg">
<g clip-path="url(#clip0_9398_57766)">
<path d="M233.103 0.709717H7.16052C3.62332 0.709717 0.755859 3.57062 0.755859 7.09972V63.8997C0.755859 67.4288 3.62332 70.2897 7.16052 70.2897H233.103C236.64 70.2897 239.507 67.4288 239.507 63.8997V7.09972C239.507 3.57062 236.64 0.709717 233.103 0.709717Z" fill="#101010" stroke="white" stroke-opacity="0.5" stroke-width="3.55"/>
<path d="M84.4054 18.1817C84.4054 19.6692 83.9642 20.8531 83.0803 21.7371C82.0748 22.7879 80.7676 23.3133 79.1593 23.3133C77.6165 23.3133 76.3071 22.7808 75.2311 21.714C74.1515 20.649 73.6143 19.3266 73.6143 17.7504C73.6143 16.1724 74.1515 14.8518 75.2311 13.7851C76.3071 12.7201 77.6165 12.1858 79.1593 12.1858C79.9221 12.1858 80.6551 12.3349 81.349 12.6331C82.0449 12.9313 82.6014 13.3271 83.0199 13.8223L82.0805 14.7595C81.3739 13.9182 80.4011 13.4957 79.1593 13.4957C78.0349 13.4957 77.0635 13.8898 76.2437 14.6779C75.4232 15.4678 75.014 16.4902 75.014 17.7504C75.014 19.0089 75.4232 20.0331 76.2437 20.8212C77.0635 21.611 78.0349 22.0033 79.1593 22.0033C80.3513 22.0033 81.344 21.6075 82.141 20.8141C82.6569 20.2975 82.9537 19.5804 83.0341 18.6574H79.1593V17.3777H84.3307C84.3805 17.6563 84.4054 17.9244 84.4054 18.1817Z" fill="white"/>
<path d="M84.4054 18.1817C84.4054 19.6692 83.9642 20.8531 83.0803 21.7371C82.0748 22.7879 80.7676 23.3133 79.1593 23.3133C77.6165 23.3133 76.3071 22.7808 75.2311 21.714C74.1515 20.649 73.6143 19.3266 73.6143 17.7504C73.6143 16.1724 74.1515 14.8518 75.2311 13.7851C76.3071 12.7201 77.6165 12.1858 79.1593 12.1858C79.9221 12.1858 80.6551 12.3349 81.349 12.6331C82.0449 12.9313 82.6014 13.3271 83.0199 13.8223L82.0805 14.7595C81.3739 13.9182 80.4011 13.4957 79.1593 13.4957C78.0349 13.4957 77.0635 13.8898 76.2437 14.6779C75.4232 15.4678 75.014 16.4902 75.014 17.7504C75.014 19.0089 75.4232 20.0331 76.2437 20.8212C77.0635 21.611 78.0349 22.0033 79.1593 22.0033C80.3513 22.0033 81.344 21.6075 82.141 20.8141C82.6569 20.2975 82.9537 19.5804 83.0341 18.6574H79.1593V17.3777H84.3307C84.3805 17.6563 84.4054 17.9244 84.4054 18.1817Z" fill="white"/>
<path d="M92.6045 13.7335H87.7441V17.1095H92.1277V18.3892H87.7441V21.7653H92.6045V23.0752H86.3721V12.4253H92.6045V13.7335Z" fill="white"/>
<path d="M92.6045 13.7335H87.7441V17.1095H92.1277V18.3892H87.7441V21.7653H92.6045V23.0752H86.3721V12.4253H92.6045V13.7335Z" fill="white"/>
<path d="M98.3862 23.075H97.0149V13.7332H94.0332V12.425H101.368V13.7332H98.3862V23.075Z" fill="white"/>
<path d="M98.3862 23.075H97.0149V13.7332H94.0332V12.425H101.368V13.7332H98.3862V23.075Z" fill="white"/>
<path d="M106.681 12.425H108.053V23.075H106.681V12.425Z" fill="white"/>
<path d="M114.132 23.075H112.761V13.7332H109.779V12.425H117.114V13.7332H114.132V23.075Z" fill="white"/>
<path d="M114.132 23.075H112.761V13.7332H109.779V12.425H117.114V13.7332H114.132V23.075Z" fill="white"/>
<path d="M124.186 20.807C124.976 21.6057 125.942 22.0033 127.086 22.0033C128.23 22.0033 129.196 21.6057 129.986 20.807C130.776 20.0082 131.173 18.9894 131.173 17.7504C131.173 16.5115 130.776 15.4908 129.986 14.6939C129.196 13.8951 128.23 13.4957 127.086 13.4957C125.942 13.4957 124.976 13.8951 124.186 14.6939C123.398 15.4908 123.001 16.5115 123.001 17.7504C123.001 18.9894 123.398 20.0082 124.186 20.807ZM131 21.698C129.95 22.7754 128.647 23.3133 127.086 23.3133C125.526 23.3133 124.222 22.7754 123.174 21.698C122.125 20.6224 121.602 19.3071 121.602 17.7504C121.602 16.1937 122.125 14.8767 123.174 13.801C124.222 12.7254 125.526 12.1858 127.086 12.1858C128.637 12.1858 129.938 12.7272 130.993 13.8081C132.046 14.8891 132.573 16.2026 132.573 17.7504C132.573 19.3071 132.048 20.6224 131 21.698Z" fill="white"/>
<path d="M124.186 20.807C124.976 21.6057 125.942 22.0033 127.086 22.0033C128.23 22.0033 129.196 21.6057 129.986 20.807C130.776 20.0082 131.173 18.9894 131.173 17.7504C131.173 16.5115 130.776 15.4908 129.986 14.6939C129.196 13.8951 128.23 13.4957 127.086 13.4957C125.942 13.4957 124.976 13.8951 124.186 14.6939C123.398 15.4908 123.001 16.5115 123.001 17.7504C123.001 18.9894 123.398 20.0082 124.186 20.807ZM131 21.698C129.95 22.7754 128.647 23.3133 127.086 23.3133C125.526 23.3133 124.222 22.7754 123.174 21.698C122.125 20.6224 121.602 19.3071 121.602 17.7504C121.602 16.1937 122.125 14.8767 123.174 13.801C124.222 12.7254 125.526 12.1858 127.086 12.1858C128.637 12.1858 129.938 12.7272 130.993 13.8081C132.046 14.8891 132.573 16.2026 132.573 17.7504C132.573 19.3071 132.048 20.6224 131 21.698Z" fill="white"/>
<path d="M134.498 23.075V12.425H136.167L141.355 20.7089H141.415L141.355 18.6571V12.425H142.728V23.075H141.296L135.868 14.3882H135.809L135.868 16.4419V23.075H134.498Z" fill="white"/>
<path d="M134.498 23.075V12.425H136.167L141.355 20.7089H141.415L141.355 18.6571V12.425H142.728V23.075H141.296L135.868 14.3882H135.809L135.868 16.4419V23.075H134.498Z" fill="white"/>
<path d="M190.29 53.2503H193.61V31.0611H190.29V53.2503ZM220.19 39.0539L216.384 48.6743H216.271L212.321 39.0539H208.745L214.668 52.4995L211.293 59.9792H214.753L223.882 39.0539H220.19ZM201.364 50.7298C200.275 50.7298 198.76 50.1884 198.76 48.8447C198.76 47.1336 200.647 46.4769 202.279 46.4769C203.737 46.4769 204.426 46.7911 205.312 47.2188C205.054 49.2743 203.28 50.7298 201.364 50.7298ZM201.764 38.5693C199.361 38.5693 196.87 39.6255 195.842 41.9667L198.788 43.1932C199.418 41.9667 200.59 41.5655 201.821 41.5655C203.538 41.5655 205.283 42.5933 205.312 44.4214V44.6486C204.71 44.3061 203.424 43.7931 201.849 43.7931C198.674 43.7931 195.44 45.5344 195.44 48.7879C195.44 51.7575 198.044 53.671 200.962 53.671C203.194 53.671 204.426 52.6716 205.198 51.5001H205.312V53.213H208.516V44.7054C208.516 40.7668 205.57 38.5693 201.764 38.5693ZM181.249 41.7555H176.527V34.1496H181.249C183.73 34.1496 185.139 36.1997 185.139 37.9516C185.139 39.6716 183.73 41.7555 181.249 41.7555ZM181.163 31.0611H173.209V53.2503H176.527V44.8439H181.163C184.842 44.8439 188.459 42.185 188.459 37.9516C188.459 33.7183 184.842 31.0611 181.163 31.0611ZM137.787 50.7333C135.494 50.7333 133.574 48.8181 133.574 46.1876C133.574 43.5286 135.494 41.5833 137.787 41.5833C140.052 41.5833 141.828 43.5286 141.828 46.1876C141.828 48.8181 140.052 50.7333 137.787 50.7333ZM141.6 40.2964H141.484C140.739 39.4107 139.307 38.6102 137.501 38.6102C133.717 38.6102 130.25 41.9259 130.25 46.1876C130.25 50.4192 133.717 53.7082 137.501 53.7082C139.307 53.7082 140.739 52.9077 141.484 51.9918H141.6V53.0799C141.6 55.9678 140.052 57.512 137.558 57.512C135.523 57.512 134.261 56.053 133.745 54.8229L130.851 56.0246C131.681 58.0268 133.89 60.4851 137.558 60.4851C141.456 60.4851 144.753 58.1971 144.753 52.6219V39.0663H141.6V40.2964ZM147.046 53.2503H150.371V31.0593H147.046V53.2503ZM155.271 45.9302C155.185 43.0139 157.535 41.5265 159.225 41.5265C160.545 41.5265 161.662 42.1832 162.035 43.1275L155.271 45.9302ZM165.589 43.4133C164.959 41.7271 163.038 38.6102 159.111 38.6102C155.214 38.6102 151.976 41.6685 151.976 46.1592C151.976 50.3908 155.185 53.7082 159.483 53.7082C162.953 53.7082 164.959 51.5924 165.79 50.3624L163.21 48.6459C162.351 49.9044 161.175 50.7333 159.483 50.7333C157.793 50.7333 156.588 49.9612 155.815 48.4471L165.932 44.2706L165.589 43.4133ZM84.9829 40.9265V44.1286H92.6635C92.4337 45.9302 91.8323 47.2455 90.9165 48.1596C89.7971 49.2761 88.0486 50.5061 84.9829 50.5061C80.2527 50.5061 76.5558 46.7023 76.5558 41.9844C76.5558 37.2647 80.2527 33.4627 84.9829 33.4627C87.5341 33.4627 89.3972 34.4638 90.772 35.7506L93.0371 33.4911C91.1157 31.661 88.566 30.2588 84.9829 30.2588C78.5057 30.2588 73.0596 35.5217 73.0596 41.9844C73.0596 48.4471 78.5057 53.7082 84.9829 53.7082C88.4791 53.7082 91.1157 52.5634 93.1795 50.4192C95.3015 48.3034 95.9598 45.3302 95.9598 42.927C95.9598 42.1832 95.9029 41.4981 95.7876 40.9265H84.9829ZM104.694 50.7333C102.4 50.7333 100.422 48.8465 100.422 46.1592C100.422 43.4416 102.4 41.5833 104.694 41.5833C106.985 41.5833 108.963 43.4416 108.963 46.1592C108.963 48.8465 106.985 50.7333 104.694 50.7333ZM104.694 38.6102C100.507 38.6102 97.097 41.7839 97.097 46.1592C97.097 50.5061 100.507 53.7082 104.694 53.7082C108.878 53.7082 112.288 50.5061 112.288 46.1592C112.288 41.7839 108.878 38.6102 104.694 38.6102ZM121.262 50.7333C118.969 50.7333 116.991 48.8465 116.991 46.1592C116.991 43.4416 118.969 41.5833 121.262 41.5833C123.555 41.5833 125.532 43.4416 125.532 46.1592C125.532 48.8465 123.555 50.7333 121.262 50.7333ZM121.262 38.6102C117.077 38.6102 113.667 41.7839 113.667 46.1592C113.667 50.5061 117.077 53.7082 121.262 53.7082C125.446 53.7082 128.856 50.5061 128.856 46.1592C128.856 41.7839 125.446 38.6102 121.262 38.6102Z" fill="white"/>
<path d="M36.8997 34.4778L17.958 54.5352C17.9598 54.5388 17.9598 54.5441 17.9616 54.5476C18.5433 56.7256 20.5359 58.3284 22.9021 58.3284C23.8485 58.3284 24.7363 58.0728 25.4977 57.6255L25.5582 57.59L46.8785 45.3159L36.8997 34.4778Z" fill="#EA4335"/>
<path d="M56.0635 31.0621L56.0457 31.0497L46.8408 25.7266L36.4707 34.9334L46.8782 45.3135L56.0332 40.0436C57.638 39.1774 58.7285 37.4894 58.7285 35.544C58.7285 33.6093 57.654 31.9301 56.0635 31.0621Z" fill="#FBBC04"/>
<path d="M17.9595 16.4668C17.8456 16.8857 17.7852 17.3259 17.7852 17.7803V53.2233C17.7852 53.6777 17.8456 54.1179 17.9613 54.535L37.5523 34.9906L17.9595 16.4668Z" fill="#4285F4"/>
<path d="M37.0403 35.5015L46.8429 25.7231L25.5475 13.4046C24.7736 12.9413 23.8699 12.675 22.9038 12.675C20.5377 12.675 18.5415 14.2814 17.9598 16.4611C17.9598 16.4629 17.958 16.4647 17.958 16.4664L37.0403 35.5015Z" fill="#34A853"/>
</g>
<defs>
<clipPath id="clip0_9398_57766">
<rect width="240.531" height="71" fill="white"/>
</clipPath>
</defs>
</svg>
