<svg width="220" height="71" viewBox="0 0 220 71" fill="none" xmlns="http://www.w3.org/2000/svg">
<g clip-path="url(#clip0_9398_57786)">
<path d="M211.924 0.709961H7.25279C3.72369 0.709961 0.862793 3.57086 0.862793 7.09996V63.9C0.862793 67.4291 3.72369 70.29 7.25279 70.29H211.924C215.454 70.29 218.314 67.4291 218.314 63.9V7.09996C218.314 3.57086 215.454 0.709961 211.924 0.709961Z" fill="#0E0E0E" stroke="white" stroke-opacity="0.5" stroke-width="3.55"/>
<path d="M44.2199 36.3469C44.2398 34.7977 44.6514 33.2787 45.4161 31.9312C46.1808 30.5838 47.274 29.4516 48.5939 28.6402C47.7554 27.4428 46.6493 26.4573 45.3633 25.762C44.0774 25.0668 42.647 24.6811 41.1858 24.6353C38.069 24.3082 35.0473 26.5004 33.4591 26.5004C31.84 26.5004 29.3946 24.6678 26.7613 24.722C25.058 24.777 23.3979 25.2724 21.943 26.1596C20.4881 27.047 19.2877 28.2961 18.459 29.7852C14.8693 36.0002 17.5469 45.1343 20.9856 50.1581C22.706 52.6181 24.7167 55.3659 27.3477 55.2685C29.9222 55.1617 30.8837 53.6268 33.9914 53.6268C37.0703 53.6268 37.9724 55.2685 40.6567 55.2065C43.4193 55.1616 45.1599 52.7356 46.82 50.2523C48.0561 48.4994 49.0073 46.5622 49.6383 44.5123C48.0333 43.8334 46.6636 42.6972 45.7001 41.2452C44.7366 39.7931 44.2217 38.0896 44.2199 36.3469Z" fill="white"/>
<path d="M39.1505 21.3315C40.6568 19.5233 41.3988 17.1991 41.2192 14.8525C38.9179 15.0942 36.7921 16.1941 35.2656 17.9329C34.5191 18.7824 33.9475 19.7706 33.5832 20.8412C33.2189 21.9118 33.0693 23.0436 33.1427 24.1721C34.2937 24.1839 35.4325 23.9344 36.4731 23.4424C37.5138 22.9504 38.4292 22.2286 39.1505 21.3315Z" fill="white"/>
<path d="M76.7656 49.0409H67.9802L65.8703 55.2709H62.1489L70.4706 32.2217H74.3366L82.6586 55.2709H78.8735L76.7656 49.0409ZM68.89 46.1661H75.8539L72.4211 36.0554H72.3252L68.89 46.1661Z" fill="white"/>
<path d="M100.63 46.8696C100.63 52.0917 97.8345 55.4468 93.6164 55.4468C92.5478 55.5027 91.4857 55.2566 90.5506 54.7366C89.6155 54.2167 88.8459 53.4439 88.329 52.5068H88.2495V60.8303H84.8003V38.4663H88.1387V41.2614H88.2026C88.7422 40.3287 89.5253 39.5599 90.4675 39.0368C91.4097 38.5137 92.4761 38.2557 93.5532 38.2904C97.8181 38.2905 100.63 41.662 100.63 46.8696ZM97.084 46.8696C97.084 43.4673 95.326 41.2306 92.643 41.2306C90.0074 41.2306 88.2353 43.5144 88.2353 46.8696C88.2353 50.2555 90.0074 52.5231 92.643 52.5231C95.326 52.5231 97.084 50.3027 97.084 46.8696Z" fill="white"/>
<path d="M119.129 46.8695C119.129 52.0916 116.334 55.4468 112.116 55.4468C111.048 55.5027 109.985 55.2565 109.05 54.7366C108.115 54.2166 107.345 53.4438 106.829 52.5067H106.748V60.8303H103.299V38.4662H106.638V41.2613H106.702C107.242 40.3287 108.024 39.5599 108.967 39.0368C109.909 38.5136 110.975 38.2557 112.052 38.2904C116.318 38.2904 119.129 41.6619 119.129 46.8695ZM115.584 46.8695C115.584 43.4673 113.825 41.2305 111.143 41.2305C108.507 41.2305 106.734 43.5144 106.734 46.8695C106.734 50.2555 108.507 52.523 111.143 52.523C113.825 52.523 115.584 50.3027 115.584 46.8695Z" fill="white"/>
<path d="M131.348 48.8488C131.604 51.1346 133.824 52.6353 136.859 52.6353C139.766 52.6353 141.858 51.1345 141.858 49.0735C141.858 47.2844 140.596 46.2133 137.609 45.4791L134.622 44.7595C130.389 43.7372 128.425 41.7578 128.425 38.5458C128.425 34.569 131.89 31.8374 136.811 31.8374C141.682 31.8374 145.021 34.569 145.133 38.5458H141.651C141.443 36.2457 139.541 34.8572 136.762 34.8572C133.984 34.8572 132.082 36.262 132.082 38.3066C132.082 39.9362 133.297 40.895 136.267 41.6291L138.807 42.2526C143.536 43.371 145.501 45.2706 145.501 48.642C145.501 52.9542 142.066 55.655 136.603 55.655C131.491 55.655 128.04 53.0177 127.817 48.8486L131.348 48.8488Z" fill="white"/>
<path d="M152.945 34.4895V38.4664H156.141V41.1979H152.945V50.4622C152.945 51.9014 153.585 52.5721 154.99 52.5721C155.369 52.5655 155.748 52.5388 156.125 52.4923V55.2076C155.493 55.3256 154.851 55.379 154.209 55.3671C150.807 55.3671 149.48 54.0892 149.48 50.8301V41.1979H147.037V38.4664H149.48V34.4895H152.945Z" fill="white"/>
<path d="M157.992 46.8694C157.992 41.582 161.106 38.2595 165.961 38.2595C170.834 38.2595 173.933 41.582 173.933 46.8694C173.933 52.1713 170.851 55.4793 165.961 55.4793C161.075 55.4793 157.992 52.1713 157.992 46.8694ZM170.419 46.8694C170.419 43.2424 168.757 41.1017 165.961 41.1017C163.166 41.1017 161.506 43.2587 161.506 46.8694C161.506 50.5109 163.166 52.6353 165.961 52.6353C168.757 52.6353 170.419 50.5109 170.419 46.8694Z" fill="white"/>
<path d="M176.782 38.4661H180.071V41.3264H180.151C180.374 40.4331 180.897 39.6436 181.633 39.0907C182.369 38.5378 183.273 38.2552 184.193 38.2903C184.591 38.2889 184.987 38.3321 185.375 38.419V41.6454C184.874 41.4921 184.35 41.4217 183.825 41.437C183.324 41.4167 182.825 41.505 182.361 41.696C181.897 41.887 181.481 42.176 181.139 42.5433C180.797 42.9107 180.539 43.3475 180.383 43.8239C180.226 44.3003 180.174 44.805 180.231 45.3033V55.2708H176.782V38.4661Z" fill="white"/>
<path d="M201.28 50.3351C200.816 53.3857 197.845 55.4793 194.044 55.4793C189.155 55.4793 186.122 52.2039 186.122 46.9491C186.122 41.6781 189.172 38.2595 193.899 38.2595C198.549 38.2595 201.472 41.4533 201.472 46.5486V47.7304H189.603V47.9388C189.549 48.5573 189.626 49.1803 189.831 49.7666C190.035 50.3528 190.362 50.8888 190.789 51.339C191.217 51.7892 191.736 52.1433 192.311 52.3777C192.885 52.6121 193.503 52.7216 194.124 52.6987C194.939 52.7751 195.757 52.5863 196.456 52.1605C197.156 51.7346 197.699 51.0944 198.005 50.3351L201.28 50.3351ZM189.62 45.3196H198.021C198.052 44.7635 197.968 44.2071 197.773 43.6851C197.579 43.1631 197.279 42.6869 196.892 42.2865C196.505 41.886 196.04 41.5698 195.524 41.3578C195.009 41.1458 194.456 41.0426 193.899 41.0545C193.337 41.0512 192.781 41.1591 192.261 41.3721C191.741 41.5851 191.268 41.8988 190.871 42.2954C190.473 42.6919 190.157 43.1634 189.943 43.6824C189.728 44.2014 189.618 44.7579 189.62 45.3196Z" fill="white"/>
<path d="M68.4579 14.8724C69.1811 14.8205 69.9068 14.9298 70.5826 15.1924C71.2583 15.4548 71.8675 15.8641 72.3659 16.3905C72.8643 16.9169 73.2399 17.5475 73.4657 18.2366C73.6908 18.9257 73.7604 19.6563 73.6695 20.3755C73.6695 23.9137 71.7567 25.9476 68.4579 25.9476H64.4575V14.8724H68.4579ZM66.1777 24.3813H68.2658C68.7826 24.4122 69.2997 24.3275 69.7796 24.1333C70.2595 23.9391 70.69 23.6404 71.0399 23.2588C71.3897 22.8773 71.6502 22.4225 71.8022 21.9276C71.9541 21.4328 71.9939 20.9103 71.9179 20.3981C71.9882 19.8879 71.9442 19.3687 71.7901 18.8775C71.636 18.3862 71.3748 17.9352 71.0259 17.5567C70.6768 17.1781 70.2484 16.8815 69.7712 16.688C69.294 16.4946 68.7799 16.409 68.2658 16.4376H66.1777V24.3813Z" fill="white"/>
<path d="M75.6118 21.7646C75.5592 21.2153 75.6224 20.6612 75.7964 20.1376C75.9703 19.6141 76.2522 19.1327 76.6235 18.7244C76.9949 18.316 77.4471 17.9898 77.9512 17.7666C78.456 17.5434 79.002 17.428 79.5537 17.428C80.1054 17.428 80.6507 17.5434 81.1555 17.7666C81.6603 17.9898 82.1125 18.316 82.4839 18.7244C82.8545 19.1327 83.1364 19.6141 83.3103 20.1376C83.485 20.6612 83.5475 21.2153 83.4949 21.7646C83.5489 22.3144 83.4864 22.8693 83.3132 23.3938C83.1392 23.9182 82.8573 24.4004 82.4867 24.8095C82.1154 25.2186 81.6624 25.5456 81.1576 25.7693C80.6521 25.993 80.1061 26.1086 79.5537 26.1086C79.0013 26.1086 78.4546 25.993 77.9498 25.7693C77.4443 25.5456 76.992 25.2186 76.6207 24.8095C76.2494 24.4004 75.9682 23.9182 75.7943 23.3938C75.6203 22.8693 75.5585 22.3144 75.6118 21.7646ZM81.7987 21.7646C81.7987 19.9529 80.9844 18.8934 79.5565 18.8934C78.1223 18.8934 77.3158 19.9529 77.3158 21.7646C77.3158 23.5908 78.1223 24.6421 79.5565 24.6421C80.9844 24.6421 81.7987 23.5835 81.7987 21.7646Z" fill="white"/>
<path d="M93.9775 25.9475H92.2664L90.5389 19.7919H90.4083L88.688 25.9475H86.9932L84.6899 17.5896H86.3627L87.8601 23.9672H87.9829L89.7018 17.5896H91.2837L93.0026 23.9672H93.1326L94.6228 17.5896H96.2722L93.9775 25.9475Z" fill="white"/>
<path d="M98.2036 17.5895H99.7919V18.9172H99.9147C100.124 18.4403 100.476 18.0406 100.924 17.7736C101.371 17.5067 101.89 17.386 102.409 17.4281C102.816 17.3975 103.224 17.4589 103.604 17.6076C103.984 17.7562 104.325 17.9884 104.603 18.287C104.88 18.5855 105.088 18.9427 105.208 19.3322C105.33 19.7217 105.362 20.1333 105.302 20.5367V25.9473H103.652V20.951C103.652 19.6078 103.069 18.9399 101.849 18.9399C101.573 18.927 101.297 18.974 101.041 19.0776C100.784 19.1813 100.554 19.339 100.364 19.5403C100.175 19.7414 100.031 19.9812 99.9424 20.2432C99.8544 20.5051 99.8238 20.783 99.8529 21.0579V25.9474H98.2036V17.5895Z" fill="white"/>
<path d="M107.931 14.3267H109.581V25.9473H107.931V14.3267Z" fill="white"/>
<path d="M111.874 21.7647C111.822 21.2154 111.885 20.6612 112.059 20.1376C112.234 19.6141 112.515 19.1327 112.886 18.7244C113.258 18.316 113.71 17.9898 114.215 17.7665C114.719 17.5433 115.265 17.428 115.816 17.428C116.368 17.428 116.914 17.5433 117.419 17.7665C117.923 17.9898 118.376 18.316 118.747 18.7244C119.118 19.1327 119.4 19.6141 119.574 20.1376C119.748 20.6612 119.811 21.2154 119.758 21.7647C119.812 22.3146 119.75 22.8695 119.576 23.3939C119.403 23.9183 119.121 24.4005 118.749 24.8096C118.378 25.2187 117.926 25.5456 117.42 25.7693C116.915 25.9931 116.369 26.1087 115.816 26.1087C115.264 26.1087 114.718 25.9931 114.213 25.7693C113.708 25.5456 113.255 25.2187 112.883 24.8096C112.512 24.4005 112.231 23.9183 112.057 23.3939C111.883 22.8695 111.821 22.3146 111.874 21.7647ZM118.061 21.7647C118.061 19.953 117.247 18.8935 115.819 18.8935C114.385 18.8935 113.578 19.953 113.578 21.7647C113.578 23.5909 114.385 24.6422 115.819 24.6422C117.247 24.6422 118.061 23.5836 118.061 21.7647Z" fill="white"/>
<path d="M121.494 23.5835C121.494 22.0791 122.614 21.2118 124.602 21.0885L126.866 20.958V20.2366C126.866 19.3539 126.283 18.8554 125.155 18.8554C124.234 18.8554 123.597 19.1935 123.413 19.7843H121.816C121.985 18.3488 123.335 17.428 125.231 17.428C127.327 17.428 128.508 18.4711 128.508 20.2366V25.9472H126.921V24.7726H126.79C126.525 25.194 126.153 25.5375 125.712 25.768C125.271 25.9985 124.777 26.1079 124.28 26.0849C123.929 26.1214 123.574 26.0839 123.239 25.975C122.903 25.866 122.594 25.688 122.331 25.4523C122.069 25.2167 121.859 24.9286 121.714 24.6067C121.57 24.2849 121.495 23.9363 121.494 23.5835ZM126.866 22.8694V22.1706L124.825 22.3011C123.674 22.3782 123.152 22.7697 123.152 23.5065C123.152 24.2587 123.805 24.6965 124.702 24.6965C124.965 24.7231 125.23 24.6965 125.483 24.6184C125.735 24.5403 125.97 24.4122 126.171 24.2417C126.373 24.0712 126.539 23.8619 126.658 23.6261C126.777 23.3904 126.848 23.133 126.866 22.8694Z" fill="white"/>
<path d="M130.68 21.7648C130.68 19.1238 132.038 17.4507 134.15 17.4507C134.672 17.4267 135.191 17.5518 135.644 17.8114C136.098 18.0711 136.469 18.4546 136.713 18.917H136.836V14.3267H138.485V25.9473H136.905V24.6268H136.774C136.511 25.0862 136.128 25.4649 135.666 25.7219C135.203 25.979 134.679 26.1046 134.15 26.085C132.023 26.0851 130.68 24.4121 130.68 21.7648ZM132.384 21.7648C132.384 23.5375 133.22 24.6042 134.618 24.6042C136.008 24.6042 136.867 23.5221 136.867 21.772C136.867 20.0301 135.999 18.9325 134.618 18.9325C133.229 18.9325 132.384 20.0065 132.384 21.7648Z" fill="white"/>
<path d="M145.308 21.7648C145.256 21.2156 145.319 20.6614 145.493 20.1379C145.667 19.6143 145.948 19.1329 146.32 18.7246C146.691 18.3163 147.143 17.99 147.648 17.7668C148.152 17.5436 148.698 17.4282 149.25 17.4282C149.802 17.4282 150.348 17.5436 150.852 17.7668C151.357 17.99 151.809 18.3163 152.18 18.7246C152.551 19.1329 152.833 19.6143 153.007 20.1379C153.181 20.6614 153.244 21.2156 153.191 21.7648C153.245 22.3147 153.183 22.8696 153.009 23.394C152.835 23.9184 152.554 24.4006 152.183 24.8097C151.812 25.2188 151.359 25.5458 150.854 25.7695C150.348 25.9932 149.802 26.1088 149.25 26.1088C148.698 26.1088 148.151 25.9932 147.646 25.7695C147.141 25.5458 146.688 25.2188 146.317 24.8097C145.946 24.4006 145.664 23.9184 145.491 23.394C145.317 22.8696 145.255 22.3147 145.308 21.7648ZM151.495 21.7648C151.495 19.9531 150.681 18.8937 149.253 18.8937C147.819 18.8937 147.012 19.9531 147.012 21.7648C147.012 23.5911 147.819 24.6424 149.253 24.6424C150.681 24.6423 151.495 23.5838 151.495 21.7648Z" fill="white"/>
<path d="M155.406 17.5895H156.994V18.9172H157.117C157.326 18.4403 157.679 18.0406 158.126 17.7736C158.573 17.5067 159.092 17.386 159.611 17.4281C160.018 17.3975 160.426 17.4589 160.806 17.6076C161.186 17.7562 161.527 17.9884 161.805 18.287C162.083 18.5855 162.29 18.9427 162.411 19.3322C162.532 19.7217 162.564 20.1333 162.504 20.5367V25.9473H160.855V20.951C160.855 19.6078 160.271 18.9399 159.052 18.9399C158.775 18.927 158.499 18.974 158.243 19.0776C157.987 19.1813 157.756 19.339 157.567 19.5403C157.377 19.7414 157.233 19.9812 157.145 20.2432C157.057 20.5051 157.026 20.783 157.056 21.0579V25.9474H155.406V17.5895Z" fill="white"/>
<path d="M171.82 15.5088V17.6277H173.631V19.0171H171.82V23.3148C171.82 24.1902 172.181 24.5736 173.002 24.5736C173.212 24.5729 173.422 24.5602 173.631 24.5356V25.9095C173.335 25.9625 173.035 25.9907 172.734 25.9938C170.899 25.9938 170.169 25.3485 170.169 23.7371V19.017H168.842V17.6276H170.169V15.5088H171.82Z" fill="white"/>
<path d="M175.887 14.3267H177.522V18.9325H177.653C177.872 18.4512 178.234 18.0492 178.69 17.7812C179.146 17.5134 179.674 17.3925 180.201 17.4353C180.606 17.4133 181.01 17.4808 181.385 17.6331C181.761 17.7854 182.098 18.0187 182.373 18.3163C182.648 18.6139 182.854 18.9685 182.976 19.3548C183.098 19.7411 183.133 20.1497 183.08 20.5512V25.9473H181.429V20.9581C181.429 19.6231 180.807 18.947 179.641 18.947C179.358 18.9238 179.072 18.9627 178.806 19.0612C178.539 19.1597 178.297 19.3153 178.096 19.5171C177.896 19.7189 177.742 19.9621 177.645 20.2297C177.549 20.4972 177.512 20.7826 177.537 21.0659V25.9473H175.887V14.3267Z" fill="white"/>
<path d="M192.696 23.6907C192.472 24.4546 191.987 25.1153 191.324 25.5573C190.662 25.9993 189.866 26.1945 189.074 26.1086C188.524 26.1232 187.977 26.0178 187.471 25.7996C186.965 25.5815 186.513 25.2559 186.145 24.8454C185.778 24.435 185.504 23.9495 185.344 23.4226C185.183 22.8958 185.139 22.3403 185.214 21.7947C185.14 21.2473 185.186 20.6906 185.346 20.1623C185.506 19.6339 185.778 19.1462 186.144 18.7321C186.51 18.318 186.96 17.9873 187.464 17.7624C187.968 17.5374 188.515 17.4234 189.067 17.4281C191.393 17.4281 192.796 19.017 192.796 21.6415V22.2171H186.894V22.3095C186.868 22.6162 186.907 22.9249 187.007 23.2159C187.107 23.5068 187.268 23.7735 187.477 23.999C187.687 24.2245 187.941 24.4036 188.224 24.525C188.507 24.6463 188.812 24.7073 189.12 24.7038C189.514 24.7512 189.914 24.6802 190.268 24.4998C190.622 24.3193 190.914 24.0376 191.108 23.6906L192.696 23.6907ZM186.894 20.9971H191.115C191.136 20.7166 191.098 20.4349 191.003 20.17C190.909 19.9051 190.76 19.6629 190.567 19.459C190.373 19.2551 190.138 19.0939 189.879 18.986C189.619 18.878 189.339 18.8255 189.058 18.832C188.773 18.8284 188.49 18.882 188.226 18.9895C187.961 19.097 187.721 19.2564 187.519 19.4582C187.318 19.66 187.159 19.9001 187.051 20.1644C186.943 20.4287 186.89 20.7119 186.894 20.9971Z" fill="white"/>
</g>
<defs>
<clipPath id="clip0_9398_57786">
<rect width="219.39" height="71" fill="white" transform="translate(0.155762)"/>
</clipPath>
</defs>
</svg>
