<svg width="133" height="43" viewBox="0 0 133 43" fill="none" xmlns="http://www.w3.org/2000/svg">
<path d="M128.499 25.0002V15.3252C128.499 14.2352 128.234 13.3902 127.704 12.7902C127.184 12.1802 126.469 11.8752 125.559 11.8752C124.989 11.8752 124.484 12.0102 124.044 12.2802C123.614 12.5402 123.274 12.9152 123.024 13.4052C122.774 13.8952 122.649 14.4702 122.649 15.1302L120.984 14.0652C120.974 12.9452 121.229 11.9602 121.749 11.1102C122.269 10.2602 122.969 9.60016 123.849 9.13016C124.739 8.65016 125.724 8.41016 126.804 8.41016C128.634 8.41016 130.019 8.95516 130.959 10.0452C131.909 11.1252 132.384 12.5452 132.384 14.3052V25.0002H128.499ZM108.984 25.0002V8.80016H112.419V14.0352H112.899V25.0002H108.984ZM118.749 25.0002L118.764 15.3402C118.764 14.2502 118.499 13.4002 117.969 12.7902C117.449 12.1802 116.734 11.8752 115.824 11.8752C114.944 11.8752 114.234 12.1752 113.694 12.7752C113.164 13.3752 112.899 14.1602 112.899 15.1302L111.234 13.9752C111.234 12.9152 111.494 11.9652 112.014 11.1252C112.544 10.2852 113.254 9.62516 114.144 9.14516C115.034 8.65516 116.034 8.41016 117.144 8.41016C118.394 8.41016 119.424 8.67516 120.234 9.20516C121.054 9.73516 121.659 10.4452 122.049 11.3352C122.449 12.2252 122.649 13.2202 122.649 14.3202V25.0002H118.749Z" fill="black"/>
<path d="M97.0283 25.4501C95.8583 25.4501 94.8683 25.2301 94.0583 24.7901C93.2583 24.3401 92.6483 23.7451 92.2283 23.0051C91.8183 22.2551 91.6133 21.4351 91.6133 20.5451C91.6133 19.7751 91.7333 19.0801 91.9733 18.4601C92.2133 17.8401 92.5983 17.3001 93.1283 16.8401C93.6583 16.3701 94.3533 15.9801 95.2133 15.6701C95.8333 15.4501 96.5633 15.2601 97.4033 15.1001C98.2533 14.9301 99.1983 14.7701 100.238 14.6201C101.288 14.4601 102.413 14.2901 103.613 14.1101L102.218 14.8901C102.218 13.8701 101.978 13.1201 101.498 12.6401C101.018 12.1501 100.213 11.9051 99.0833 11.9051C98.4333 11.9051 97.7733 12.0601 97.1033 12.3701C96.4433 12.6801 95.9833 13.2251 95.7233 14.0051L92.1833 12.8801C92.5933 11.5301 93.3633 10.4401 94.4933 9.6101C95.6233 8.7701 97.1533 8.3501 99.0833 8.3501C100.523 8.3501 101.793 8.5751 102.893 9.0251C103.993 9.4751 104.823 10.2401 105.383 11.3201C105.693 11.9101 105.878 12.5051 105.938 13.1051C105.998 13.6951 106.028 14.3551 106.028 15.0851V25.0001H102.608V21.5951L103.133 22.2401C102.363 23.3601 101.508 24.1751 100.568 24.6851C99.6283 25.1951 98.4483 25.4501 97.0283 25.4501ZM97.8383 22.3751C98.6183 22.3751 99.2783 22.2401 99.8183 21.9701C100.358 21.6901 100.788 21.3651 101.108 20.9951C101.428 20.6251 101.643 20.2951 101.753 20.0051C101.953 19.5551 102.068 19.0351 102.098 18.4451C102.138 17.8551 102.158 17.3701 102.158 16.9901L103.328 17.3051C102.158 17.4951 101.193 17.6551 100.433 17.7851C99.6733 17.9151 99.0433 18.0351 98.5433 18.1451C98.0433 18.2551 97.6033 18.3801 97.2233 18.5201C96.8133 18.6801 96.4733 18.8551 96.2033 19.0451C95.9433 19.2351 95.7483 19.4501 95.6183 19.6901C95.4883 19.9201 95.4233 20.1851 95.4233 20.4851C95.4233 20.8651 95.5183 21.2001 95.7083 21.4901C95.8983 21.7701 96.1733 21.9901 96.5333 22.1501C96.8933 22.3001 97.3283 22.3751 97.8383 22.3751Z" fill="black"/>
<path d="M81.5469 25.0002V8.80022H84.9819V12.7602L84.5919 12.2502C84.8019 11.6902 85.0769 11.1852 85.4169 10.7352C85.7669 10.2752 86.1869 9.90022 86.6769 9.61022C87.0669 9.36022 87.4969 9.16522 87.9669 9.02522C88.4369 8.87522 88.9219 8.78522 89.4219 8.75522C89.9219 8.71522 90.4169 8.73022 90.9069 8.80022V12.4302C90.4369 12.2902 89.8969 12.2452 89.2869 12.2952C88.6869 12.3452 88.1419 12.4952 87.6519 12.7452C87.1619 12.9952 86.7569 13.3152 86.4369 13.7052C86.1169 14.0852 85.8719 14.5302 85.7019 15.0402C85.5419 15.5502 85.4619 16.1152 85.4619 16.7352V25.0002H81.5469Z" fill="black"/>
<path d="M69.5403 25.4653C68.3003 25.4653 67.2853 25.2603 66.4953 24.8503C65.7053 24.4303 65.0803 23.9003 64.6203 23.2603C64.1703 22.6103 63.8453 21.9303 63.6453 21.2203C63.4453 20.5103 63.3203 19.8553 63.2703 19.2553C63.2203 18.6453 63.1953 18.1853 63.1953 17.8753V8.80029H67.1403V16.5103C67.1403 16.9303 67.1653 17.4403 67.2153 18.0403C67.2753 18.6303 67.4153 19.2153 67.6353 19.7953C67.8653 20.3753 68.2253 20.8553 68.7153 21.2353C69.2053 21.6153 69.8803 21.8053 70.7403 21.8053C71.1403 21.8053 71.5503 21.7453 71.9703 21.6253C72.3903 21.4953 72.7753 21.2653 73.1253 20.9353C73.4853 20.5953 73.7753 20.1153 73.9953 19.4953C74.2153 18.8653 74.3253 18.0553 74.3253 17.0653L76.5903 18.1003C76.5903 19.4203 76.3253 20.6403 75.7953 21.7603C75.2753 22.8803 74.4903 23.7803 73.4403 24.4603C72.4003 25.1303 71.1003 25.4653 69.5403 25.4653ZM74.8053 25.0003V19.7653H74.3253V8.80029H78.2553V25.0003H74.8053Z" fill="black"/>
<path d="M51.3234 25.4502C49.1634 25.4502 47.3034 24.9802 45.7434 24.0402C44.1834 23.1002 42.9834 21.7852 42.1434 20.0952C41.3134 18.4052 40.8984 16.4402 40.8984 14.2002C40.8984 11.9602 41.3134 9.99519 42.1434 8.30519C42.9834 6.61519 44.1834 5.30019 45.7434 4.3602C47.3034 3.4202 49.1634 2.9502 51.3234 2.9502C53.8034 2.9502 55.8784 3.57019 57.5484 4.81019C59.2284 6.04019 60.4084 7.7102 61.0884 9.8202L57.1584 10.9002C56.7584 9.5502 56.0684 8.50019 55.0884 7.75019C54.1184 7.00019 52.8634 6.6252 51.3234 6.6252C49.9134 6.6252 48.7384 6.94019 47.7984 7.57019C46.8684 8.19019 46.1684 9.0702 45.6984 10.2102C45.2284 11.3402 44.9934 12.6702 44.9934 14.2002C44.9934 15.7302 45.2284 17.0652 45.6984 18.2052C46.1684 19.3352 46.8684 20.2152 47.7984 20.8452C48.7384 21.4652 49.9134 21.7752 51.3234 21.7752C52.8634 21.7752 54.1184 21.4002 55.0884 20.6502C56.0684 19.8902 56.7584 18.8402 57.1584 17.5002L61.0884 18.5802C60.4084 20.6902 59.2284 22.3652 57.5484 23.6052C55.8784 24.8352 53.8034 25.4502 51.3234 25.4502Z" fill="black"/>
<path d="M127.5 40.165C126.92 40.165 126.418 40.0367 125.993 39.78C125.571 39.5234 125.243 39.1622 125.008 38.6965C124.774 38.2309 124.656 37.6845 124.656 37.0575C124.656 36.4085 124.772 35.8475 125.003 35.3745C125.234 34.9015 125.558 34.5367 125.976 34.28C126.398 34.0234 126.895 33.895 127.467 33.895C128.053 33.895 128.554 34.0307 128.968 34.302C129.383 34.5697 129.696 34.9547 129.909 35.457C130.121 35.9594 130.219 36.5589 130.2 37.2555H129.375V36.9695C129.361 36.1995 129.194 35.6184 128.875 35.226C128.559 34.8337 128.097 34.6375 127.489 34.6375C126.851 34.6375 126.361 34.8447 126.02 35.259C125.683 35.6734 125.514 36.2637 125.514 37.03C125.514 37.778 125.683 38.3592 126.02 38.7735C126.361 39.1842 126.843 39.3895 127.467 39.3895C127.892 39.3895 128.262 39.2924 128.578 39.098C128.897 38.9 129.148 38.6159 129.331 38.2455L130.085 38.537C129.85 39.054 129.504 39.4555 129.045 39.7415C128.591 40.0239 128.075 40.165 127.5 40.165ZM125.228 37.2555V36.579H129.766V37.2555H125.228Z" fill="black"/>
<path d="M121.461 40.0002V34.0602H122.187V35.4902L122.044 35.3032C122.11 35.1272 122.196 34.9659 122.302 34.8192C122.409 34.6689 122.524 34.5461 122.649 34.4507C122.803 34.3151 122.983 34.2124 123.188 34.1427C123.393 34.0694 123.6 34.0272 123.809 34.0162C124.018 34.0016 124.209 34.0162 124.381 34.0602V34.8192C124.165 34.7642 123.929 34.7514 123.672 34.7807C123.415 34.8101 123.179 34.9127 122.962 35.0887C122.764 35.2427 122.616 35.4279 122.517 35.6442C122.418 35.8569 122.352 36.0842 122.319 36.3262C122.286 36.5646 122.269 36.8011 122.269 37.0357V40.0002H121.461Z" fill="black"/>
<path d="M117.377 40.165C116.93 40.165 116.554 40.0844 116.25 39.923C115.949 39.7617 115.723 39.5472 115.573 39.2795C115.423 39.0119 115.348 38.7204 115.348 38.405C115.348 38.0824 115.412 37.8074 115.54 37.58C115.672 37.349 115.85 37.1602 116.074 37.0135C116.301 36.8669 116.563 36.755 116.86 36.678C117.161 36.6047 117.493 36.5405 117.856 36.4855C118.222 36.4269 118.58 36.3774 118.928 36.337C119.28 36.293 119.588 36.2509 119.852 36.2105L119.566 36.3865C119.577 35.7999 119.463 35.3654 119.225 35.083C118.987 34.8007 118.572 34.6595 117.982 34.6595C117.575 34.6595 117.23 34.7512 116.948 34.9345C116.669 35.1179 116.473 35.4075 116.36 35.8035L115.573 35.5725C115.709 35.0409 115.982 34.6284 116.393 34.335C116.803 34.0417 117.337 33.895 117.993 33.895C118.536 33.895 118.996 33.9977 119.374 34.203C119.755 34.4047 120.024 34.698 120.182 35.083C120.255 35.2554 120.303 35.4479 120.325 35.6605C120.347 35.8732 120.358 36.0895 120.358 36.3095V40H119.638V38.5095L119.847 38.5975C119.645 39.1072 119.331 39.4959 118.906 39.7635C118.481 40.0312 117.971 40.165 117.377 40.165ZM117.471 39.4665C117.848 39.4665 118.178 39.3987 118.461 39.263C118.743 39.1274 118.97 38.9422 119.143 38.7075C119.315 38.4692 119.427 38.2015 119.478 37.9045C119.522 37.7139 119.546 37.5049 119.55 37.2775C119.553 37.0465 119.555 36.8742 119.555 36.7605L119.863 36.92C119.588 36.9567 119.289 36.9934 118.967 37.03C118.648 37.0667 118.332 37.1089 118.021 37.1565C117.713 37.2042 117.434 37.261 117.185 37.327C117.016 37.3747 116.853 37.4425 116.695 37.5305C116.537 37.6149 116.407 37.7285 116.305 37.8715C116.206 38.0145 116.156 38.1924 116.156 38.405C116.156 38.5774 116.198 38.7442 116.283 38.9055C116.371 39.0669 116.51 39.2007 116.701 39.307C116.895 39.4134 117.152 39.4665 117.471 39.4665Z" fill="black"/>
<path d="M112.411 40.165C111.814 40.165 111.308 40.0312 110.893 39.7635C110.479 39.4959 110.164 39.1274 109.947 38.658C109.735 38.185 109.625 37.6424 109.617 37.03C109.625 36.4067 109.738 35.8604 109.958 35.391C110.178 34.918 110.495 34.5514 110.91 34.291C111.324 34.027 111.826 33.895 112.417 33.895C113.018 33.895 113.541 34.0417 113.984 34.335C114.432 34.6284 114.738 35.0299 114.903 35.5395L114.111 35.7925C113.971 35.4369 113.75 35.1619 113.445 34.9675C113.145 34.7695 112.8 34.6705 112.411 34.6705C111.975 34.6705 111.614 34.7714 111.328 34.973C111.042 35.171 110.829 35.4479 110.69 35.8035C110.55 36.1592 110.479 36.568 110.475 37.03C110.483 37.7414 110.648 38.3134 110.97 38.746C111.293 39.175 111.773 39.3895 112.411 39.3895C112.815 39.3895 113.157 39.2979 113.44 39.1145C113.726 38.9275 113.942 38.6562 114.089 38.3005L114.903 38.5425C114.683 39.0705 114.36 39.4739 113.935 39.7525C113.509 40.0275 113.002 40.165 112.411 40.165Z" fill="black"/>
<path d="M104.256 42.805C103.952 42.805 103.651 42.7592 103.354 42.6675C103.061 42.5795 102.789 42.4384 102.54 42.244C102.291 42.0534 102.082 41.804 101.913 41.496L102.644 41.089C102.809 41.419 103.04 41.6555 103.337 41.7985C103.638 41.9452 103.944 42.0185 104.256 42.0185C104.685 42.0185 105.031 41.9379 105.295 41.7765C105.563 41.6189 105.757 41.3842 105.878 41.0725C105.999 40.7609 106.058 40.3722 106.054 39.9065V38.3225H106.148V34.06H106.868V39.9175C106.868 40.0862 106.863 40.2475 106.852 40.4015C106.845 40.5592 106.828 40.7132 106.802 40.8635C106.733 41.3072 106.588 41.672 106.368 41.958C106.152 42.244 105.866 42.4567 105.51 42.596C105.158 42.7354 104.74 42.805 104.256 42.805ZM104.201 40.165C103.647 40.165 103.174 40.0275 102.782 39.7525C102.39 39.4739 102.089 39.098 101.88 38.625C101.671 38.152 101.566 37.6185 101.566 37.0245C101.566 36.4342 101.669 35.9025 101.874 35.4295C102.083 34.9565 102.382 34.5825 102.771 34.3075C103.16 34.0325 103.625 33.895 104.168 33.895C104.725 33.895 105.195 34.0307 105.576 34.302C105.957 34.5734 106.245 34.9455 106.439 35.4185C106.637 35.8879 106.736 36.4232 106.736 37.0245C106.736 37.6149 106.639 38.1484 106.445 38.625C106.251 39.098 105.965 39.4739 105.587 39.7525C105.209 40.0275 104.747 40.165 104.201 40.165ZM104.283 39.4115C104.705 39.4115 105.053 39.3089 105.328 39.1035C105.603 38.8982 105.809 38.6159 105.944 38.2565C106.08 37.8935 106.148 37.4829 106.148 37.0245C106.148 36.5589 106.08 36.1482 105.944 35.7925C105.809 35.4332 105.603 35.1527 105.328 34.951C105.057 34.7494 104.714 34.6485 104.3 34.6485C103.875 34.6485 103.523 34.753 103.244 34.962C102.965 35.171 102.758 35.4552 102.622 35.8145C102.49 36.1739 102.424 36.5772 102.424 37.0245C102.424 37.4755 102.492 37.8825 102.628 38.2455C102.767 38.6049 102.974 38.889 103.249 39.098C103.524 39.307 103.869 39.4115 104.283 39.4115Z" fill="black"/>
<path d="M99.9869 40.0001V36.9696C99.9869 36.6396 99.9557 36.3371 99.8934 36.0621C99.8311 35.7835 99.7302 35.5415 99.5909 35.3361C99.4552 35.1271 99.2774 34.9658 99.0574 34.8521C98.8411 34.7385 98.5771 34.6816 98.2654 34.6816C97.9794 34.6816 97.7264 34.7311 97.5064 34.8301C97.2901 34.9291 97.1067 35.0721 96.9564 35.2591C96.8097 35.4425 96.6979 35.6661 96.6209 35.9301C96.5439 36.1941 96.5054 36.4948 96.5054 36.8321L95.9334 36.7056C95.9334 36.097 96.0397 35.5855 96.2524 35.1711C96.4651 34.7568 96.7584 34.4433 97.1324 34.2306C97.5064 34.018 97.9354 33.9116 98.4194 33.9116C98.7751 33.9116 99.0849 33.9666 99.3489 34.0766C99.6166 34.1866 99.8421 34.3351 100.025 34.5221C100.212 34.7091 100.363 34.9236 100.476 35.1656C100.59 35.404 100.673 35.6588 100.724 35.9301C100.775 36.1978 100.801 36.4655 100.801 36.7331V40.0001H99.9869ZM95.6914 40.0001V34.0601H96.4229V35.5231H96.5054V40.0001H95.6914Z" fill="black"/>
<path d="M93.5703 32.9324V32.0249H94.3788V32.9324H93.5703ZM93.5703 39.9999V34.0599H94.3788V39.9999H93.5703Z" fill="black"/>
<path d="M91.5465 39.9999L91.552 36.1004C91.552 35.6421 91.4237 35.2827 91.167 35.0224C90.914 34.7584 90.5914 34.6264 90.199 34.6264C89.9754 34.6264 89.7572 34.6777 89.5445 34.7804C89.3319 34.8831 89.1559 35.0481 89.0165 35.2754C88.8809 35.5027 88.813 35.7997 88.813 36.1664L88.3345 36.0289C88.3235 35.6036 88.406 35.2314 88.582 34.9124C88.7617 34.5934 89.0074 34.3459 89.319 34.1699C89.6344 33.9902 89.99 33.9004 90.386 33.9004C90.9837 33.9004 91.4622 34.0856 91.8215 34.4559C92.1809 34.8226 92.3605 35.3194 92.3605 35.9464L92.355 39.9999H91.5465ZM84.457 39.9999V34.0599H85.183V35.5229H85.271V39.9999H84.457ZM88.01 39.9999L88.0155 36.1554C88.0155 35.6824 87.889 35.3102 87.636 35.0389C87.3867 34.7639 87.0567 34.6264 86.646 34.6264C86.2354 34.6264 85.9035 34.7676 85.6505 35.0499C85.3975 35.3286 85.271 35.7007 85.271 36.1664L84.787 35.9024C84.787 35.5211 84.8769 35.1801 85.0565 34.8794C85.2362 34.5751 85.4819 34.3367 85.7935 34.1644C86.1052 33.9884 86.459 33.9004 86.855 33.9004C87.2327 33.9004 87.5682 33.9811 87.8615 34.1424C88.1585 34.3037 88.3914 34.5384 88.56 34.8464C88.7287 35.1544 88.813 35.5284 88.813 35.9684L88.8075 39.9999H88.01Z" fill="black"/>
<path d="M80.832 40.0002V34.0602H81.558V35.4902L81.415 35.3032C81.481 35.1272 81.5672 34.9659 81.6735 34.8192C81.7799 34.6689 81.8954 34.5461 82.02 34.4507C82.174 34.3151 82.3537 34.2124 82.559 34.1427C82.7644 34.0694 82.9715 34.0272 83.1805 34.0162C83.3895 34.0016 83.5802 34.0162 83.7525 34.0602V34.8192C83.5362 34.7642 83.2997 34.7514 83.043 34.7807C82.7864 34.8101 82.5499 34.9127 82.3335 35.0887C82.1355 35.2427 81.987 35.4279 81.888 35.6442C81.789 35.8569 81.723 36.0842 81.69 36.3262C81.657 36.5646 81.6405 36.8011 81.6405 37.0357V40.0002H80.832Z" fill="black"/>
<path d="M77.1308 40.165C76.5405 40.165 76.0363 40.0312 75.6183 39.7635C75.2003 39.4959 74.8795 39.1255 74.6558 38.6525C74.4321 38.1795 74.3203 37.6369 74.3203 37.0245C74.3203 36.4012 74.434 35.8549 74.6613 35.3855C74.8886 34.9162 75.2113 34.5514 75.6293 34.291C76.051 34.027 76.5515 33.895 77.1308 33.895C77.7248 33.895 78.2308 34.0289 78.6488 34.2965C79.0705 34.5605 79.3913 34.929 79.6113 35.402C79.835 35.8714 79.9468 36.4122 79.9468 37.0245C79.9468 37.6479 79.835 38.196 79.6113 38.669C79.3876 39.1384 79.065 39.505 78.6433 39.769C78.2216 40.033 77.7175 40.165 77.1308 40.165ZM77.1308 39.3895C77.7908 39.3895 78.2821 39.1714 78.6048 38.735C78.9275 38.295 79.0888 37.7249 79.0888 37.0245C79.0888 36.3059 78.9256 35.7339 78.5993 35.3085C78.2766 34.8832 77.7871 34.6705 77.1308 34.6705C76.6871 34.6705 76.3205 34.7714 76.0308 34.973C75.7448 35.171 75.5303 35.4479 75.3873 35.8035C75.248 36.1555 75.1783 36.5625 75.1783 37.0245C75.1783 37.7395 75.3433 38.3134 75.6733 38.746C76.0033 39.175 76.4891 39.3895 77.1308 39.3895Z" fill="black"/>
<path d="M71.884 40V33.62C71.884 33.466 71.8913 33.3139 71.906 33.1635C71.9243 33.0132 71.9591 32.8702 72.0105 32.7345C72.0618 32.5952 72.1425 32.4669 72.2525 32.3495C72.3735 32.2175 72.5055 32.1222 72.6485 32.0635C72.7915 32.0012 72.94 31.9609 73.094 31.9425C73.2516 31.9242 73.4056 31.915 73.556 31.915H74.315V32.597H73.611C73.303 32.597 73.072 32.6722 72.918 32.8225C72.7676 32.9729 72.6925 33.2094 72.6925 33.532V40H71.884ZM70.8555 34.753V34.06H74.315V34.753H70.8555Z" fill="black"/>
<path d="M68.0621 40.1595C67.3655 40.1595 66.7916 40.0092 66.3406 39.7085C65.8933 39.4079 65.6183 38.9899 65.5156 38.4545L66.3406 38.317C66.4286 38.6544 66.6285 38.9239 66.9401 39.1255C67.2555 39.3235 67.6441 39.4225 68.1061 39.4225C68.5571 39.4225 68.9128 39.329 69.1731 39.142C69.4335 38.9514 69.5636 38.6929 69.5636 38.3665C69.5636 38.1832 69.5215 38.0347 69.4371 37.921C69.3565 37.8037 69.1896 37.6955 68.9366 37.5965C68.6836 37.4975 68.306 37.3802 67.8036 37.2445C67.2646 37.0979 66.843 36.9512 66.5386 36.8045C66.2343 36.6579 66.018 36.4892 65.8896 36.2985C65.7613 36.1042 65.6971 35.8677 65.6971 35.589C65.6971 35.2517 65.7925 34.9565 65.9831 34.7035C66.1738 34.4469 66.4378 34.2489 66.7751 34.1095C67.1125 33.9665 67.5048 33.895 67.9521 33.895C68.3995 33.895 68.7991 33.9684 69.1511 34.115C69.5068 34.258 69.7928 34.4597 70.0091 34.72C70.2255 34.9804 70.3538 35.2829 70.3941 35.6275L69.5691 35.776C69.5141 35.4277 69.34 35.1527 69.0466 34.951C68.757 34.7457 68.3885 34.6394 67.9411 34.632C67.5195 34.621 67.1766 34.7017 66.9126 34.874C66.6486 35.0427 66.5166 35.2682 66.5166 35.5505C66.5166 35.7082 66.5643 35.8439 66.6596 35.9575C66.755 36.0675 66.9273 36.172 67.1766 36.271C67.4296 36.37 67.789 36.4782 68.2546 36.5955C68.801 36.7349 69.23 36.8815 69.5416 37.0355C69.8533 37.1895 70.0751 37.371 70.2071 37.58C70.3391 37.789 70.4051 38.0475 70.4051 38.3555C70.4051 38.9165 70.1961 39.3584 69.7781 39.681C69.3638 40 68.7918 40.1595 68.0621 40.1595Z" fill="black"/>
<path d="M63.9361 40.0001V36.9696C63.9361 36.6396 63.905 36.3371 63.8426 36.0621C63.7803 35.7835 63.6795 35.5415 63.5401 35.3361C63.4045 35.1271 63.2266 34.9658 63.0066 34.8521C62.7903 34.7385 62.5263 34.6816 62.2146 34.6816C61.9286 34.6816 61.6756 34.7311 61.4556 34.8301C61.2393 34.9291 61.056 35.0721 60.9056 35.2591C60.759 35.4425 60.6471 35.6661 60.5701 35.9301C60.4931 36.1941 60.4546 36.4948 60.4546 36.8321L59.8826 36.7056C59.8826 36.097 59.989 35.5855 60.2016 35.1711C60.4143 34.7568 60.7076 34.4433 61.0816 34.2306C61.4556 34.018 61.8846 33.9116 62.3686 33.9116C62.7243 33.9116 63.0341 33.9666 63.2981 34.0766C63.5658 34.1866 63.7913 34.3351 63.9746 34.5221C64.1616 34.7091 64.312 34.9236 64.4256 35.1656C64.5393 35.404 64.6218 35.6588 64.6731 35.9301C64.7245 36.1978 64.7501 36.4655 64.7501 36.7331V40.0001H63.9361ZM59.6406 40.0001V34.0601H60.3721V35.5231H60.4546V40.0001H59.6406Z" fill="black"/>
<path d="M55.5647 40.165C55.1173 40.165 54.7415 40.0844 54.4372 39.923C54.1365 39.7617 53.911 39.5472 53.7607 39.2795C53.6103 39.0119 53.5352 38.7204 53.5352 38.405C53.5352 38.0824 53.5993 37.8074 53.7277 37.58C53.8597 37.349 54.0375 37.1602 54.2612 37.0135C54.4885 36.8669 54.7507 36.755 55.0477 36.678C55.3483 36.6047 55.6802 36.5405 56.0432 36.4855C56.4098 36.4269 56.7673 36.3774 57.1157 36.337C57.4677 36.293 57.7757 36.2509 58.0397 36.2105L57.7537 36.3865C57.7647 35.7999 57.651 35.3654 57.4127 35.083C57.1743 34.8007 56.76 34.6595 56.1697 34.6595C55.7627 34.6595 55.418 34.7512 55.1357 34.9345C54.857 35.1179 54.6608 35.4075 54.5472 35.8035L53.7607 35.5725C53.8963 35.0409 54.1695 34.6284 54.5802 34.335C54.9908 34.0417 55.5243 33.895 56.1807 33.895C56.7233 33.895 57.1835 33.9977 57.5612 34.203C57.9425 34.4047 58.212 34.698 58.3697 35.083C58.443 35.2554 58.4907 35.4479 58.5127 35.6605C58.5347 35.8732 58.5457 36.0895 58.5457 36.3095V40H57.8252V38.5095L58.0342 38.5975C57.8325 39.1072 57.519 39.4959 57.0937 39.7635C56.6683 40.0312 56.1587 40.165 55.5647 40.165ZM55.6582 39.4665C56.0358 39.4665 56.3658 39.3987 56.6482 39.263C56.9305 39.1274 57.1578 38.9422 57.3302 38.7075C57.5025 38.4692 57.6143 38.2015 57.6657 37.9045C57.7097 37.7139 57.7335 37.5049 57.7372 37.2775C57.7408 37.0465 57.7427 36.8742 57.7427 36.7605L58.0507 36.92C57.7757 36.9567 57.4768 36.9934 57.1542 37.03C56.8352 37.0667 56.5198 37.1089 56.2082 37.1565C55.9002 37.2042 55.6215 37.261 55.3722 37.327C55.2035 37.3747 55.0403 37.4425 54.8827 37.5305C54.725 37.6149 54.5948 37.7285 54.4922 37.8715C54.3932 38.0145 54.3437 38.1924 54.3437 38.405C54.3437 38.5774 54.3858 38.7442 54.4702 38.9055C54.5582 39.0669 54.6975 39.2007 54.8882 39.307C55.0825 39.4134 55.3392 39.4665 55.6582 39.4665Z" fill="black"/>
<path d="M50.4531 40.0002V34.0602H51.1791V35.4902L51.0361 35.3032C51.1021 35.1272 51.1883 34.9659 51.2946 34.8192C51.401 34.6689 51.5165 34.5461 51.6411 34.4507C51.7951 34.3151 51.9748 34.2124 52.1801 34.1427C52.3855 34.0694 52.5926 34.0272 52.8016 34.0162C53.0106 34.0016 53.2013 34.0162 53.3736 34.0602V34.8192C53.1573 34.7642 52.9208 34.7514 52.6641 34.7807C52.4075 34.8101 52.171 34.9127 51.9546 35.0887C51.7566 35.2427 51.6081 35.4279 51.5091 35.6442C51.4101 35.8569 51.3441 36.0842 51.3111 36.3262C51.2781 36.5646 51.2616 36.8011 51.2616 37.0357V40.0002H50.4531Z" fill="black"/>
<path d="M46.8759 40.0001V32.8556H44.1094V32.0801H50.4509V32.8556H47.6844V40.0001H46.8759Z" fill="black"/>
<path d="M19.0588 8.70557H18.2063C15.4366 8.70557 13.1914 10.9508 13.1914 13.7204V14.5729C13.1914 17.3426 15.4366 19.5878 18.2063 19.5878H19.0588C21.8284 19.5878 24.0736 17.3426 24.0736 14.5729V13.7204C24.0736 10.9508 21.8284 8.70557 19.0588 8.70557Z" fill="#494FC9"/>
<path d="M18.6391 22.852C17.4958 22.8521 16.3638 22.6269 15.3075 22.1894C14.2513 21.7519 13.2915 21.1107 12.4831 20.3023C11.6747 19.4939 11.0334 18.5342 10.5959 17.478C10.1584 16.4217 9.93322 15.2897 9.93322 14.1464C9.93331 11.8375 10.8506 9.62323 12.4832 7.99063C14.1159 6.35802 16.3302 5.44083 18.6391 5.44081C19.8214 5.4394 20.9915 5.67951 22.0776 6.14643C23.1638 6.61334 24.1431 7.29722 24.9556 8.15612C25.376 8.5963 25.9323 8.88223 26.535 8.96788C27.1376 9.05353 27.7516 8.93392 28.278 8.6283H28.2785C29.7951 7.75284 30.1106 5.68474 28.9056 4.414C27.5852 3.01773 25.9935 1.90597 24.228 1.14694C22.4625 0.387912 20.5606 -0.00238065 18.6389 1.09248e-05C10.8259 1.09248e-05 4.49219 6.33341 4.49219 14.1469C4.49219 21.9599 10.8256 28.2938 18.6391 28.2938C20.5363 28.2962 22.4145 27.9157 24.1612 27.1752C25.9079 26.4347 27.4873 25.3494 28.8048 23.9843C30.0402 22.7078 29.7583 20.6138 28.2199 19.7256C27.6963 19.4217 27.0861 19.3017 26.4864 19.3848C25.8868 19.4679 25.3321 19.7492 24.9109 20.1839C24.0996 21.0289 23.1257 21.7008 22.0478 22.1594C20.97 22.6179 19.8104 22.8535 18.6391 22.852Z" fill="#494FC9"/>
<path d="M18.6354 37.0003C25.9818 37.0003 32.5181 33.5336 36.6988 28.147C36.9371 27.84 37.1069 27.4855 37.1968 27.1073C37.2867 26.7292 37.2945 26.3362 37.2197 25.9548C37.145 25.5733 36.9894 25.2124 36.7635 24.8961C36.5376 24.5798 36.2465 24.3156 35.9099 24.1213C35.3413 23.7925 34.6728 23.6808 34.0282 23.8068C33.3835 23.9328 32.8063 24.288 32.4033 24.8067C30.7776 26.9102 28.6911 28.6127 26.3042 29.7834C23.9173 30.954 21.2938 31.5616 18.6353 31.5593C15.9768 31.5616 13.3532 30.954 10.9663 29.7834C8.57947 28.6127 6.49294 26.9102 4.86723 24.8067C4.46421 24.288 3.887 23.9328 3.24236 23.8068C2.59771 23.6808 1.92925 23.7925 1.36059 24.1213C1.02401 24.3156 0.732962 24.5798 0.507032 24.8961C0.281103 25.2124 0.125534 25.5733 0.0507935 25.9548C-0.0239469 26.3362 -0.0161249 26.7292 0.0737335 27.1073C0.163592 27.4855 0.333402 27.84 0.571737 28.147C4.75279 33.5336 11.289 37.0003 18.6354 37.0003Z" fill="#494FC9"/>
</svg>
