<svg aria-label="Graphics Symbol" role="graphics-symbol" width="24" height="24" viewBox="0 0 24 24" fill="none" xmlns="http://www.w3.org/2000/svg">
							<path d="M11.3057 15.0027L6.68348 10.2067C6.33856 9.84877 6.34908 9.27902 6.70698 8.9341C7.06488 8.58917 7.63463 8.59969 7.97955 8.95759L11.9909 13.1198L16.0023 8.95759C16.3472 8.59969 16.9169 8.58917 17.2748 8.9341C17.6327 9.27902 17.6433 9.84877 17.2983 10.2067L12.6762 15.0027C12.6575 15.0245 12.6376 15.0456 12.6165 15.0659C12.4416 15.2345 12.2161 15.3182 11.9909 15.3179C11.7658 15.3182 11.5402 15.2345 11.3653 15.0659C11.3442 15.0456 11.3243 15.0245 11.3057 15.0027Z" fill="#676779"></path>
						</svg>