<svg aria-label="Graphics Symbol" role="graphics-symbol" width="21" height="20" viewbox="0 0 21 20" fill="none" xmlns="http://www.w3.org/2000/svg">
									<g clip-path="url(#clip0_1431_39772)">
										<path d="M10.7501 18.9275C15.6812 18.9275 19.6787 14.93 19.6787 9.99888C19.6787 5.06777 15.6812 1.07031 10.7501 1.07031C5.81899 1.07031 1.82153 5.06777 1.82153 9.99888C1.82153 14.93 5.81899 18.9275 10.7501 18.9275Z" fill="#EEEEEE" stroke="#707070" stroke-width="1.71429" stroke-linecap="round" stroke-linejoin="round"/>
										<path d="M10.751 10.6467C10.751 10.1309 11.1705 9.81454 11.9107 9.32001C12.5972 8.8613 12.9593 8.26627 12.7982 7.4565C12.6371 6.64671 11.968 5.97762 11.1583 5.81654C9.88712 5.5637 8.66382 6.56762 8.66382 7.86365" stroke="#707070" stroke-width="1.71429" stroke-linecap="round" stroke-linejoin="round"/>
										<path d="M10.75 14.2204V13.8633" stroke="#707070" stroke-width="1.71429" stroke-linecap="round" stroke-linejoin="round"/>
									</g>
									<defs>
										<clipPath id="clip0_1431_39772">
											<rect width="20" height="20" fill="white" transform="translate(0.75)"/>
										</clipPath>
									</defs>
								</svg>