<svg aria-label="Graphics Symbol" role="graphics-symbol" width="20" height="20" viewBox="0 0 20 20" fill="none" xmlns="http://www.w3.org/2000/svg">
												<path fill-rule="evenodd" clip-rule="evenodd" d="M9.58335 10.625V10H10.4167V10.625H9.58335ZM10.0338 13.125C9.78503 13.125 9.58335 12.9233 9.58335 12.6745V12.2917C9.58335 12.0615 9.7699 11.875 10 11.875H10.0463C10.2509 11.875 10.4167 12.0408 10.4167 12.2454V12.7421C10.4167 12.9536 10.2453 13.125 10.0338 13.125V13.125ZM9.58335 15V14.7639C9.58335 14.5491 9.75747 14.375 9.97224 14.375V14.375C10.2177 14.375 10.4167 14.574 10.4167 14.8194V15H9.58335Z" fill="#E5E5E5"></path>
												<path d="M5.83334 13.3335L6.66668 18.7502L13.75 18.3335V13.3335C11.4167 16.0002 7.50001 14.4446 5.83334 13.3335Z" fill="#E5E5E5"></path>
												<path d="M10 10.0001C7.33333 10.0001 6.38889 7.77786 6.25 6.66675H14.1667C13.8889 7.77786 12.6667 10.0001 10 10.0001Z" fill="#E5E5E5"></path>
												<path fill-rule="evenodd" clip-rule="evenodd" d="M5.9402 0.682147C6.0114 0.353581 6.30209 0.119141 6.63828 0.119141H13.3617C13.6979 0.119141 13.9886 0.353576 14.0598 0.682139C14.1302 1.00669 14.2111 1.34527 14.2942 1.69266C14.5343 2.69649 14.7919 3.77397 14.8617 4.79966C14.9594 6.23658 14.7081 7.70378 13.5652 9.02226L13.0254 8.5544L13.5652 9.02226C12.6393 10.0903 11.3598 10.7144 10 10.7144C8.64021 10.7144 7.36074 10.0903 6.43488 9.02226L6.93752 8.58655L6.43487 9.02226C5.29198 7.70377 5.0407 6.23658 5.1384 4.79966C5.20814 3.774 5.46578 2.69654 5.70582 1.69273C5.7889 1.34531 5.86986 1.00672 5.9402 0.682147ZM7.20939 1.54771C7.16332 1.74561 7.11674 1.94051 7.07078 2.13287C6.84008 3.09826 6.62466 3.99975 6.56368 4.89657C6.48302 6.08279 6.69033 7.13593 7.51434 8.08654L6.97461 8.5544L7.51434 8.08654C8.19327 8.86977 9.09035 9.28581 10 9.28581C10.9097 9.28581 11.8068 8.86977 12.4857 8.08654L12.9726 8.50857L12.4857 8.08654C13.3097 7.13593 13.517 6.08279 13.4364 4.89657C13.3754 3.99973 13.16 3.09821 12.9292 2.1328C12.8833 1.94046 12.8367 1.74559 12.7906 1.54771H7.20939Z" fill="#616161"></path>
												<path fill-rule="evenodd" clip-rule="evenodd" d="M5.94023 19.3179C6.01143 19.6464 6.30212 19.8809 6.63831 19.8809H13.3618C13.698 19.8809 13.9887 19.6464 14.0599 19.3179C14.1302 18.9933 14.2112 18.6547 14.2942 18.3073C14.5343 17.3035 14.7919 16.226 14.8617 15.2003C14.9594 13.7634 14.7081 12.2962 13.5652 10.9777L13.0255 11.4456L13.5652 10.9777C12.6393 9.90965 11.3599 9.28562 10.0001 9.28562C8.64024 9.28562 7.36077 9.90965 6.43491 10.9777L6.93755 11.4134L6.43491 10.9777C5.29201 12.2962 5.04073 13.7634 5.13843 15.2003C5.20817 16.226 5.46581 17.3035 5.70585 18.3073C5.78893 18.6547 5.86989 18.9933 5.94023 19.3179ZM7.20942 18.4523C7.16335 18.2544 7.11677 18.0595 7.07081 17.8671C6.84011 16.9017 6.62469 16.0002 6.56371 15.1034C6.48305 13.9172 6.69036 12.8641 7.51438 11.9135L6.97464 11.4456L7.51438 11.9135C8.1933 11.1302 9.09038 10.7142 10.0001 10.7142C10.9097 10.7142 11.8068 11.1302 12.4857 11.9135L12.9726 11.4914L12.4857 11.9135C13.3098 12.8641 13.5171 13.9172 13.4364 15.1034C13.3754 16.0003 13.16 16.9018 12.9293 17.8672C12.8833 18.0595 12.8367 18.2544 12.7907 18.4523H7.20942Z" fill="#616161"></path>
												<path fill-rule="evenodd" clip-rule="evenodd" d="M3.45239 0.833426C3.45239 0.438937 3.77219 0.119141 4.16668 0.119141H15.8333C16.2278 0.119141 16.5476 0.438937 16.5476 0.833426C16.5476 1.22792 16.2278 1.54771 15.8333 1.54771H4.16668C3.77219 1.54771 3.45239 1.22792 3.45239 0.833426Z" fill="#616161"></path>
												<path fill-rule="evenodd" clip-rule="evenodd" d="M3.45239 19.1667C3.45239 18.7722 3.77219 18.4524 4.16668 18.4524H15.8333C16.2278 18.4524 16.5476 18.7722 16.5476 19.1667C16.5476 19.5612 16.2278 19.881 15.8333 19.881H4.16668C3.77219 19.881 3.45239 19.5612 3.45239 19.1667Z" fill="#616161"></path>
											</svg>