<svg width="38" height="38" viewBox="0 0 38 38" fill="none" xmlns="http://www.w3.org/2000/svg">
<path d="M37.6616 15.485C37.5654 14.9744 37.1509 14.5873 36.6356 14.5255C36.119 14.4638 35.6262 14.7428 35.4124 15.2166C35.036 16.0479 34.2095 16.6262 33.2512 16.625C32.1884 16.6274 31.2906 15.9101 30.9914 14.9257C30.8109 14.3248 30.1934 13.9686 29.583 14.1111C29.2078 14.1989 28.8527 14.25 28.5 14.25C25.8839 14.2452 23.7548 12.1161 23.75 9.5C23.75 9.14731 23.8011 8.79225 23.8889 8.41819C24.0326 7.80781 23.6752 7.18912 23.0743 7.00862C22.0899 6.71056 21.3726 5.81281 21.375 4.75C21.3738 3.7905 21.9521 2.96519 22.7834 2.58875C23.2572 2.375 23.5362 1.881 23.4745 1.36562C23.4127 0.849062 23.0256 0.434625 22.515 0.338437C21.3821 0.125875 20.2089 0 19 0C8.51912 0.002375 0.002375 8.51912 0 19C0.002375 29.4809 8.51912 37.9976 19 38C29.4809 37.9976 37.9976 29.4809 38 19C38 17.7911 37.8741 16.6179 37.6616 15.485ZM30.7503 30.7503C27.7353 33.763 23.5861 35.625 19 35.625C14.4139 35.625 10.2648 33.763 7.24969 30.7503C4.237 27.7353 2.375 23.5861 2.375 19C2.375 14.4139 4.237 10.2648 7.24969 7.24969C10.2648 4.237 14.4139 2.375 19 2.375C19.2138 2.375 19.4227 2.39756 19.6353 2.40706C19.2387 3.09819 19.0012 3.89381 19 4.75C19.0024 6.52294 19.9856 8.04294 21.4189 8.854C21.3964 9.06537 21.375 9.27675 21.375 9.5C21.3774 13.4318 24.5682 16.6226 28.5 16.625C28.7232 16.625 28.9346 16.6036 29.146 16.5811C29.9571 18.0132 31.4759 18.9976 33.25 19C34.1062 18.9988 34.9018 18.7613 35.5929 18.3647C35.6024 18.5761 35.625 18.7862 35.625 19C35.625 23.5861 33.763 27.7353 30.7503 30.7503Z" fill="black"/>
<path d="M14.25 11.875C15.5617 11.875 16.625 10.8117 16.625 9.5C16.625 8.18832 15.5617 7.125 14.25 7.125C12.9383 7.125 11.875 8.18832 11.875 9.5C11.875 10.8117 12.9383 11.875 14.25 11.875Z" fill="black"/>
<path d="M9.5 21.375C10.8117 21.375 11.875 20.3117 11.875 19C11.875 17.6883 10.8117 16.625 9.5 16.625C8.18832 16.625 7.125 17.6883 7.125 19C7.125 20.3117 8.18832 21.375 9.5 21.375Z" fill="black"/>
<path d="M21.375 30.875C22.6867 30.875 23.75 29.8117 23.75 28.5C23.75 27.1883 22.6867 26.125 21.375 26.125C20.0633 26.125 19 27.1883 19 28.5C19 29.8117 20.0633 30.875 21.375 30.875Z" fill="black"/>
<path d="M20.1875 21.375C20.8433 21.375 21.375 20.8433 21.375 20.1875C21.375 19.5317 20.8433 19 20.1875 19C19.5317 19 19 19.5317 19 20.1875C19 20.8433 19.5317 21.375 20.1875 21.375Z" fill="black"/>
<path d="M29.6875 26.125C30.3433 26.125 30.875 25.5933 30.875 24.9375C30.875 24.2817 30.3433 23.75 29.6875 23.75C29.0317 23.75 28.5 24.2817 28.5 24.9375C28.5 25.5933 29.0317 26.125 29.6875 26.125Z" fill="black"/>
<path d="M13.0625 28.5C13.7183 28.5 14.25 27.9683 14.25 27.3125C14.25 26.6567 13.7183 26.125 13.0625 26.125C12.4067 26.125 11.875 26.6567 11.875 27.3125C11.875 27.9683 12.4067 28.5 13.0625 28.5Z" fill="black"/>
</svg>
