<svg width="201" height="47" viewBox="0 0 201 47" fill="none" xmlns="http://www.w3.org/2000/svg">
<path fill-rule="evenodd" clip-rule="evenodd" d="M36.0499 1.03348C31.2054 1.31546 26.6331 3.36655 23.201 6.79732C19.7697 10.2292 17.7182 14.8017 17.4359 19.6466C17.1536 24.4914 18.6603 29.2712 21.6698 33.0784C24.6794 36.8856 28.9822 39.455 33.7613 40.2988C38.5404 41.1426 43.4629 40.202 47.5942 37.6556L57.0025 40.5991L54.0589 31.191C56.6048 27.0597 57.5449 22.1373 56.701 17.3585C55.857 12.5797 53.2877 8.27709 49.4808 5.26767C45.6739 2.25825 40.8944 0.751498 36.0499 1.03348Z" fill="#A2A5E5"/>
<rect x="9.69531" y="13.1008" width="27.5002" height="19.8001" fill="white"/>
<path d="M39.9109 7.08792L39.9108 7.08782C36.0108 3.18924 30.815 0.858478 25.3099 0.538046C19.8048 0.217613 14.3737 1.92982 10.0477 5.34959C5.72169 8.76936 2.80201 13.6586 1.84298 19.089C0.897217 24.4443 1.92311 29.9582 4.72613 34.6122L1.52318 44.8495L1.23792 45.7613L2.14967 45.476L12.3871 42.273C17.0411 45.0767 22.5552 46.1031 27.9107 45.1575C33.3414 44.1986 38.231 41.2788 41.6509 36.9525C45.0708 32.6262 46.7829 27.1947 46.4622 21.6892C46.1414 16.1838 43.8101 10.9878 39.9109 7.08792ZM35.9121 16.7796L35.9124 16.7798C35.9178 16.7834 35.9222 16.7882 35.9252 16.794C35.9283 16.7997 35.9299 16.806 35.9299 16.8125V29.1846V29.1848C35.9299 29.1911 35.9283 29.1973 35.9253 29.2029C35.9224 29.2085 35.918 29.2133 35.9128 29.2168C35.9075 29.2204 35.9015 29.2225 35.8952 29.2232C35.8889 29.2238 35.8825 29.2229 35.8767 29.2205L35.8761 29.2203L29.6899 26.6905L29.0115 26.413L29.0007 27.1459L28.9721 29.0887C28.96 29.9097 28.3462 30.5882 27.5934 30.5882H13.4516C12.6898 30.5882 12.0713 29.8937 12.0713 29.0623V16.9339C12.0713 16.1027 12.6896 15.4085 13.4516 15.4085H27.5933C28.3459 15.4085 28.9599 16.0875 28.972 16.9084L28.972 16.9084L29.0007 18.8516L29.0115 19.5846L29.69 19.307L35.8762 16.7759C35.8763 16.7759 35.8764 16.7758 35.8764 16.7758C35.8822 16.7735 35.8884 16.7726 35.8946 16.7732C35.9009 16.7739 35.9069 16.7761 35.9121 16.7796Z" fill="#494FC9" stroke="white"/>
<path d="M74.9511 31.7669C73.2656 31.7669 71.8103 31.4001 70.5852 30.6666C69.368 29.9331 68.4277 28.907 67.7644 27.5883C67.109 26.2696 66.7812 24.7363 66.7812 22.9884C66.7812 21.2405 67.109 19.7072 67.7644 18.3885C68.4277 17.0698 69.368 16.0437 70.5852 15.3102C71.8103 14.5767 73.2656 14.21 74.9511 14.21C76.8862 14.21 78.5093 14.6898 79.8202 15.6496C81.1389 16.6094 82.0675 17.9086 82.6059 19.5473L79.3988 20.4368C79.0867 19.4146 78.56 18.6226 77.8187 18.0608C77.0774 17.4912 76.1215 17.2063 74.9511 17.2063C73.882 17.2063 72.9886 17.4443 72.2707 17.9203C71.5606 18.3963 71.0261 19.0674 70.6672 19.9335C70.3082 20.7997 70.1288 21.818 70.1288 22.9884C70.1288 24.1589 70.3082 25.1772 70.6672 26.0433C71.0261 26.9095 71.5606 27.5805 72.2707 28.0565C72.9886 28.5325 73.882 28.7705 74.9511 28.7705C76.1215 28.7705 77.0774 28.4857 77.8187 27.9161C78.56 27.3464 79.0867 26.5544 79.3988 25.54L82.6059 26.4296C82.0675 28.0682 81.1389 29.3674 79.8202 30.3272C78.5093 31.287 76.8862 31.7669 74.9511 31.7669Z" fill="#494FC9"/>
<path d="M89.8883 31.7903C88.8973 31.7903 88.0897 31.6225 87.4655 31.287C86.8412 30.9514 86.3535 30.5262 86.0024 30.0112C85.6591 29.4962 85.4133 28.9617 85.265 28.4076C85.1168 27.8458 85.027 27.3347 84.9958 26.8743C84.9646 26.414 84.949 26.0784 84.949 25.8677V18.7748H88.1795V24.7441C88.1795 25.0328 88.1951 25.4035 88.2263 25.856C88.2575 26.3008 88.355 26.7495 88.5189 27.2021C88.6828 27.6546 88.9481 28.0331 89.3148 28.3374C89.6894 28.6417 90.2161 28.7939 90.8949 28.7939C91.168 28.7939 91.4607 28.751 91.7728 28.6651C92.0849 28.5793 92.3775 28.4154 92.6506 28.1736C92.9237 27.9239 93.1461 27.561 93.3178 27.085C93.4973 26.6012 93.587 25.9692 93.587 25.1889L95.4129 26.055C95.4129 27.0538 95.21 27.9902 94.8043 28.8641C94.3985 29.7381 93.786 30.4442 92.9666 30.9827C92.1551 31.5211 91.129 31.7903 89.8883 31.7903ZM93.9849 31.4157V27.2255H93.587V18.7748H96.794V31.4157H93.9849Z" fill="#494FC9"/>
<path d="M100.065 31.4157V18.7748H102.874V21.8648L102.57 21.4668C102.734 21.0298 102.952 20.6319 103.226 20.2729C103.499 19.914 103.834 19.6175 104.232 19.3834C104.536 19.1961 104.868 19.0518 105.227 18.9503C105.586 18.8411 105.957 18.7748 106.339 18.7513C106.721 18.7201 107.104 18.7279 107.486 18.7748V21.7477C107.135 21.6385 106.725 21.6034 106.257 21.6424C105.797 21.6736 105.379 21.7789 105.005 21.9584C104.63 22.1301 104.314 22.3603 104.057 22.649C103.799 22.9299 103.604 23.2654 103.471 23.6556C103.339 24.0379 103.272 24.471 103.272 24.9548V31.4157H100.065Z" fill="#494FC9"/>
<path d="M112.972 31.7669C112.067 31.7669 111.299 31.5952 110.667 31.2519C110.042 30.9007 109.566 30.4364 109.239 29.859C108.919 29.2738 108.759 28.63 108.759 27.9278C108.759 27.3425 108.848 26.808 109.028 26.3242C109.207 25.8404 109.496 25.4152 109.894 25.0484C110.3 24.6739 110.842 24.3618 111.521 24.1121C111.989 23.9404 112.547 23.7882 113.195 23.6556C113.842 23.5229 114.576 23.3981 115.395 23.281C116.215 23.1562 117.116 23.0196 118.099 22.8714L116.952 23.5034C116.952 22.7543 116.772 22.2042 116.414 21.8531C116.055 21.5019 115.454 21.3264 114.611 21.3264C114.143 21.3264 113.655 21.4395 113.148 21.6658C112.641 21.8921 112.286 22.2939 112.083 22.8714L109.203 21.9584C109.523 20.9128 110.124 20.0623 111.006 19.4068C111.888 18.7513 113.089 18.4236 114.611 18.4236C115.727 18.4236 116.718 18.5953 117.584 18.9386C118.45 19.282 119.106 19.875 119.55 20.7177C119.8 21.1859 119.948 21.6541 119.995 22.1223C120.042 22.5905 120.065 23.1133 120.065 23.6907V31.4157H117.28V28.8173L117.678 29.3557C117.061 30.2063 116.394 30.8227 115.676 31.205C114.966 31.5796 114.065 31.7669 112.972 31.7669ZM113.651 29.2621C114.236 29.2621 114.728 29.1606 115.126 28.9578C115.532 28.7471 115.852 28.5091 116.086 28.2438C116.328 27.9785 116.492 27.7561 116.577 27.5766C116.741 27.2333 116.835 26.8353 116.858 26.3827C116.89 25.9224 116.905 25.54 116.905 25.2357L117.841 25.4698C116.897 25.6259 116.133 25.7585 115.547 25.8677C114.962 25.9692 114.49 26.0628 114.131 26.1487C113.772 26.2345 113.456 26.3281 113.183 26.4296C112.871 26.5544 112.617 26.691 112.422 26.8392C112.235 26.9797 112.095 27.1357 112.001 27.3074C111.915 27.4791 111.872 27.6703 111.872 27.8809C111.872 28.1697 111.942 28.4193 112.083 28.63C112.231 28.8329 112.438 28.989 112.703 29.0982C112.968 29.2075 113.284 29.2621 113.651 29.2621Z" fill="#494FC9"/>
<path d="M138.325 31.4157V23.9482C138.325 23.1133 138.126 22.4656 137.728 22.0052C137.338 21.537 136.795 21.3029 136.101 21.3029C135.656 21.3029 135.27 21.4083 134.942 21.619C134.614 21.8219 134.357 22.1106 134.17 22.4851C133.99 22.8519 133.9 23.2771 133.9 23.7609L132.566 22.8714C132.566 22.0052 132.769 21.2405 133.175 20.5773C133.588 19.914 134.138 19.399 134.825 19.0323C135.52 18.6577 136.288 18.4704 137.131 18.4704C138.574 18.4704 139.663 18.8996 140.396 19.7579C141.138 20.6085 141.508 21.7243 141.508 23.1055V31.4157H138.325ZM123.085 31.4157V18.7748H125.894V22.965H126.292V31.4157H123.085ZM130.717 31.4157V23.9482C130.717 23.1133 130.518 22.4656 130.12 22.0052C129.73 21.537 129.187 21.3029 128.493 21.3029C127.83 21.3029 127.295 21.5331 126.889 21.9935C126.491 22.4461 126.292 23.0352 126.292 23.7609L124.958 22.8245C124.958 21.9974 125.165 21.2561 125.578 20.6007C125.992 19.9452 126.546 19.4263 127.24 19.044C127.943 18.6616 128.727 18.4704 129.593 18.4704C130.584 18.4704 131.396 18.6811 132.028 19.1025C132.667 19.5239 133.14 20.0857 133.444 20.7879C133.748 21.4902 133.9 22.2627 133.9 23.1055V31.4157H130.717Z" fill="#494FC9"/>
<path d="M147.363 31.0646V14.21H148.616L155.521 29.1216L162.357 14.21H163.656V31.0412H162.333V17.3117L156.06 31.0646H154.96L148.674 17.3117V31.0646H147.363Z" fill="black"/>
<path d="M172.14 31.4157C170.931 31.4157 169.885 31.1465 169.004 30.6081C168.122 30.0619 167.439 29.2933 166.955 28.3023C166.472 27.3035 166.23 26.1252 166.23 24.7675C166.23 23.3864 166.468 22.1964 166.944 21.1976C167.427 20.191 168.106 19.4185 168.98 18.8801C169.862 18.3417 170.908 18.0725 172.117 18.0725C173.342 18.0725 174.388 18.3534 175.254 18.9152C176.128 19.4692 176.791 20.2729 177.244 21.3264C177.704 22.3798 177.923 23.6478 177.899 25.1304H176.495V24.6622C176.456 22.9299 176.065 21.6112 175.324 20.706C174.583 19.8009 173.522 19.3483 172.14 19.3483C170.712 19.3483 169.608 19.8204 168.828 20.7645C168.056 21.7009 167.669 23.0274 167.669 24.7441C167.669 26.4452 168.056 27.7639 168.828 28.7003C169.608 29.6366 170.705 30.1048 172.117 30.1048C173.092 30.1048 173.943 29.8785 174.669 29.4259C175.402 28.9656 175.983 28.3101 176.413 27.4596L177.63 27.998C177.123 29.0904 176.389 29.9331 175.429 30.5262C174.47 31.1192 173.373 31.4157 172.14 31.4157ZM167.154 25.1304V23.9131H177.138V25.1304H167.154Z" fill="black"/>
<path d="M185.697 31.4157C184.487 31.4157 183.442 31.1465 182.56 30.6081C181.678 30.0619 180.995 29.2933 180.512 28.3023C180.028 27.3035 179.786 26.1252 179.786 24.7675C179.786 23.3864 180.024 22.1964 180.5 21.1976C180.984 20.191 181.663 19.4185 182.537 18.8801C183.418 18.3417 184.464 18.0725 185.673 18.0725C186.898 18.0725 187.944 18.3534 188.81 18.9152C189.684 19.4692 190.347 20.2729 190.8 21.3264C191.26 22.3798 191.479 23.6478 191.455 25.1304H190.051V24.6622C190.012 22.9299 189.622 21.6112 188.88 20.706C188.139 19.8009 187.078 19.3483 185.697 19.3483C184.269 19.3483 183.165 19.8204 182.384 20.7645C181.612 21.7009 181.226 23.0274 181.226 24.7441C181.226 26.4452 181.612 27.7639 182.384 28.7003C183.165 29.6366 184.261 30.1048 185.673 30.1048C186.649 30.1048 187.499 29.8785 188.225 29.4259C188.958 28.9656 189.54 28.3101 189.969 27.4596L191.186 27.998C190.679 29.0904 189.946 29.9331 188.986 30.5262C188.026 31.1192 186.93 31.4157 185.697 31.4157ZM180.711 25.1304V23.9131H190.695V25.1304H180.711Z" fill="black"/>
<path d="M200.751 31.0646C200.08 31.2128 199.417 31.2675 198.761 31.2285C198.106 31.1972 197.521 31.0529 197.006 30.7954C196.499 30.5301 196.116 30.1243 195.859 29.5781C195.648 29.1333 195.531 28.6847 195.508 28.2321C195.484 27.7795 195.472 27.2606 195.472 26.6754V14.9122H196.83V26.652C196.83 27.1826 196.834 27.6234 196.842 27.9746C196.858 28.3179 196.939 28.6339 197.088 28.9226C197.369 29.4611 197.813 29.7888 198.422 29.9058C199.031 30.0151 199.807 29.9956 200.751 29.8473V31.0646ZM192.64 19.6526V18.4236H200.751V19.6526H192.64Z" fill="black"/>
</svg>
