<svg width="25" height="25" viewBox="0 0 25 25" fill="none" xmlns="http://www.w3.org/2000/svg">
<path d="M12.499 13.4297C14.2912 13.4297 15.7441 11.9758 15.7441 10.1824C15.7441 8.38893 14.2912 6.93506 12.499 6.93506C10.7068 6.93506 9.25391 8.38893 9.25391 10.1824C9.25391 11.9758 10.7068 13.4297 12.499 13.4297Z" stroke="white" stroke-width="1.7" stroke-linecap="round" stroke-linejoin="round"/>
<path d="M17.797 17.5767C17.5136 16.4336 16.8678 15.4104 15.9533 14.6624C14.9782 13.8649 13.7575 13.4292 12.4981 13.4292C11.2388 13.4292 10.0181 13.8649 9.043 14.6624C8.12846 15.4104 7.48267 16.4336 7.19922 17.5767C7.47315 17.6682 7.75919 17.7319 8.05396 17.7649C9.4999 17.9262 10.9845 18.0647 12.4982 18.0647C14.0118 18.0647 15.4965 17.9262 16.9424 17.7649C17.2371 17.7319 17.5231 17.6682 17.797 17.5767Z" stroke="white" stroke-width="1.7" stroke-linecap="round" stroke-linejoin="round"/>
<path d="M16.8906 3.64575C17.4323 3.70415 17.9691 3.76674 18.5007 3.82839C19.9022 3.99093 21.0206 5.10931 21.1781 6.51241C21.2374 7.04089 21.2971 7.57462 21.3526 8.11319" stroke="white" stroke-width="1.7" stroke-linecap="round"/>
<path d="M16.8906 21.3538C17.4323 21.2953 17.9691 21.2327 18.5007 21.171C19.9022 21.0085 21.0206 19.8901 21.1781 18.487C21.2374 17.9586 21.2971 17.4249 21.3526 16.8862" stroke="white" stroke-width="1.7" stroke-linecap="round"/>
<path d="M8.10659 3.64575C7.56488 3.70415 7.02804 3.76674 6.49649 3.82839C5.09492 3.99093 3.97659 5.10931 3.81917 6.51241C3.75988 7.04089 3.7001 7.57462 3.64453 8.11319" stroke="white" stroke-width="1.7" stroke-linecap="round"/>
<path d="M8.10659 21.3538C7.56488 21.2953 7.02804 21.2327 6.49649 21.171C5.09492 21.0085 3.97659 19.8901 3.81917 18.487C3.75988 17.9586 3.7001 17.4249 3.64453 16.8862" stroke="white" stroke-width="1.7" stroke-linecap="round"/>
</svg>
