<svg width="24" height="24" viewBox="0 0 24 24" fill="none" xmlns="http://www.w3.org/2000/svg">
<path d="M19.7591 6.06299H4.53755C3.1361 6.06299 2 7.19909 2 8.60053V17.4795C2 18.8809 3.1361 20.017 4.53755 20.017H19.7591C21.1606 20.017 22.2967 18.8809 22.2967 17.4795V8.60053C22.2967 7.19909 21.1606 6.06299 19.7591 6.06299Z" stroke="white" stroke-width="1.7" stroke-linecap="round" stroke-linejoin="round"/>
<path d="M2 11.1367H10.8121" stroke="white" stroke-width="1.34" stroke-linecap="round" stroke-linejoin="round"/>
<path d="M13.4844 11.1367H22.2965" stroke="white" stroke-width="1.34" stroke-linecap="round" stroke-linejoin="round"/>
<path d="M15.9552 6.06299H8.34375L8.80175 3.85595C8.88384 3.59364 9.05207 3.36673 9.27919 3.21194C9.50631 3.05716 9.77903 2.98357 10.0532 3.00308H14.2457C14.5199 2.98357 14.7926 3.05716 15.0197 3.21194C15.2468 3.36673 15.4151 3.59364 15.4972 3.85595L15.9552 6.06299Z" stroke="white" stroke-width="1.7" stroke-linecap="round" stroke-linejoin="round"/>
<path d="M12.8512 9.86816H11.4463C11.0962 9.86816 10.8125 10.1519 10.8125 10.5019V13.0395C10.8125 13.3895 11.0962 13.6732 11.4463 13.6732H12.8512C13.2012 13.6732 13.485 13.3895 13.485 13.0395V10.5019C13.485 10.1519 13.2012 9.86816 12.8512 9.86816Z" stroke="white" stroke-width="1.7" stroke-linecap="round" stroke-linejoin="round"/>
</svg>
