<svg width="68" height="69" viewBox="0 0 68 69" fill="none" xmlns="http://www.w3.org/2000/svg">
<rect y="0.5" width="68" height="68" rx="34" fill="#BF8DFF"/>
<path d="M25.343 47.5V43.369H25.547C26.2383 43.369 26.8333 43.114 27.332 42.604C27.8307 42.0827 28.08 41.482 28.08 40.802V29.089C28.08 27.8423 28.3917 26.7203 29.015 25.723C29.6497 24.7257 30.4997 23.9437 31.565 23.377C32.6303 22.799 33.8147 22.51 35.118 22.51C36.3193 22.51 37.362 22.782 38.246 23.326C39.13 23.87 39.8837 24.6123 40.507 25.553C41.1303 26.4937 41.6517 27.559 42.071 28.749L38.11 30.041C37.8153 29.0097 37.4357 28.1937 36.971 27.593C36.5063 26.981 35.8887 26.675 35.118 26.675C34.3587 26.675 33.7467 26.9243 33.282 27.423C32.8173 27.9103 32.585 28.5393 32.585 29.31L32.551 43.369H40.337V47.5H25.343ZM25.343 37.317V33.169H37.515V37.317H25.343Z" fill="white"/>
</svg>
