<svg width="28" height="25" viewBox="0 0 28 25" fill="none" xmlns="http://www.w3.org/2000/svg">
<path d="M28 0.240537L27.3148 5.3793C25.8836 5.25472 24.7265 5.50387 23.8434 6.12675C22.9603 6.71849 22.3513 7.57495 22.0163 8.69613C21.6814 9.81731 21.6204 11.1098 21.8336 12.5736H28V25H16.0326V12.3867C16.0326 8.05768 17.0223 4.78756 19.0016 2.57634C20.981 0.333971 23.9804 -0.444629 28 0.240537ZM11.9674 0.240537L11.2822 5.3793C9.82055 5.25472 8.64818 5.50387 7.76509 6.12675C6.91245 6.71849 6.31865 7.57495 5.98369 8.69613C5.64872 9.81731 5.58782 11.1098 5.80098 12.5736H11.9674V25H0V12.3867C0 8.05768 0.989668 4.78756 2.969 2.57634C4.94834 0.333971 7.9478 -0.444629 11.9674 0.240537Z" fill="black" fill-opacity="0.15"/>
</svg>
