<svg width="182" height="59" viewBox="0 0 182 59" fill="none" xmlns="http://www.w3.org/2000/svg">
<g clip-path="url(#clip0_4571_47012)">
<path d="M176.661 34.4586V21.1237C176.74 19.8635 176.351 18.6186 175.568 17.6294C175.204 17.2092 174.749 16.8773 174.238 16.6589C173.727 16.4404 173.174 16.3411 172.619 16.3684C171.886 16.3546 171.164 16.5481 170.536 16.9267C169.931 17.2997 169.445 17.8375 169.133 18.4773C168.775 19.2174 168.599 20.0326 168.618 20.855L166.328 19.387C166.278 17.9968 166.621 16.6208 167.317 15.4174C168.014 14.2141 169.035 13.2323 170.263 12.5852C171.512 11.9173 172.909 11.576 174.325 11.5929C176.841 11.5929 178.745 12.344 180.037 13.8463C181.398 15.4902 182.096 17.5845 181.996 19.7183V34.4578L176.661 34.4586ZM149.832 34.4586V12.1259H154.554V19.3416H155.214V34.4534L149.832 34.4586ZM163.257 34.4586L163.277 21.1438C163.354 19.8778 162.965 18.6274 162.184 17.6294C161.82 17.2092 161.365 16.8773 160.854 16.6589C160.344 16.4404 159.79 16.3411 159.235 16.3684C158.686 16.3475 158.139 16.4478 157.633 16.6621C157.127 16.8764 156.674 17.1995 156.307 17.6086C155.55 18.5152 155.16 19.6733 155.214 20.8543L152.925 19.2619C152.904 17.8771 153.275 16.5148 153.997 15.3336C154.718 14.1828 155.728 13.2418 156.925 12.6046C158.191 11.9185 159.611 11.5697 161.05 11.5914C162.542 11.5311 164.02 11.9122 165.298 12.6872C166.404 13.3931 167.274 14.4159 167.793 15.6232C168.358 16.9201 168.639 18.3229 168.618 19.7376V34.4586H163.257Z" fill="black"/>
<path d="M133.395 35.0796C131.979 35.1241 130.575 34.8113 129.311 34.1699C128.262 33.599 127.391 32.7473 126.796 31.7096C126.23 30.6699 125.939 29.5028 125.95 28.3187C125.936 27.3384 126.104 26.364 126.445 25.4452C126.782 24.5806 127.328 23.8132 128.034 23.212C128.879 22.4977 129.851 21.9505 130.9 21.5996C131.882 21.2621 132.889 20.9996 133.91 20.8142C135.079 20.5799 136.378 20.3593 137.808 20.1524C139.251 19.932 140.798 19.6978 142.448 19.4497L140.53 20.5246C140.577 19.9678 140.514 19.407 140.344 18.8747C140.174 18.3425 139.901 17.8492 139.54 17.4233C138.88 16.7479 137.774 16.4102 136.22 16.4102C135.277 16.4216 134.348 16.6404 133.498 17.0511C133.042 17.2716 132.637 17.5863 132.31 17.9747C131.983 18.363 131.741 18.8161 131.601 19.3045L126.734 17.7539C127.265 15.9398 128.382 14.3542 129.91 13.2464C131.463 12.0886 133.567 11.5096 136.221 11.5096C138.011 11.475 139.79 11.7911 141.459 12.4402C142.948 13.0388 144.166 14.1643 144.882 15.6032C145.293 16.3661 145.552 17.2017 145.646 18.0635C145.733 18.9706 145.774 19.8814 145.77 20.7926V34.4587H141.068V29.7689L141.79 30.6577C140.897 32.045 139.689 33.2 138.264 34.0277C136.754 34.7796 135.08 35.1411 133.395 35.0796ZM134.509 30.8408C135.447 30.8693 136.379 30.6781 137.231 30.2825C137.902 29.9513 138.503 29.4953 139.004 28.9388C139.375 28.5377 139.674 28.0763 139.891 27.5743C140.179 26.893 140.34 26.1642 140.365 25.4244C140.42 24.611 140.447 23.9425 140.447 23.4189L142.056 23.8529C140.447 24.115 139.12 24.3356 138.076 24.5147C137.031 24.6939 136.165 24.8594 135.477 25.0112C134.862 25.142 134.256 25.3144 133.663 25.5271C133.169 25.7116 132.698 25.9545 132.261 26.2507C131.93 26.4831 131.655 26.7868 131.456 27.1396C131.273 27.4751 131.181 27.8529 131.188 28.2353C131.18 28.7266 131.318 29.2092 131.584 29.6215C131.869 30.0264 132.262 30.3419 132.719 30.5311C133.289 30.7511 133.898 30.8563 134.509 30.8408Z" fill="black"/>
<path d="M112.109 34.4587V12.126H116.832V17.5841L116.296 16.8814C116.571 16.134 116.953 15.4307 117.43 14.7933C117.901 14.1682 118.49 13.6414 119.162 13.2426C119.713 12.8916 120.31 12.6202 120.936 12.4364C121.585 12.2292 122.257 12.1041 122.937 12.0642C123.617 12.0088 124.302 12.0295 124.978 12.126V17.1293C124.254 16.9293 123.499 16.8661 122.751 16.9432C121.969 17.0003 121.205 17.211 120.503 17.5633C119.861 17.883 119.292 18.3335 118.833 18.8861C118.382 19.4294 118.039 20.054 117.822 20.7263C117.595 21.4837 117.483 22.2714 117.493 23.0623V34.452L112.109 34.4587Z" fill="black"/>
<path d="M95.6021 35.0996C94.1592 35.1551 92.724 34.8644 91.4158 34.2517C90.3984 33.7317 89.5158 32.9813 88.8378 32.0601C88.2385 31.205 87.7856 30.2558 87.4976 29.2514C87.2405 28.3671 87.0679 27.4603 86.9823 26.5432C86.916 25.7005 86.8828 25.0647 86.8828 24.6359V12.1296H92.3031V22.757C92.3031 23.3357 92.3375 24.0387 92.4063 24.866C92.4925 25.6941 92.6867 26.5072 92.984 27.2846C93.2894 28.0694 93.8029 28.7557 94.469 29.2692C95.2834 29.8352 96.2633 30.1117 97.2526 30.0546C97.825 30.0514 98.394 29.9679 98.9433 29.8067C99.5389 29.6168 100.083 29.2911 100.532 28.8553C101.081 28.2974 101.491 27.6167 101.727 26.8692C102.061 25.7851 102.214 24.6533 102.181 23.5193L105.297 24.9486C105.313 26.692 104.939 28.4168 104.202 29.9958C103.502 31.5227 102.378 32.8149 100.964 33.7179C99.3485 34.6903 97.4854 35.1704 95.6021 35.0996ZM102.84 34.4586V27.2414H102.178V12.1296H107.584V34.4623L102.84 34.4586Z" fill="black"/>
<path d="M70.5576 35.0788C67.8709 35.152 65.2163 34.4796 62.8868 33.1358C60.7448 31.845 59.0241 29.9567 57.935 27.7016C56.7489 25.1599 56.1645 22.3779 56.2272 19.5725C56.165 16.7683 56.7495 13.9876 57.935 11.4471C59.0235 9.19223 60.7434 7.30395 62.8845 6.01279C65.2144 4.66729 67.8698 3.9936 70.5576 4.06612C73.6136 3.95776 76.6206 4.85849 79.1164 6.62992C81.44 8.34432 83.1475 10.7669 83.9836 13.5352L78.5766 15.024C78.1212 13.3064 77.1226 11.7831 75.7306 10.6826C74.2295 9.59657 72.4069 9.05022 70.5576 9.13192C68.8483 9.06849 67.1596 9.52243 65.7112 10.4347C64.4031 11.3259 63.3963 12.595 62.8244 14.0734C62.1429 15.8247 61.8136 17.6938 61.8554 19.5732C61.8149 21.4601 62.1444 23.3365 62.8251 25.0961C63.4047 26.5701 64.4099 27.8371 65.712 28.7348C67.1653 29.6326 68.8517 30.0778 70.5576 30.0137C72.4079 30.0961 74.2317 29.5497 75.7336 28.4631C77.1189 27.3567 78.1151 25.8352 78.5766 24.1209L83.9799 25.6097C83.1401 28.3811 81.4338 30.8083 79.1127 32.5329C76.6131 34.2919 73.6096 35.1857 70.5576 35.0788Z" fill="black"/>
<path d="M175.287 55.3575C174.56 55.376 173.843 55.1922 173.215 54.8267C172.631 54.4685 172.161 53.9504 171.861 53.3334C171.525 52.6289 171.359 51.8549 171.377 51.0741C171.357 50.2745 171.52 49.481 171.853 48.7545C172.144 48.1324 172.608 47.6082 173.19 47.2455C173.811 46.8809 174.521 46.6971 175.24 46.7147C175.968 46.6932 176.686 46.8885 177.303 47.276C177.887 47.6616 178.338 48.2174 178.597 48.8684C178.905 49.6566 179.042 50.5018 178.997 51.3473H177.862V50.9527C177.906 50.0974 177.664 49.2521 177.175 48.5497C176.943 48.2747 176.649 48.0581 176.318 47.9172C175.987 47.7763 175.628 47.715 175.27 47.7383C174.89 47.7153 174.51 47.7807 174.16 47.9293C173.809 48.078 173.498 48.3059 173.25 48.5952C172.744 49.304 172.498 50.1664 172.554 51.0361C172.502 51.8937 172.748 52.743 173.25 53.4391C173.494 53.7244 173.801 53.9494 174.146 54.0967C174.491 54.244 174.865 54.3096 175.239 54.2885C175.776 54.3011 176.305 54.1618 176.766 53.8865C177.216 53.6015 177.575 53.194 177.802 52.7118L178.841 53.1138C178.542 53.7989 178.044 54.3776 177.411 54.7739C176.773 55.1669 176.036 55.3693 175.287 55.3575ZM172.163 51.3473V50.4182H178.4V51.351L172.163 51.3473Z" fill="black"/>
<path d="M166.984 55.1334V46.9447H167.982V48.9175L167.786 48.6599C167.873 48.4216 167.993 48.1962 168.14 47.9899C168.273 47.7977 168.434 47.6265 168.617 47.4822C168.834 47.2926 169.086 47.1484 169.36 47.0579C169.634 46.9584 169.922 46.8997 170.214 46.8837C170.477 46.8615 170.743 46.8819 171 46.944V47.9899C170.681 47.9129 170.35 47.895 170.025 47.9371C169.665 47.9803 169.326 48.1278 169.049 48.3614C168.785 48.5628 168.575 48.8258 168.437 49.1274C168.299 49.4252 168.207 49.7422 168.164 50.0676C168.119 50.3917 168.096 50.7185 168.095 51.0458V55.1334H166.984Z" fill="black"/>
<path d="M161.366 55.3576C160.83 55.3753 160.298 55.2608 159.816 55.0241C159.427 54.8253 159.104 54.5173 158.886 54.1375C158.68 53.7697 158.573 53.3542 158.577 52.9323C158.559 52.5528 158.642 52.1754 158.817 51.8385C158.993 51.5017 159.254 51.2174 159.574 51.0147C159.908 50.8036 160.272 50.6475 160.655 50.5524C161.069 50.4531 161.525 50.3648 162.024 50.2874C162.523 50.21 163.014 50.1417 163.498 50.0827C163.982 50.0221 164.405 49.9641 164.768 49.9085L164.375 50.1512C164.439 49.5152 164.272 48.8774 163.906 48.3541C163.681 48.1379 163.412 47.9736 163.117 47.8728C162.822 47.772 162.508 47.7371 162.198 47.7705C161.698 47.7542 161.203 47.886 160.777 48.1494C160.37 48.4356 160.082 48.862 159.968 49.3472L158.89 49.0301C159.046 48.3431 159.447 47.7368 160.017 47.3246C160.668 46.895 161.438 46.6827 162.216 46.7179C162.875 46.6975 163.527 46.8435 164.115 47.1422C164.62 47.3983 165.016 47.829 165.229 48.3549C165.333 48.6088 165.4 48.877 165.425 49.1506C165.456 49.4474 165.471 49.7456 165.471 50.044V55.1343H164.481V53.0797L164.768 53.2011C164.523 53.8635 164.069 54.4278 163.475 54.8083C162.839 55.1906 162.107 55.3813 161.366 55.3576ZM161.495 54.3951C161.964 54.4054 162.429 54.3094 162.856 54.1145C163.227 53.941 163.55 53.6778 163.794 53.3484C164.031 53.02 164.188 52.6412 164.254 52.2415C164.317 51.9576 164.35 51.668 164.353 51.3772C164.358 51.0586 164.36 50.8211 164.36 50.6648L164.783 50.8881C164.405 50.9378 163.994 50.9874 163.551 51.037C163.112 51.0876 162.678 51.1457 162.25 51.2112C161.863 51.2695 161.48 51.348 161.101 51.4464C160.866 51.5133 160.64 51.6075 160.428 51.7271C160.215 51.8395 160.031 52.0004 159.891 52.1968C159.749 52.415 159.678 52.6718 159.687 52.9323C159.687 53.1733 159.747 53.4103 159.861 53.6224C159.996 53.8583 160.195 54.0503 160.436 54.1755C160.766 54.3376 161.132 54.4141 161.499 54.3981L161.495 54.3951Z" fill="black"/>
<path d="M154.541 55.3574C153.807 55.381 153.081 55.1888 152.454 54.8043C151.883 54.4329 151.431 53.9037 151.153 53.2805C150.85 52.5717 150.695 51.808 150.699 51.0368C150.693 50.2588 150.852 49.4883 151.168 48.7775C151.446 48.1537 151.901 47.6262 152.477 47.2611C153.1 46.8824 153.82 46.6929 154.549 46.7154C155.311 46.6974 156.061 46.9087 156.702 47.3221C157.304 47.7096 157.751 48.2973 157.964 48.9822L156.876 49.3306C156.701 48.862 156.38 48.4628 155.96 48.1931C155.522 47.924 155.018 47.7822 154.504 47.7835C153.99 47.7848 153.486 47.9292 153.049 48.2006C152.648 48.484 152.342 48.8834 152.173 49.3455C151.971 49.886 151.87 50.459 151.876 51.0361C151.845 51.877 152.084 52.7057 152.556 53.4011C152.79 53.6994 153.092 53.936 153.437 54.0905C153.783 54.245 154.16 54.3127 154.537 54.2877C155.036 54.3032 155.528 54.1714 155.952 53.9088C156.357 53.6355 156.668 53.2438 156.843 52.7869L157.962 53.1204C157.698 53.7993 157.234 54.3811 156.631 54.788C156.005 55.1784 155.278 55.3763 154.541 55.3574Z" fill="black"/>
<path d="M143.33 58.9992C142.909 58.9988 142.491 58.9348 142.09 58.8094C141.684 58.6866 141.304 58.4887 140.971 58.2257C140.614 57.9464 140.321 57.5952 140.109 57.1947L141.113 56.6334C141.311 57.0585 141.647 57.4035 142.066 57.6116C142.458 57.8084 142.89 57.9121 143.328 57.9146C143.826 57.9372 144.32 57.8218 144.757 57.5811C145.127 57.361 145.41 57.019 145.558 56.6133C145.738 56.0975 145.82 55.5523 145.8 55.0061V52.8212H145.929V46.9455H146.919V55.0195C146.919 55.2518 146.912 55.4743 146.897 55.6895C146.887 55.9029 146.864 56.1155 146.828 56.326C146.76 56.8712 146.556 57.3904 146.234 57.8349C145.931 58.2335 145.522 58.5382 145.054 58.7141C144.502 58.9168 143.917 59.0136 143.33 58.9992ZM143.255 55.3604C142.562 55.3805 141.88 55.1816 141.305 54.7917C140.757 54.3972 140.328 53.8595 140.065 53.2374C139.768 52.5406 139.621 51.7891 139.633 51.0316C139.622 50.2775 139.766 49.5291 140.057 48.8333C140.318 48.214 140.745 47.679 141.29 47.2872C141.865 46.9172 142.534 46.7198 143.217 46.7185C143.901 46.7172 144.57 46.9119 145.147 47.2797C145.682 47.6674 146.094 48.2016 146.335 48.8185C146.617 49.5215 146.756 50.2744 146.743 51.0324C146.754 51.7867 146.618 52.5359 146.343 53.2381C146.102 53.8564 145.693 54.3948 145.163 54.7925C144.604 55.1826 143.934 55.3809 143.254 55.3575L143.255 55.3604ZM143.368 54.3183C143.881 54.3389 144.386 54.1897 144.805 53.8939C145.195 53.5959 145.489 53.1902 145.652 52.7267C145.847 52.1822 145.942 51.607 145.933 51.0286C145.944 50.4502 145.848 49.8747 145.652 49.3306C145.49 48.8685 145.196 48.4649 144.805 48.1708C144.393 47.8809 143.897 47.7345 143.394 47.7539C142.876 47.7337 142.366 47.8855 141.943 48.1857C141.55 48.486 141.253 48.8941 141.087 49.3604C140.722 50.4474 140.725 51.6251 141.095 52.7103C141.264 53.1747 141.56 53.5819 141.949 53.885C142.361 54.1852 142.86 54.3391 143.369 54.322L143.368 54.3183Z" fill="black"/>
<path d="M137.46 55.1341V50.9572C137.463 50.5368 137.42 50.1174 137.331 49.7066C137.257 49.3497 137.116 49.0102 136.916 48.7061C136.735 48.4216 136.481 48.1904 136.182 48.0361C135.844 47.8702 135.47 47.7894 135.093 47.8008C134.735 47.7939 134.38 47.8637 134.05 48.0056C133.755 48.1401 133.496 48.3426 133.294 48.5966C133.082 48.8715 132.925 49.1856 132.833 49.5212C132.722 49.926 132.669 50.3445 132.674 50.7644L131.888 50.5902C131.865 49.8603 132.015 49.1353 132.327 48.4753C132.593 47.933 133.013 47.4822 133.535 47.18C134.076 46.88 134.686 46.7282 135.304 46.74C135.741 46.7306 136.175 46.808 136.582 46.9678C136.931 47.1065 137.247 47.3155 137.512 47.582C137.769 47.8388 137.979 48.1389 138.132 48.4686C138.291 48.8035 138.405 49.1579 138.473 49.5227C138.543 49.8875 138.578 50.2581 138.579 50.6296V55.1327L137.46 55.1341ZM131.555 55.1341V46.9455H132.56V48.9666H132.674V55.1371L131.555 55.1341Z" fill="black"/>
<path d="M128.641 45.392V44.1414H129.754V45.392H128.641ZM128.641 55.1335V46.9449H129.754V55.1335H128.641Z" fill="black"/>
<path d="M125.856 55.1334L125.864 49.7587C125.88 49.4876 125.841 49.2161 125.75 48.9603C125.659 48.7045 125.518 48.4697 125.334 48.2698C125.163 48.0902 124.956 47.9488 124.727 47.8548C124.498 47.7608 124.251 47.7163 124.004 47.7242C123.692 47.7252 123.384 47.7978 123.104 47.9363C122.8 48.088 122.548 48.3253 122.378 48.619C122.176 48.9957 122.079 49.42 122.098 49.8473L121.44 49.6574C121.413 49.1232 121.53 48.5916 121.78 48.1187C122.017 47.6908 122.368 47.3375 122.793 47.0981C123.241 46.8465 123.747 46.718 124.261 46.7259C124.625 46.7092 124.988 46.7687 125.328 46.9006C125.668 47.0325 125.976 47.2338 126.234 47.4919C126.489 47.7672 126.685 48.0909 126.813 48.4438C126.941 48.7967 126.996 49.1717 126.977 49.5465L126.969 55.1334H125.856ZM116.109 55.1334V46.9448H117.107V48.9592H117.228V55.1297L116.109 55.1334ZM120.994 55.1334L121.002 49.8346C121.034 49.2735 120.848 48.7218 120.482 48.2959C120.303 48.1145 120.09 47.9708 119.855 47.8732C119.62 47.7755 119.368 47.726 119.114 47.7273C118.86 47.7287 118.608 47.7811 118.375 47.8812C118.141 47.9814 117.929 48.1275 117.753 48.3108C117.39 48.7385 117.204 49.2889 117.233 49.8495L116.565 49.4855C116.557 48.9902 116.685 48.5024 116.936 48.0755C117.178 47.6608 117.528 47.32 117.949 47.0899C118.396 46.8428 118.899 46.7173 119.408 46.7259C119.891 46.7166 120.367 46.8315 120.792 47.0594C121.2 47.2808 121.534 47.6173 121.752 48.0271C121.997 48.5048 122.116 49.0368 122.1 49.5733L122.092 55.1304L120.994 55.1334Z" fill="black"/>
<path d="M111.129 55.1334V46.9447H112.127V48.9175L111.93 48.6599C112.018 48.4215 112.138 48.1961 112.286 47.9899C112.418 47.7976 112.579 47.6264 112.762 47.4822C112.979 47.2925 113.232 47.1483 113.505 47.0579C113.78 46.9584 114.068 46.8997 114.36 46.8837C114.623 46.8615 114.889 46.8819 115.146 46.944V47.9899C114.827 47.9129 114.496 47.895 114.17 47.937C113.811 47.9801 113.472 48.1276 113.195 48.3614C112.931 48.5627 112.721 48.8257 112.582 49.1274C112.444 49.4252 112.353 49.7422 112.309 50.0676C112.264 50.3917 112.242 50.7185 112.241 51.0458V55.1334H111.129Z" fill="black"/>
<path d="M106.037 55.3576C105.305 55.3793 104.583 55.1871 103.958 54.8045C103.38 54.4317 102.92 53.9002 102.634 53.2733C102.316 52.5691 102.158 51.8026 102.173 51.0296C102.156 50.2505 102.316 49.4779 102.642 48.7702C102.931 48.1493 103.393 47.6254 103.972 47.2613C104.606 46.9022 105.321 46.714 106.049 46.7153C106.777 46.7166 107.491 46.9073 108.124 47.2687C108.705 47.6346 109.165 48.1648 109.447 48.7926C109.765 49.493 109.923 50.2562 109.908 51.0258C109.924 51.8064 109.767 52.5808 109.447 53.2926C109.159 53.9168 108.697 54.4437 108.116 54.809C107.489 55.1867 106.768 55.377 106.037 55.3576ZM106.037 54.2886C106.423 54.3165 106.809 54.2488 107.163 54.0914C107.516 53.9341 107.825 53.692 108.063 53.3864C108.534 52.6933 108.768 51.8664 108.732 51.0288C108.776 50.1874 108.539 49.3552 108.059 48.6638C107.818 48.3649 107.509 48.1288 107.157 47.9757C106.806 47.8226 106.422 47.757 106.04 47.7846C105.505 47.7633 104.977 47.9089 104.528 48.2015C104.125 48.4869 103.817 48.8867 103.643 49.3494C103.442 49.8872 103.345 50.4583 103.356 51.0325C103.314 51.8772 103.554 52.7118 104.037 53.405C104.275 53.7026 104.581 53.9385 104.929 54.0928C105.277 54.2471 105.657 54.3153 106.037 54.2916V54.2886Z" fill="black"/>
<path d="M98.8248 55.1335V46.3396C98.8248 46.1272 98.835 45.9176 98.8553 45.7106C98.8791 45.5085 98.9272 45.31 98.9986 45.1195C99.0726 44.9219 99.1857 44.7414 99.3312 44.5888C99.4812 44.4184 99.6671 44.2837 99.8755 44.1942C100.07 44.1088 100.277 44.0527 100.488 44.0275C100.699 44.0026 100.911 43.9899 101.123 43.9895H102.166V44.9297H101.201C100.855 44.9032 100.512 45.015 100.248 45.2409C100.135 45.3755 100.049 45.5311 99.9959 45.699C99.9426 45.8668 99.9229 46.0436 99.9378 46.219V55.1335H98.8248ZM97.4141 47.9014V46.9464H102.17V47.9014H97.4141Z" fill="black"/>
<path d="M93.5712 55.3531C92.7383 55.387 91.9142 55.1705 91.2049 54.7315C90.9074 54.537 90.6532 54.2832 90.458 53.9858C90.2628 53.6884 90.1308 53.3538 90.0703 53.003L91.2049 52.8132C91.3248 53.2784 91.6203 53.6788 92.029 53.9298C92.5137 54.2163 93.0698 54.3584 93.6321 54.3392C94.1495 54.3678 94.6627 54.2327 95.0993 53.9529C95.2705 53.8336 95.4092 53.6733 95.503 53.4867C95.5967 53.3 95.6425 53.0928 95.6361 52.8839C95.6464 52.6657 95.5854 52.45 95.4624 52.2697C95.2795 52.0589 95.0409 51.904 94.7741 51.8231C94.2628 51.6351 93.7424 51.4731 93.2148 51.3377C92.6186 51.1869 92.0367 50.9839 91.4759 50.731C91.123 50.5808 90.8158 50.3403 90.5849 50.0335C90.4016 49.7411 90.3096 49.4005 90.3205 49.0553C90.3124 48.6158 90.4509 48.1861 90.7141 47.8345C90.995 47.4664 91.3716 47.1831 91.8026 47.0156C92.3164 46.8083 92.8667 46.707 93.4205 46.7178C93.9846 46.7082 94.5449 46.8112 95.0689 47.0208C95.5258 47.1949 95.9315 47.4817 96.2487 47.8546C96.5447 48.2098 96.7289 48.645 96.7781 49.1052L95.6436 49.3099C95.6111 49.0801 95.5303 48.8599 95.4065 48.6638C95.2827 48.4677 95.1188 48.3002 94.9256 48.1724C94.4756 47.8737 93.9452 47.7202 93.4057 47.7325C92.9125 47.6969 92.4203 47.8133 91.9949 48.066C91.8292 48.1584 91.6913 48.2937 91.5956 48.4578C91.4999 48.6218 91.4498 48.8087 91.4506 48.9987C91.4462 49.2036 91.5161 49.403 91.6474 49.56C91.8487 49.7559 92.0916 49.9035 92.358 49.9918C92.8437 50.1701 93.3396 50.3192 93.843 50.4384C94.4516 50.5808 95.0443 50.784 95.6124 51.0452C95.9772 51.2085 96.2904 51.4687 96.5182 51.7978C96.7091 52.1207 96.8036 52.4916 96.7907 52.8668C96.8046 53.2184 96.7335 53.5682 96.5834 53.8863C96.4333 54.2044 96.2087 54.4813 95.9287 54.6936C95.2375 55.1694 94.4082 55.4014 93.5712 55.3531Z" fill="black"/>
<path d="M87.8973 55.1341V50.9572C87.901 50.5368 87.8579 50.1174 87.7689 49.7066C87.6946 49.3497 87.5535 49.0102 87.3531 48.7061C87.172 48.4215 86.9189 48.1903 86.6195 48.0361C86.2811 47.8702 85.9075 47.7894 85.531 47.8008C85.172 47.7944 84.8158 47.865 84.4863 48.0078C84.1914 48.1424 83.9324 48.3449 83.7304 48.5989C83.5177 48.8737 83.361 49.1879 83.2693 49.5234C83.158 49.9282 83.1045 50.3468 83.1104 50.7666L82.3241 50.5924C82.3008 49.8625 82.4512 49.1376 82.7629 48.4775C83.0289 47.9341 83.4502 47.4824 83.9732 47.18C84.5142 46.88 85.1245 46.7282 85.7426 46.74C86.1794 46.7306 86.6137 46.808 87.0204 46.9678C87.3692 47.1066 87.6859 47.3156 87.9508 47.582C88.2074 47.839 88.4173 48.1391 88.5708 48.4686C88.7291 48.8037 88.8435 49.158 88.9109 49.5227C88.9812 49.8875 89.0167 50.2581 89.017 50.6296V55.1327L87.8973 55.1341ZM81.9922 55.1341V46.9455H83.0013V48.9666H83.1149V55.1371L81.9922 55.1341Z" fill="black"/>
<path d="M76.3909 55.3576C75.8547 55.3754 75.3223 55.2608 74.8406 55.0241C74.4513 54.8252 74.1281 54.5172 73.9102 54.1375C73.7037 53.7698 73.5967 53.3543 73.5999 52.9323C73.5827 52.5528 73.666 52.1756 73.8413 51.8388C74.0165 51.502 74.2775 51.2177 74.5978 51.0147C74.9312 50.8036 75.2962 50.6475 75.6789 50.5524C76.0922 50.4531 76.5483 50.3648 77.0473 50.2874C77.5463 50.2099 78.0378 50.1417 78.5219 50.0826C79.006 50.0221 79.4295 49.964 79.7923 49.9085L79.3988 50.1511C79.4628 49.5152 79.2965 48.8773 78.9303 48.3541C78.7053 48.1379 78.4358 47.9736 78.1408 47.8728C77.8458 47.772 77.5324 47.737 77.2225 47.7705C76.7218 47.7543 76.2273 47.886 75.8006 48.1494C75.3938 48.4359 75.1058 48.862 74.9913 49.3472L73.911 49.03C74.0672 48.3434 74.4677 47.7374 75.0373 47.3253C75.6886 46.8958 76.4586 46.6835 77.2374 46.7186C77.8955 46.6983 78.5481 46.8442 79.1352 47.1429C79.6405 47.3988 80.0362 47.8297 80.249 48.3556C80.3539 48.6095 80.4202 48.8777 80.4458 49.1514C80.4761 49.4482 80.4913 49.7463 80.491 50.0447V55.1343H79.4983V53.0797L79.7857 53.201C79.5408 53.8636 79.0869 54.4279 78.493 54.8082C77.8591 55.1891 77.1296 55.3797 76.3909 55.3576ZM76.5194 54.3951C76.9884 54.4057 77.4536 54.3097 77.8804 54.1144C78.2517 53.9413 78.574 53.678 78.8182 53.3484C79.055 53.02 79.2128 52.6412 79.2793 52.2415C79.3421 51.9576 79.375 51.6679 79.3773 51.3772C79.3822 51.0586 79.3847 50.8211 79.3847 50.6648L79.8079 50.8881C79.4298 50.9377 79.0189 50.9874 78.5754 51.037C78.1319 51.0866 77.6982 51.1447 77.2745 51.2112C76.8876 51.2695 76.5039 51.348 76.1251 51.4464C75.8907 51.5133 75.6649 51.6075 75.4524 51.7271C75.2396 51.8398 75.0558 52.0006 74.9156 52.1968C74.7736 52.4151 74.7023 52.6719 74.7114 52.9323C74.712 53.1731 74.7717 53.4101 74.8851 53.6224C75.0197 53.8583 75.2192 54.0503 75.4598 54.1755C75.789 54.3369 76.1532 54.4134 76.5194 54.3981V54.3951Z" fill="black"/>
<path d="M69.3633 55.1334V46.9447H70.3634V48.9175L70.1667 48.6599C70.2545 48.4215 70.3742 48.1961 70.5223 47.9899C70.6548 47.7976 70.8155 47.6264 70.999 47.4822C71.2158 47.2925 71.4683 47.1483 71.7415 47.0579C72.0164 46.9584 72.3043 46.8997 72.5962 46.8837C72.8598 46.8615 73.1253 46.8819 73.3825 46.944V47.9899C73.0632 47.9129 72.7325 47.895 72.4068 47.937C72.0473 47.9801 71.7081 48.1276 71.4312 48.3614C71.1677 48.5627 70.9573 48.8257 70.8186 49.1274C70.681 49.4252 70.5891 49.7422 70.5461 50.0676C70.5009 50.3917 70.4781 50.7185 70.4778 51.0458V55.1334H69.3633Z" fill="black"/>
<path d="M64.4445 55.1335V45.2863H60.6406V44.2173H69.3591V45.2863H65.556V55.1335H64.4445Z" fill="black"/>
<path d="M26.2026 11.9993H25.0309C23.2024 11.9993 21.4489 12.7275 20.156 14.0237C18.8631 15.32 18.1367 17.0781 18.1367 18.9112V20.0859C18.1367 21.9191 18.8631 23.6772 20.156 24.9734C21.4489 26.2697 23.2024 26.9979 25.0309 26.9979H26.2026C28.031 26.9979 29.7846 26.2697 31.0775 24.9734C32.3704 23.6772 33.0967 21.9191 33.0967 20.0859V18.9112C33.0967 17.0781 32.3704 15.32 31.0775 14.0237C29.7846 12.7275 28.031 11.9993 26.2026 11.9993Z" fill="#494FC9"/>
<path d="M25.6243 31.4981C23.6417 31.4989 21.6899 31.0059 19.9442 30.0635C18.1985 29.1211 16.7137 27.7588 15.6229 26.0988C14.5322 24.4389 13.8697 22.5334 13.695 20.5533C13.5203 18.5733 13.8389 16.5808 14.6221 14.7547C15.4052 12.9285 16.6285 11.326 18.1821 10.0911C19.7357 8.85607 21.5708 8.02726 23.5228 7.67906C25.4748 7.33085 27.4825 7.47417 29.3656 8.09612C31.2487 8.71807 32.9483 9.79919 34.3116 11.2424C34.8897 11.8491 35.6546 12.2432 36.4831 12.3612C37.3117 12.4793 38.1558 12.3143 38.8795 11.893C39.3678 11.6115 39.7862 11.2229 40.1034 10.7564C40.4206 10.2898 40.6285 9.75733 40.7114 9.19882C40.7943 8.6403 40.7502 8.07022 40.5822 7.53124C40.4143 6.99227 40.1269 6.49837 39.7416 6.08651C37.07 3.25747 33.6149 1.29503 29.8212 0.451906C26.0275 -0.391218 22.0689 -0.0764135 18.4552 1.35578C14.8415 2.78797 11.7382 5.27197 9.54489 8.48788C7.35159 11.7038 6.16875 15.5044 6.1487 19.4001C6.12864 23.2959 7.27229 27.1085 9.43237 30.347C11.5924 33.5854 14.67 36.1014 18.2688 37.5709C21.8675 39.0404 25.8227 39.3962 29.6249 38.5923C33.4271 37.7885 36.9022 35.8619 39.6027 33.0607C40.2956 32.3489 40.6781 31.3904 40.666 30.3959C40.654 29.4014 40.2484 28.4525 39.5385 27.7578C38.8286 27.0631 37.8725 26.6796 36.8806 26.6917C35.8886 26.7038 34.9421 27.1104 34.2493 27.8222C33.1339 28.9868 31.7949 29.913 30.313 30.545C28.8311 31.1771 27.2369 31.5018 25.6265 31.4996L25.6243 31.4981Z" fill="#494FC9"/>
<path d="M25.6172 50.999C30.412 51.0038 35.1441 49.9063 39.4497 47.7909C43.7554 45.6755 47.5199 42.5985 50.454 38.7964C50.7695 38.4092 51.0045 37.9627 51.1453 37.483C51.2862 37.0034 51.3299 36.5004 51.274 36.0036C51.2181 35.5068 51.0637 35.0262 50.8198 34.5901C50.576 34.1539 50.2476 33.7711 49.854 33.4641C49.4605 33.157 49.0096 32.932 48.5281 32.8022C48.0465 32.6724 47.5439 32.6404 47.0498 32.7082C46.5557 32.776 46.0802 32.9421 45.651 33.1968C45.2219 33.4515 44.848 33.7897 44.5511 34.1914C42.3151 37.0901 39.4466 39.4367 36.1655 41.0511C32.8844 42.6656 29.2781 43.5051 25.6231 43.5051C21.9682 43.5051 18.3619 42.6656 15.0808 41.0511C11.7997 39.4367 8.93116 37.0901 6.69519 34.1914C6.08072 33.4225 5.18914 32.9269 4.21317 32.8118C3.23719 32.6966 2.25521 32.9711 1.47947 33.576C0.703735 34.1808 0.196551 35.0674 0.0675436 36.0441C-0.0614639 37.0209 0.198068 38.0093 0.790044 38.7957C3.72315 42.5965 7.48613 45.6728 11.79 47.7883C16.0938 49.9037 20.824 51.0021 25.6172 50.999Z" fill="#494FC9"/>
</g>
<defs>
<clipPath id="clip0_4571_47012">
<rect width="182" height="59" fill="white"/>
</clipPath>
</defs>
</svg>
