<svg width="47" height="47" viewBox="0 0 47 47" fill="none" xmlns="http://www.w3.org/2000/svg">
<path d="M23.1 0C10.36 0 0 10.36 0 23.1C0 35.84 10.36 46.2 23.1 46.2C35.84 46.2 46.2 35.84 46.2 23.1C46.2 10.36 35.83 0 23.1 0ZM23.1 43.31C11.96 43.31 2.89 34.24 2.89 23.1C2.89 11.96 11.95 2.89 23.1 2.89C34.25 2.89 43.31 11.96 43.31 23.1C43.31 34.24 34.24 43.31 23.1 43.31ZM32.78 22.08C33.34 22.64 33.34 23.56 32.78 24.12L25.56 31.34C25.28 31.62 24.91 31.76 24.54 31.76C24.17 31.76 23.8 31.62 23.52 31.34C22.96 30.78 22.96 29.86 23.52 29.3L28.27 24.55H14.43C13.63 24.55 12.99 23.9 12.99 23.11C12.99 22.32 13.64 21.67 14.43 21.67H28.27L23.52 16.92C22.96 16.36 22.96 15.44 23.52 14.88C24.08 14.32 25 14.32 25.56 14.88L32.78 22.1V22.08Z" fill="#262B80"/>
</svg>
