<svg width="150" height="34" viewBox="0 0 150 34" fill="none" xmlns="http://www.w3.org/2000/svg">
<path d="M14.7664 5.28924C15.2293 3.86453 17.2449 3.86454 17.7078 5.28925L19.5354 10.9139C19.7424 11.5511 20.3362 11.9824 21.0061 11.9824H26.9202C28.4183 11.9824 29.0411 13.8994 27.8292 14.7799L23.0445 18.2561C22.5025 18.6499 22.2758 19.3479 22.4828 19.9851L24.3103 25.6097C24.7733 27.0344 23.1426 28.2192 21.9307 27.3386L17.1461 23.8624C16.6041 23.4686 15.8702 23.4686 15.3282 23.8624L10.5435 27.3386C9.3316 28.2192 7.70097 27.0344 8.16388 25.6097L9.99145 19.9851C10.1985 19.3479 9.97168 18.6499 9.42969 18.2561L4.64506 14.7799C3.43313 13.8994 4.05598 11.9824 5.55401 11.9824H11.4681C12.1381 11.9824 12.7318 11.5511 12.9388 10.9139L14.7664 5.28924Z" fill="#68E2D0"/>
<path d="M47.241 5.28926C47.7039 3.86455 49.7195 3.86455 50.1824 5.28926L52.01 10.9139C52.217 11.5511 52.8108 11.9825 53.4807 11.9825H59.3948C60.8929 11.9825 61.5157 13.8994 60.3038 14.7799L55.5191 18.2562C54.9772 18.6499 54.7504 19.3479 54.9574 19.9851L56.785 25.6097C57.2479 27.0345 55.6172 28.2192 54.4053 27.3387L49.6207 23.8624C49.0787 23.4686 48.3448 23.4686 47.8028 23.8624L43.0181 27.3387C41.8062 28.2192 40.1756 27.0344 40.6385 25.6097L42.4661 19.9851C42.6731 19.3479 42.4463 18.6499 41.9043 18.2561L37.1197 14.7799C35.9077 13.8994 36.5306 11.9825 38.0286 11.9825H43.9427C44.6127 11.9825 45.2064 11.5511 45.4135 10.9139L47.241 5.28926Z" fill="#68E2D0"/>
<path d="M79.7147 5.28926C80.1776 3.86455 82.1931 3.86455 82.6561 5.28926L84.4836 10.9139C84.6907 11.5511 85.2844 11.9825 85.9543 11.9825H91.8685C93.3665 11.9825 93.9893 13.8994 92.7774 14.7799L87.9928 18.2562C87.4508 18.6499 87.224 19.3479 87.431 19.9851L89.2586 25.6097C89.7215 27.0345 88.0909 28.2192 86.8789 27.3387L82.0943 23.8624C81.5523 23.4686 80.8184 23.4686 80.2764 23.8624L75.4918 27.3387C74.2798 28.2192 72.6492 27.0344 73.1121 25.6097L74.9397 19.9851C75.1467 19.3479 74.9199 18.6499 74.3779 18.2561L69.5933 14.7799C68.3814 13.8994 69.0042 11.9825 70.5022 11.9825H76.4164C77.0863 11.9825 77.6801 11.5511 77.8871 10.9139L79.7147 5.28926Z" fill="#68E2D0"/>
<path d="M112.189 5.28926C112.652 3.86455 114.668 3.86455 115.131 5.28926L116.958 10.9139C117.165 11.5511 117.759 11.9825 118.429 11.9825H124.343C125.841 11.9825 126.464 13.8994 125.252 14.7799L120.467 18.2562C119.925 18.6499 119.699 19.3479 119.906 19.9851L121.733 25.6097C122.196 27.0345 120.565 28.2192 119.354 27.3387L114.569 23.8624C114.027 23.4686 113.293 23.4686 112.751 23.8624L107.966 27.3387C106.754 28.2192 105.124 27.0344 105.587 25.6097L107.414 19.9851C107.621 19.3479 107.395 18.6499 106.853 18.2561L102.068 14.7799C100.856 13.8994 101.479 11.9825 102.977 11.9825H108.891C109.561 11.9825 110.155 11.5511 110.362 10.9139L112.189 5.28926Z" fill="#68E2D0"/>
<g clip-path="url(#clip0_9564_22837)">
<path d="M144.663 5.28926C145.126 3.86455 147.141 3.86455 147.604 5.28926L149.432 10.9139C149.639 11.5511 150.233 11.9825 150.903 11.9825H156.817C158.315 11.9825 158.938 13.8994 157.726 14.7799L152.941 18.2562C152.399 18.6499 152.172 19.3479 152.379 19.9851L154.207 25.6097C154.67 27.0345 153.039 28.2192 151.827 27.3387L147.043 23.8624C146.501 23.4686 145.767 23.4686 145.225 23.8624L140.44 27.3387C139.228 28.2192 137.597 27.0344 138.06 25.6097L139.888 19.9851C140.095 19.3479 139.868 18.6499 139.326 18.2561L134.542 14.7799C133.33 13.8994 133.952 11.9825 135.45 11.9825H141.365C142.035 11.9825 142.628 11.5511 142.835 10.9139L144.663 5.28926Z" fill="#68E2D0"/>
</g>
<defs>
<clipPath id="clip0_9564_22837">
<rect width="20.1031" height="32.4742" fill="white" transform="translate(129.896 0.762894)"/>
</clipPath>
</defs>
</svg>
