<svg width="442" height="580" viewBox="0 0 442 580" fill="none" xmlns="http://www.w3.org/2000/svg">
<g opacity="0.6">
<path d="M298.795 136.465H285.432C242.016 136.465 206.82 171.661 206.82 215.077V228.44C206.82 271.856 242.016 307.051 285.432 307.051H298.795C342.211 307.051 377.407 271.856 377.407 228.44V215.077C377.407 171.661 342.211 136.465 298.795 136.465Z" fill="#494FC9" fill-opacity="0.07"/>
<path d="M292.161 358.221C274.24 358.222 256.494 354.693 239.936 347.835C223.379 340.977 208.335 330.925 195.662 318.253C182.989 305.581 172.937 290.537 166.079 273.979C159.22 257.422 155.69 239.676 155.69 221.755C155.692 185.562 170.071 150.851 195.664 125.259C221.257 99.6664 255.968 85.2888 292.161 85.2886C310.694 85.2664 329.036 89.0303 346.063 96.3496C363.089 103.669 378.441 114.389 391.177 127.853C397.767 134.753 406.488 139.235 415.934 140.578C425.381 141.92 435.005 140.045 443.257 135.255H443.265C467.04 121.531 471.985 89.1123 453.096 69.1926C432.398 47.305 407.446 29.8775 379.771 17.9791C352.096 6.0808 322.282 -0.0373184 292.158 0.000171253C169.683 0.000171253 70.3984 99.2806 70.3984 221.763C70.3984 344.237 169.679 443.526 292.161 443.526C321.901 443.562 351.343 437.598 378.724 425.99C406.105 414.383 430.862 397.37 451.515 375.971C470.882 355.96 466.463 323.136 442.348 309.212C434.14 304.449 424.574 302.568 415.174 303.87C405.774 305.173 397.079 309.582 390.475 316.397C377.758 329.642 362.492 340.176 345.595 347.364C328.699 354.552 310.523 358.245 292.161 358.221Z" fill="#494FC9" fill-opacity="0.07"/>
<path d="M292.124 580C407.284 580 509.744 525.656 575.279 441.218C579.016 436.405 581.677 430.848 583.086 424.92C584.495 418.992 584.617 412.832 583.446 406.853C582.274 400.874 579.835 395.215 576.294 390.258C572.752 385.3 568.19 381.159 562.914 378.112C553.999 372.959 543.521 371.208 533.416 373.183C523.31 375.158 514.262 380.726 507.945 388.856C482.461 421.83 449.753 448.518 412.337 466.869C374.921 485.22 333.795 494.744 292.121 494.708C250.447 494.744 209.321 485.22 171.905 466.869C134.489 448.518 101.781 421.83 76.2973 388.856C69.9796 380.726 60.9315 375.158 50.8262 373.183C40.721 371.208 30.2424 372.959 21.3283 378.112C16.0521 381.159 11.4897 385.3 7.94808 390.258C4.40648 395.215 1.96783 400.874 0.796224 406.853C-0.375385 412.832 -0.252769 418.992 1.15582 424.92C2.56442 430.848 5.22631 436.405 8.96238 441.218C74.5034 525.656 176.964 580 292.124 580Z" fill="#494FC9" fill-opacity="0.07"/>
</g>
</svg>
