<svg width="55" height="34" viewBox="0 0 55 34" fill="none" xmlns="http://www.w3.org/2000/svg">
<path d="M5.9666 20.6811V23.4316C5.9666 24.122 6.02305 24.189 6.87912 24.256V24.4682H3.97412V24.256C4.87346 24.189 4.91486 24.1109 4.91486 23.4316V18.152C4.91486 17.4727 4.85841 17.3946 3.97412 17.3276V17.1173H6.87912V17.3313C6.01176 17.3983 5.9666 17.4653 5.9666 18.1557V20.4168H9.64113V18.152C9.64113 17.4839 9.58469 17.3946 8.70039 17.3276V17.1173H11.6167V17.3313C10.7606 17.3983 10.6929 17.4764 10.6929 18.1557V23.4353C10.6929 24.1257 10.738 24.1927 11.6167 24.2597V24.4719H8.70039V24.2597C9.57904 24.1927 9.64113 24.0922 9.64113 23.4353V20.6811H5.9666ZM16.945 21.9056C16.945 23.5991 16.1924 24.6003 14.4558 24.6003C12.7625 24.6003 11.9798 23.5991 11.9798 21.9056C11.9798 20.2121 12.755 19.1923 14.4671 19.1923C16.1793 19.1923 16.945 20.2028 16.945 21.9056ZM14.4558 24.39C15.4361 24.39 15.8745 23.4093 15.8745 21.9056C15.8745 20.4019 15.4361 19.423 14.4558 19.423C13.5151 19.423 13.0598 20.4131 13.0598 21.9168C13.0598 23.4204 13.5094 24.39 14.4558 24.39ZM18.183 20.2679C18.183 19.8231 18.1285 19.7338 17.835 19.6891L17.4963 19.6557V19.4789L19.0015 19.2109L19.1708 20.013C19.8124 19.5775 20.2527 19.1997 21.041 19.1997C21.3342 19.1796 21.6258 19.2561 21.8702 19.4174C22.1147 19.5787 22.2981 19.8157 22.3919 20.0911C23.0222 19.6445 23.5396 19.1997 24.3392 19.1997C25.3082 19.1997 25.803 19.812 25.803 20.8746V23.5581C25.803 24.1369 25.8821 24.2039 26.5349 24.2597V24.4719H24.0382V24.2597C24.7701 24.2151 24.8265 24.1481 24.8265 23.5581V20.9044C24.8265 20.0465 24.4333 19.6668 23.7466 19.6668C23.54 19.6732 23.3371 19.7222 23.1508 19.8107C22.9646 19.8991 22.799 20.0251 22.6647 20.1804C22.5424 20.3349 22.4766 20.4019 22.4766 20.8932V23.5544C22.4766 24.1444 22.5669 24.2002 23.2649 24.256V24.4682H20.7287V24.256C21.4606 24.2113 21.517 24.1444 21.517 23.5544V20.9044C21.517 20.0241 21.1407 19.6668 20.4578 19.6668C19.9065 19.6668 19.4229 19.9683 19.2649 20.3237C19.1755 20.4998 19.1365 20.6968 19.152 20.8932V23.5544C19.152 24.1332 19.2084 24.2002 19.9403 24.256V24.4682H17.4511V24.256C18.2037 24.2113 18.183 24.1109 18.183 23.5544V20.2679ZM28.0476 21.7046C28.0251 22.8082 28.3073 24.1667 29.613 24.1667C30.6817 24.1667 30.9978 23.4763 31.201 22.9757L31.3684 23.0538C31.122 23.8652 30.5481 24.6003 29.376 24.6003C27.598 24.6003 26.9658 23.5879 26.9658 21.9391C26.9658 20.3796 27.6864 19.1997 29.3647 19.1997C31.3026 19.1997 31.4249 20.6885 31.4249 21.3157C31.4249 21.5018 31.3684 21.7046 30.9865 21.7046H28.0476ZM29.9837 21.4608C30.36 21.4608 30.4014 21.2263 30.4014 20.9155C30.4014 20.4912 30.2998 19.4267 29.2969 19.4267C28.1944 19.4267 28.0476 21.0179 28.0476 21.4738L29.9837 21.4608ZM36.6516 23.0761C36.5468 23.5199 36.2899 23.9141 35.9247 24.1919C35.5595 24.4697 35.1084 24.614 34.6479 24.6003C33.0599 24.6003 32.249 23.6884 32.249 21.9391C32.249 20.5471 32.8567 19.1997 34.772 19.1997C35.9423 19.1997 36.55 19.745 36.55 20.2251C36.5537 20.2967 36.5423 20.3683 36.5167 20.4354C36.491 20.5024 36.4515 20.5635 36.4008 20.6147C36.3501 20.666 36.2891 20.7062 36.2219 20.733C36.1546 20.7598 36.0825 20.7725 36.0101 20.7704C35.7974 20.7704 35.7184 20.7034 35.6733 20.5247C35.5491 19.946 35.3572 19.423 34.6479 19.423C33.9385 19.423 33.3308 20.1674 33.3308 21.7604C33.3308 22.7858 33.645 24.1555 34.8736 24.1555C35.6262 24.1555 36.1907 23.8652 36.5068 23.0092L36.6516 23.0761ZM41.4532 23.2306C41.4532 23.8875 41.5755 24.0885 41.7674 24.1332C41.9097 24.1747 42.0599 24.1824 42.2058 24.1555L42.2171 24.2895C41.9251 24.4953 41.5746 24.6041 41.2161 24.6003C40.7871 24.6003 40.6197 24.3677 40.5181 23.8875C40.1794 24.1109 39.5773 24.6003 38.9188 24.6003C37.8934 24.6003 37.4325 23.8875 37.4325 23.1115C37.4325 22.6109 37.6582 22.1996 38.424 21.9651C39.2556 21.7083 40.2584 21.4422 40.5294 21.1742V20.6159C40.5294 19.7915 40.1531 19.4137 39.5886 19.4137C39.0242 19.4137 38.631 19.7859 38.5294 20.6159C38.5068 20.7722 38.4522 20.8392 38.2377 20.8392C38.0232 20.8392 37.63 20.7052 37.63 20.3703C37.63 19.8362 38.4748 19.2127 39.6996 19.2127C41.3102 19.2127 41.4569 20.0148 41.4569 20.6383L41.4532 23.2306ZM40.5294 21.4254C40.2923 21.5818 39.7072 21.7697 39.2782 21.9372C38.7043 22.1382 38.4804 22.449 38.4804 22.9515C38.4804 23.5637 38.8567 24.1425 39.5153 24.1425C39.9104 24.1425 40.5294 23.9564 40.5294 23.1283V21.4254ZM44.5256 23.6084C44.5256 24.1202 44.5595 24.1872 45.4363 24.2542V24.4663H42.8361V24.2542C43.5341 24.2095 43.5567 24.1313 43.5567 23.6084V20.2028C43.5567 19.8306 43.4551 19.7338 43.1954 19.6891L42.8812 19.6557V19.4789L44.4015 19.2109L44.5256 20.0911C45.2124 19.4789 45.5153 19.1997 45.8878 19.1997C45.9605 19.1934 46.0337 19.2023 46.1027 19.2259C46.1717 19.2495 46.2348 19.2872 46.2881 19.3365C46.3414 19.3859 46.3835 19.4457 46.4118 19.5123C46.4401 19.5788 46.4539 19.6505 46.4523 19.7226C46.4523 20.0576 46.2152 20.3349 45.9461 20.3349C45.8552 20.3358 45.7669 20.3041 45.6978 20.2456C45.5096 20.0241 45.4043 19.9348 45.1333 19.9348C44.8624 19.9348 44.5143 20.1916 44.5143 20.9918L44.5256 23.6084ZM47.9763 21.7027C47.9556 22.8063 48.2359 24.1648 49.5417 24.1648C50.6122 24.1648 50.9264 23.4744 51.1296 22.9738L51.299 23.052C51.0506 23.8633 50.4767 24.5984 49.3065 24.5984C47.5266 24.5984 46.8963 23.5861 46.8963 21.9372C46.8963 20.3777 47.6169 19.1978 49.2952 19.1978C51.2312 19.1978 51.3554 20.6866 51.3554 21.3138C51.3554 21.4999 51.299 21.7027 50.9151 21.7027H47.9763ZM49.9142 21.4589C50.2905 21.4589 50.33 21.2245 50.33 20.9137C50.33 20.4894 50.2284 19.4249 49.2274 19.4249C48.123 19.4249 47.9763 21.016 47.9763 21.472L49.9142 21.4589ZM5.56961 33.6559V33.4325L5.98542 33.3879C6.32408 33.3544 6.38053 33.2018 6.26764 32.8984C6.07949 32.3401 5.71637 31.3054 5.49059 30.682H3.05595C2.84335 31.3724 2.66273 31.8954 2.49151 32.5318C2.3203 33.1683 2.4012 33.3544 2.76244 33.3879L3.30243 33.4437V33.6559H0.986328V33.4437C1.67307 33.4102 1.79725 33.2874 2.15661 32.342C2.85464 30.481 3.60911 28.1641 4.25258 26.2603H4.98447C5.60348 27.965 6.76247 31.2273 7.33632 32.7738C7.52447 33.3079 7.64112 33.3637 8.36172 33.4307V33.654L5.56961 33.6559ZM4.24129 27.0847H4.20742C3.90262 28.0152 3.45483 29.4016 3.14815 30.414H5.40592C5.12558 29.6138 4.58936 27.9761 4.24129 27.0847ZM12.0551 30.0362C11.8293 29.1448 11.4361 28.6107 10.6929 28.6107C10.5712 28.6058 10.4499 28.6262 10.3368 28.6706C10.2237 28.7151 10.1213 28.7826 10.0363 28.8688C9.95126 28.955 9.88555 29.0579 9.8434 29.1709C9.80126 29.2839 9.78362 29.4043 9.79165 29.5245C9.79165 30.1702 10.2978 30.3805 10.9205 30.5927C11.9911 30.9649 12.5762 31.2384 12.5762 32.1633C12.5762 33.0883 11.7766 33.7899 10.5066 33.7899C9.98466 33.7903 9.46962 33.6719 9.00143 33.4437L8.88854 31.9177H9.09174C9.30435 32.8091 9.77848 33.5777 10.6233 33.5777C11.1877 33.5777 11.6919 33.2874 11.6919 32.6305C11.6919 32.0294 11.2197 31.7409 10.5631 31.5139C9.67312 31.2235 8.9638 30.8681 8.9638 29.999C8.9638 28.9959 9.70698 28.3948 10.8321 28.3948C11.3155 28.3901 11.7942 28.4885 12.2357 28.6833V30.0307L12.0551 30.0362ZM16.5706 30.0362C16.3448 29.1448 15.9497 28.6107 15.2065 28.6107C15.0851 28.606 14.964 28.6266 14.8511 28.6712C14.7382 28.7158 14.636 28.7834 14.5512 28.8695C14.4664 28.9557 14.4008 29.0585 14.3588 29.1713C14.3168 29.2842 14.2992 29.4045 14.3072 29.5245C14.3072 30.1702 14.8133 30.3805 15.4361 30.5927C16.5066 30.9649 17.0918 31.2384 17.0918 32.1633C17.0918 33.0883 16.2922 33.7899 15.0222 33.7899C14.5002 33.7903 13.9852 33.6719 13.517 33.4437L13.4041 31.9177H13.6073C13.8199 32.8091 14.294 33.5777 15.1369 33.5777C15.7014 33.5777 16.2075 33.2874 16.2075 32.6305C16.2075 32.0294 15.7352 31.7409 15.0786 31.5139C14.1887 31.2235 13.4793 30.8681 13.4793 29.999C13.4793 28.9959 14.2319 28.3948 15.3477 28.3948C15.8323 28.3892 16.3125 28.4877 16.755 28.6833V30.0307L16.5706 30.0362ZM22.8755 31.1026C22.8755 32.7961 22.1229 33.7992 20.3863 33.7992C18.6929 33.7992 17.9102 32.7961 17.9102 31.1026C17.9102 29.4091 18.6873 28.3967 20.3975 28.3967C22.1078 28.3967 22.8755 29.3905 22.8755 31.1026ZM20.3863 33.5777C21.3665 33.5777 21.8049 32.597 21.8049 31.0933C21.8049 29.5896 21.3665 28.6107 20.3863 28.6107C19.4455 28.6107 18.9902 29.6026 18.9902 31.1044C18.9902 32.6063 19.4418 33.5777 20.3863 33.5777ZM28.1455 32.2638C28.0399 32.7077 27.7827 33.102 27.4173 33.38C27.0519 33.6581 26.6007 33.8028 26.1398 33.7899C24.5518 33.7899 23.7428 32.8761 23.7428 31.1268C23.7428 29.7348 24.3505 28.3874 26.264 28.3874C27.4362 28.3874 28.0439 28.9327 28.0439 29.4128C28.0473 29.4845 28.0357 29.5561 28.0098 29.6232C27.9839 29.6903 27.9442 29.7513 27.8933 29.8025C27.8425 29.8537 27.7814 29.8939 27.7141 29.9207C27.6468 29.9475 27.5746 29.9602 27.502 29.9581C27.2894 29.9581 27.2104 29.8911 27.1652 29.7124C27.041 29.1337 26.8491 28.6107 26.1398 28.6107C25.4305 28.6107 24.8228 29.3458 24.8228 30.95C24.8228 31.9735 25.1389 33.3432 26.3656 33.3432C27.1182 33.3432 27.6826 33.0548 27.9987 32.1968L28.1455 32.2638ZM29.3967 29.4128C29.3967 28.9997 29.3289 28.9327 29.0015 28.8768L28.7212 28.8452V28.6591L30.3318 28.3911L30.3656 28.4135V32.7905C30.3656 33.3693 30.4202 33.3804 31.0975 33.4363V33.6484H28.6685V33.4363C29.3666 33.3693 29.3891 33.3693 29.3891 32.7905L29.3967 29.4128ZM30.4089 26.9619C30.4089 27.1035 30.352 27.2394 30.2507 27.3396C30.1495 27.4397 30.0121 27.496 29.8689 27.496C29.7257 27.496 29.5883 27.4397 29.4871 27.3396C29.3858 27.2394 29.3289 27.1035 29.3289 26.9619C29.3265 26.8901 29.3391 26.8187 29.3661 26.752C29.3931 26.6854 29.4338 26.625 29.4857 26.5748C29.5375 26.5245 29.5994 26.4855 29.6673 26.4602C29.7352 26.4349 29.8077 26.4239 29.8802 26.4278C29.9507 26.4261 30.0208 26.4389 30.0861 26.4654C30.1513 26.4919 30.2103 26.5315 30.2593 26.5817C30.3082 26.6319 30.3462 26.6916 30.3706 26.7571C30.3951 26.8225 30.4056 26.8922 30.4014 26.9619H30.4089ZM35.6413 32.4202C35.6413 33.0771 35.7655 33.2762 35.9574 33.3209C36.0997 33.3624 36.2499 33.3701 36.3958 33.3432L36.407 33.4772C36.1153 33.6837 35.7648 33.7931 35.4061 33.7899C34.9771 33.7899 34.8097 33.5554 34.7081 33.0771C34.3694 33.2985 33.7673 33.7899 33.1088 33.7899C32.0834 33.7899 31.6224 33.0771 31.6224 32.3011C31.6224 31.7986 31.8482 31.3873 32.614 31.1528C33.4456 30.8979 34.4484 30.6299 34.7194 30.3619V29.7999C34.7194 28.9755 34.3431 28.5977 33.7786 28.5977C33.2142 28.5977 32.8209 28.9699 32.7193 29.7999C32.6968 29.9562 32.6403 30.0232 32.4277 30.0232C32.2151 30.0232 31.82 29.8892 31.82 29.5561C31.82 29.0201 32.6629 28.3967 33.8896 28.3967C35.5002 28.3967 35.6451 29.1988 35.6451 29.8222L35.6413 32.4202ZM34.7194 30.615C34.4823 30.7713 33.8972 30.9612 33.4682 31.1268C32.9037 31.3278 32.6685 31.6404 32.6685 32.141C32.6685 32.7533 33.0448 33.332 33.7052 33.332C34.0985 33.332 34.7194 33.1459 34.7194 32.3197V30.615ZM38.2151 28.8564V32.2862C38.2151 33.0771 38.5519 33.332 38.9132 33.332C39.1293 33.3458 39.3456 33.3075 39.5435 33.2204L39.5999 33.3544C39.2384 33.6148 38.8084 33.7661 38.3619 33.7899C37.9856 33.7899 37.2462 33.6782 37.2462 32.6081V28.8564H36.5463V28.5214H37.2782L37.9875 27.2075H38.202V28.5214H39.4626V28.8564H38.2151ZM40.9075 29.4147C40.9075 29.0015 40.8398 28.9345 40.5124 28.8787L40.2302 28.8471V28.661L41.8408 28.393L41.8746 28.4153V32.7924C41.8746 33.3711 41.9311 33.3823 42.6065 33.4381V33.6503H40.1794V33.4381C40.8774 33.3711 40.9 33.3711 40.9 32.7924L40.9075 29.4147ZM41.9198 26.9637C41.9236 27.0349 41.9122 27.106 41.8864 27.1725C41.8606 27.239 41.821 27.2994 41.7701 27.3498C41.7191 27.4001 41.6581 27.4393 41.5908 27.4648C41.5236 27.4904 41.4517 27.5016 41.3798 27.4979C41.3076 27.5028 41.2351 27.4924 41.1674 27.4673C41.0996 27.4422 41.038 27.4031 40.9868 27.3524C40.9357 27.3018 40.896 27.2409 40.8707 27.1739C40.8453 27.1068 40.8348 27.0352 40.8398 26.9637C40.8374 26.892 40.85 26.8205 40.877 26.7539C40.904 26.6872 40.9447 26.6269 40.9966 26.5766C41.0484 26.5264 41.1103 26.4874 41.1782 26.4621C41.2461 26.4368 41.3186 26.4257 41.3911 26.4296C41.4614 26.4283 41.5312 26.4412 41.5961 26.4677C41.6611 26.4942 41.7199 26.5336 41.7688 26.5836C41.8177 26.6335 41.8557 26.6929 41.8803 26.758C41.905 26.823 41.9159 26.8925 41.9123 26.9619L41.9198 26.9637ZM47.98 31.1026C47.98 32.7961 47.2274 33.7992 45.4908 33.7992C43.7975 33.7992 43.0129 32.7961 43.0129 31.1026C43.0129 29.4091 43.79 28.3967 45.5021 28.3967C47.2143 28.3967 47.98 29.3905 47.98 31.1026ZM45.4908 33.5777C46.4711 33.5777 46.9095 32.597 46.9095 31.0933C46.9095 29.5896 46.4711 28.6107 45.4908 28.6107C44.5501 28.6107 44.0948 29.6026 44.0948 31.1044C44.0948 32.6063 44.5444 33.5777 45.4908 33.5777ZM53.5812 32.7421C53.5812 33.3432 53.6151 33.3879 54.3131 33.4437V33.6559H51.8672V33.4437C52.5765 33.399 52.6197 33.3544 52.6197 32.7421V30.0921C52.6197 29.2118 52.2021 28.8564 51.5266 28.8564C50.9753 28.8564 50.4692 29.156 50.2999 29.5021C50.212 29.6747 50.173 29.8677 50.187 30.0604V32.7328C50.187 33.3451 50.2434 33.3786 50.9302 33.4344V33.6466H48.4843V33.4344C49.171 33.3897 49.2162 33.3339 49.2162 32.7328V29.4575C49.2162 28.9885 49.1936 28.9215 48.8681 28.8768L48.5294 28.8452V28.6591L50.0346 28.3911L50.1814 29.2044C50.8455 28.7931 51.3309 28.38 52.0948 28.38C53.0751 28.38 53.6 28.9922 53.6 30.0548L53.5812 32.7421Z" fill="black"/>
<path d="M29.7935 12.3569C30.1409 12.7005 30.5533 12.973 31.0072 13.159C31.4611 13.3449 31.9475 13.4407 32.4388 13.4407C32.9301 13.4407 33.4166 13.3449 33.8705 13.159C34.3244 12.973 34.7368 12.7005 35.0842 12.3569C35.4316 12.0132 35.7071 11.6053 35.8952 11.1564C36.0832 10.7074 36.1799 10.2262 36.1799 9.7403C36.1799 9.25437 36.0832 8.77319 35.8952 8.32424C35.7071 7.87529 35.4316 7.46737 35.0842 7.12376L32.9449 5.00781L27.6523 10.2409L29.7935 12.3569Z" fill="#FF7272"/>
<path d="M20.221 7.12375C19.5381 7.82174 19.16 8.75725 19.1681 9.72851C19.1762 10.6998 19.57 11.6289 20.2645 12.3156C20.959 13.0023 21.8986 13.3915 22.8805 13.3992C23.8625 13.4069 24.8081 13.0325 25.5136 12.3569L27.6528 10.2409L22.3621 5.00595L20.221 7.12375Z" fill="#FF7A00"/>
<path d="M26.8967 0.519121C27.0973 0.323639 27.3676 0.214066 27.6493 0.214066C27.9309 0.214066 28.2012 0.323639 28.4019 0.519121L32.9381 5.00596L27.653 10.2409L22.3623 5.00596L26.8967 0.519121Z" fill="#FF3012"/>
</svg>
