<svg width="97" height="14" viewBox="0 0 97 14" fill="none" xmlns="http://www.w3.org/2000/svg">
<path d="M0.948011 10V0.518684H2.53481V10H0.948011ZM4.5071 10V0.518684H8.42473C8.51691 0.518684 8.63543 0.523074 8.78028 0.531853C8.92513 0.536242 9.05901 0.549411 9.18192 0.571359C9.73061 0.654759 10.1827 0.836923 10.5383 1.11785C10.8982 1.39878 11.1638 1.75433 11.335 2.1845C11.5105 2.61028 11.5983 3.08435 11.5983 3.6067C11.5983 4.37925 11.403 5.04426 11.0123 5.60172C10.6217 6.1548 10.0225 6.49718 9.21484 6.62887L8.53666 6.68812H6.09391V10H4.5071ZM9.95228 10L8.08235 6.14163L9.69549 5.78608L11.7498 10H9.95228ZM6.09391 5.20667H8.35889C8.44668 5.20667 8.54544 5.20228 8.65518 5.1935C8.76492 5.18472 8.86588 5.16716 8.95806 5.14083C9.22143 5.07498 9.42773 4.95866 9.57697 4.79186C9.73061 4.62506 9.83815 4.43631 9.8996 4.22562C9.96545 4.01492 9.99837 3.80861 9.99837 3.6067C9.99837 3.40478 9.96545 3.19847 9.8996 2.98778C9.83815 2.77269 9.73061 2.58175 9.57697 2.41495C9.42773 2.24815 9.22143 2.13182 8.95806 2.06598C8.86588 2.03965 8.76492 2.02428 8.65518 2.01989C8.54544 2.01111 8.44668 2.00672 8.35889 2.00672H6.09391V5.20667ZM15.9131 10.1778C15.439 10.1778 14.9913 10.0856 14.5699 9.90124C14.1485 9.71688 13.782 9.4557 13.4703 9.11771C13.1631 8.77972 12.9414 8.38028 12.8053 7.91938L14.3394 7.50457C14.4492 7.88207 14.6489 8.17397 14.9386 8.38028C15.2327 8.58219 15.5553 8.68096 15.9065 8.67657C16.2181 8.67657 16.4969 8.60414 16.7427 8.45929C16.9885 8.31443 17.1816 8.1191 17.3221 7.87329C17.4626 7.62309 17.5328 7.34435 17.5328 7.03709C17.5328 6.56741 17.3814 6.17455 17.0785 5.85851C16.7756 5.54246 16.3849 5.38444 15.9065 5.38444C15.7616 5.38444 15.619 5.4042 15.4785 5.4437C15.3424 5.48321 15.2108 5.53808 15.0835 5.60831L14.3592 4.3573L17.546 1.63142L17.6842 2.01331H13.174V0.518684H18.9879V2.01989L16.4266 4.4824L16.4135 4.01492C16.9885 4.05443 17.4779 4.21464 17.8818 4.49557C18.29 4.7765 18.6016 5.13863 18.8167 5.58197C19.0362 6.02531 19.1459 6.51035 19.1459 7.03709C19.1459 7.63406 18.9989 8.16958 18.7048 8.64365C18.4151 9.11771 18.0244 9.49301 17.5328 9.76955C17.0456 10.0417 16.5057 10.1778 15.9131 10.1778ZM23.6635 10.1975C23.1806 10.1975 22.7307 10.0988 22.3137 9.90124C21.8967 9.69932 21.5367 9.42278 21.2339 9.07162C20.9354 8.72046 20.7203 8.31224 20.5886 7.84695L22.1162 7.43873C22.1776 7.69332 22.2895 7.91279 22.452 8.09715C22.6188 8.28151 22.8119 8.42417 23.0314 8.52513C23.2552 8.62609 23.4857 8.67657 23.7227 8.67657C24.03 8.67657 24.3109 8.60194 24.5655 8.4527C24.8201 8.30346 25.022 8.10374 25.1712 7.85354C25.3205 7.59894 25.3951 7.31802 25.3951 7.01075C25.3951 6.70349 25.3183 6.42475 25.1647 6.17455C25.0154 5.91996 24.8135 5.72024 24.5589 5.57539C24.3043 5.42614 24.0256 5.35152 23.7227 5.35152C23.3584 5.35152 23.0555 5.41736 22.8141 5.54905C22.5771 5.68073 22.3949 5.8212 22.2676 5.97044L20.9112 5.53588L21.2009 0.518684H26.3498V2.00672H22.0503L22.6429 1.44706L22.4322 4.93671L22.1425 4.58116C22.3883 4.3573 22.6736 4.1905 22.9984 4.08076C23.3233 3.97102 23.6371 3.91616 23.94 3.91616C24.5326 3.91616 25.0571 4.05223 25.5136 4.32438C25.9745 4.59214 26.3345 4.95866 26.5934 5.42395C26.8568 5.88924 26.9885 6.41817 26.9885 7.01075C26.9885 7.60333 26.8349 8.14105 26.5276 8.62389C26.2203 9.10235 25.8143 9.48423 25.3095 9.76955C24.8091 10.0549 24.2604 10.1975 23.6635 10.1975ZM28.4362 6.47084V5.22642H32.3868V6.47084H28.4362ZM37.1856 10.1975C36.4526 10.1975 35.8271 10.0351 35.3091 9.71029C34.7912 9.38108 34.3939 8.93335 34.1174 8.36711C33.8452 7.80086 33.707 7.15999 33.7026 6.44451C33.707 5.71585 33.8496 5.07059 34.1306 4.50874C34.4159 3.94249 34.8197 3.49915 35.3421 3.17872C35.8644 2.8539 36.4855 2.69149 37.2054 2.69149C38.0131 2.69149 38.6956 2.8956 39.2531 3.30382C39.815 3.70765 40.1815 4.26073 40.3527 4.96305L38.7725 5.39103C38.6495 5.00914 38.4454 4.71285 38.1601 4.50215C37.8748 4.28707 37.55 4.17953 37.1856 4.17953C36.773 4.17953 36.4328 4.27829 36.1651 4.47582C35.8973 4.66895 35.6998 4.93671 35.5725 5.2791C35.4452 5.62148 35.3816 6.00995 35.3816 6.44451C35.3816 7.12049 35.533 7.66698 35.8359 8.08398C36.1388 8.50099 36.5887 8.70949 37.1856 8.70949C37.607 8.70949 37.9384 8.61292 38.1799 8.41978C38.4257 8.22664 38.61 7.94791 38.7329 7.58358L40.3527 7.94572C40.1332 8.66998 39.7491 9.22745 39.2004 9.61811C38.6517 10.0044 37.9801 10.1975 37.1856 10.1975ZM44.6199 10.1975C43.9088 10.1975 43.2877 10.0373 42.7565 9.71688C42.2254 9.39644 41.8128 8.9553 41.5187 8.39344C41.229 7.8272 41.0841 7.17755 41.0841 6.44451C41.0841 5.69829 41.2334 5.04426 41.5319 4.4824C41.8304 3.92055 42.2452 3.4816 42.7763 3.16555C43.3074 2.84951 43.922 2.69149 44.6199 2.69149C45.3354 2.69149 45.9587 2.8517 46.4898 3.17214C47.0209 3.49257 47.4335 3.93591 47.7276 4.50215C48.0217 5.06401 48.1688 5.71146 48.1688 6.44451C48.1688 7.18194 48.0195 7.83378 47.7211 8.40003C47.427 8.96188 47.0144 9.40303 46.4832 9.72346C45.9521 10.0395 45.331 10.1975 44.6199 10.1975ZM44.6199 8.70949C45.252 8.70949 45.7216 8.49879 46.0289 8.0774C46.3362 7.65601 46.4898 7.11171 46.4898 6.44451C46.4898 5.75536 46.334 5.20667 46.0223 4.79845C45.7107 4.38583 45.2432 4.17953 44.6199 4.17953C44.1941 4.17953 43.8429 4.27609 43.5664 4.46923C43.2943 4.65798 43.0923 4.92355 42.9606 5.26593C42.829 5.60392 42.7631 5.99678 42.7631 6.44451C42.7631 7.13366 42.9189 7.68454 43.2306 8.09715C43.5466 8.50538 44.0097 8.70949 44.6199 8.70949ZM58.1593 10V5.68073C58.1593 5.1935 58.0385 4.81381 57.7971 4.54166C57.5557 4.26512 57.2287 4.12685 56.8161 4.12685C56.5615 4.12685 56.3332 4.18611 56.1313 4.30463C55.9294 4.41875 55.7692 4.58994 55.6507 4.8182C55.5321 5.04206 55.4729 5.30982 55.4729 5.62148L54.7684 5.20667C54.764 4.71504 54.8737 4.28268 55.0976 3.90957C55.3258 3.53207 55.6331 3.23798 56.0194 3.02728C56.4056 2.81659 56.8358 2.71124 57.3099 2.71124C58.0956 2.71124 58.697 2.94827 59.114 3.42234C59.5354 3.89201 59.7461 4.51093 59.7461 5.2791V10H58.1593ZM49.6063 10V2.88901H51.0088V5.09474H51.2063V10H49.6063ZM53.8927 10V5.70049C53.8927 5.20447 53.7719 4.8182 53.5305 4.54166C53.2891 4.26512 52.9599 4.12685 52.5429 4.12685C52.1391 4.12685 51.8142 4.26512 51.5684 4.54166C51.327 4.8182 51.2063 5.17814 51.2063 5.62148L50.4952 5.14741C50.4952 4.68651 50.6093 4.27171 50.8376 3.90299C51.0658 3.53427 51.3731 3.24456 51.7594 3.03387C52.15 2.81878 52.5868 2.71124 53.0696 2.71124C53.6008 2.71124 54.0441 2.82537 54.3996 3.05362C54.7596 3.27748 55.0273 3.58475 55.2029 3.97541C55.3829 4.36169 55.4729 4.79845 55.4729 5.28568V10H53.8927ZM64.8806 10.1975C64.1871 10.1975 63.6055 10.0329 63.1358 9.70371C62.6661 9.3745 62.3128 8.92677 62.0757 8.36052C61.8387 7.78989 61.7202 7.15122 61.7202 6.44451C61.7202 5.72902 61.8387 5.08815 62.0757 4.52191C62.3128 3.95566 62.6595 3.51013 63.1161 3.1853C63.577 2.85609 64.1454 2.69149 64.8214 2.69149C65.493 2.69149 66.0746 2.85609 66.5662 3.1853C67.0622 3.51013 67.4463 3.95566 67.7184 4.52191C67.9906 5.08376 68.1267 5.72463 68.1267 6.44451C68.1267 7.15561 67.9928 7.79428 67.725 8.36052C67.4573 8.92677 67.0798 9.3745 66.5925 9.70371C66.1053 10.0329 65.5347 10.1975 64.8806 10.1975ZM61.4502 13.1604V2.88901H62.8527V7.87987H63.0502V13.1604H61.4502ZM64.637 8.77533C65.0496 8.77533 65.3898 8.67218 65.6576 8.46587C65.9253 8.25956 66.1229 7.98083 66.2502 7.62967C66.3818 7.27412 66.4477 6.87907 66.4477 6.44451C66.4477 6.01434 66.3818 5.62367 66.2502 5.27251C66.1185 4.91696 65.9144 4.63603 65.6378 4.42973C65.3613 4.21903 65.0101 4.11368 64.5843 4.11368C64.1805 4.11368 63.8513 4.21245 63.5967 4.40997C63.3421 4.60311 63.1534 4.87526 63.0305 5.22642C62.9119 5.57319 62.8527 5.97922 62.8527 6.44451C62.8527 6.9054 62.9119 7.31143 63.0305 7.66259C63.1534 8.01375 63.3443 8.2881 63.6033 8.48562C63.8667 8.67876 64.2112 8.77533 64.637 8.77533ZM69.7097 10V0.321157H71.2965V10H69.7097ZM73.4004 1.8092V0.354078H74.9872V1.8092H73.4004ZM73.4004 10V2.88901H74.9872V10H73.4004ZM78.948 10.1975C78.4344 10.1975 77.9998 10.101 77.6443 9.90782C77.2887 9.71029 77.0188 9.44912 76.8344 9.1243C76.6545 8.79947 76.5645 8.44173 76.5645 8.05106C76.5645 7.70868 76.6215 7.40142 76.7357 7.12927C76.8498 6.85273 77.0254 6.6157 77.2624 6.41817C77.4994 6.21625 77.8067 6.05165 78.1842 5.92435C78.4695 5.83217 78.8031 5.74877 79.185 5.67415C79.5713 5.59953 79.9883 5.53149 80.436 5.47004C80.8881 5.4042 81.36 5.33396 81.8516 5.25934L81.2854 5.58197C81.2898 5.09035 81.18 4.72821 80.9562 4.49557C80.7323 4.26293 80.3548 4.1466 79.8237 4.1466C79.5033 4.1466 79.1938 4.22123 78.8953 4.37047C78.5968 4.51971 78.3883 4.7765 78.2698 5.14083L76.8213 4.68651C76.9968 4.08515 77.3304 3.60231 77.8221 3.23798C78.3181 2.87365 78.9853 2.69149 79.8237 2.69149C80.4558 2.69149 81.011 2.79464 81.4895 3.00095C81.9723 3.20725 82.3301 3.54524 82.5627 4.01492C82.69 4.26512 82.7668 4.52191 82.7932 4.78528C82.8195 5.04426 82.8327 5.32738 82.8327 5.63464V10H81.4434V8.45929L81.6739 8.70949C81.3534 9.22306 80.9781 9.60056 80.548 9.84198C80.1222 10.079 79.5888 10.1975 78.948 10.1975ZM79.264 8.93335C79.624 8.93335 79.9312 8.8697 80.1858 8.74241C80.4404 8.61511 80.6423 8.45929 80.7916 8.27493C80.9452 8.09057 81.0484 7.91718 81.101 7.75477C81.1844 7.55285 81.2305 7.32241 81.2393 7.06343C81.2525 6.80006 81.2591 6.58717 81.2591 6.42475L81.7463 6.56961C81.2678 6.64423 80.8574 6.71007 80.515 6.76713C80.1726 6.8242 79.8786 6.87907 79.6327 6.93174C79.3869 6.98003 79.1696 7.03489 78.9809 7.09635C78.7965 7.16219 78.6407 7.23901 78.5134 7.3268C78.3861 7.41459 78.2874 7.51554 78.2171 7.62967C78.1513 7.7438 78.1184 7.87768 78.1184 8.03131C78.1184 8.20689 78.1623 8.36272 78.25 8.49879C78.3378 8.63048 78.4651 8.73582 78.6319 8.81484C78.8031 8.89385 79.0138 8.93335 79.264 8.93335ZM89.4653 10V6.57619C89.4653 6.35233 89.4499 6.10432 89.4192 5.83217C89.3885 5.56002 89.316 5.29885 89.2019 5.04865C89.0922 4.79406 88.9254 4.58555 88.7015 4.42314C88.482 4.26073 88.1836 4.17953 87.8061 4.17953C87.6041 4.17953 87.4044 4.21245 87.2069 4.27829C87.0094 4.34413 86.8294 4.45826 86.667 4.62067C86.509 4.77869 86.3817 4.99817 86.2851 5.2791C86.1885 5.55563 86.1402 5.91118 86.1402 6.34574L85.1987 5.9441C85.1987 5.33835 85.315 4.78967 85.5477 4.29804C85.7847 3.80642 86.1315 3.41575 86.588 3.12605C87.0445 2.83195 87.6063 2.6849 88.2735 2.6849C88.8003 2.6849 89.2348 2.77269 89.5772 2.94827C89.9196 3.12385 90.1917 3.34772 90.3937 3.61986C90.5956 3.89201 90.7448 4.18172 90.8414 4.48899C90.938 4.79625 90.9994 5.08815 91.0258 5.36469C91.0565 5.63684 91.0718 5.85851 91.0718 6.0297V10H89.4653ZM84.5337 10V2.88901H85.9493V5.09474H86.1402V10H84.5337ZM96.9578 10C96.4882 10.0878 96.0273 10.1251 95.5752 10.1119C95.1274 10.1032 94.7258 10.0219 94.3702 9.86832C94.0147 9.71029 93.7447 9.46229 93.5604 9.1243C93.398 8.81703 93.3124 8.50318 93.3036 8.18275C93.2948 7.86231 93.2904 7.50018 93.2904 7.09635V0.913739H94.8706V7.00417C94.8706 7.28949 94.8728 7.53969 94.8772 7.75477C94.886 7.96986 94.9321 8.14544 95.0155 8.28151C95.1735 8.54488 95.4259 8.69193 95.7727 8.72266C96.1195 8.75338 96.5145 8.73582 96.9578 8.66998V10ZM91.9999 4.13344V2.88901H96.9578V4.13344H91.9999Z" fill="#25256C"/>
</svg>
