<svg width="16" height="16" viewBox="0 0 16 16" fill="none" xmlns="http://www.w3.org/2000/svg">
<path d="M8.66198 14.6014C10.1195 13.3383 13.4842 10.0237 13.4842 6.33951C13.4842 3.3117 11.0297 0.857178 8.00186 0.857178C4.97406 0.857178 2.51953 3.3117 2.51953 6.33951C2.51953 10.0237 5.88424 13.3383 7.34174 14.6014C7.72478 14.9333 8.27895 14.9333 8.66198 14.6014Z" fill="#E0E1E6" stroke="#676779" stroke-linecap="round" stroke-linejoin="round"/>
<path d="M8.00328 8.26302C9.2434 8.26302 10.2487 7.25769 10.2487 6.01756C10.2487 4.77742 9.2434 3.77209 8.00328 3.77209C6.76314 3.77209 5.75781 4.77742 5.75781 6.01756C5.75781 7.25769 6.76314 8.26302 8.00328 8.26302Z" fill="white" stroke="#676779" stroke-linecap="round" stroke-linejoin="round"/>
</svg>
