<svg width="672" height="578" viewBox="0 0 672 578" fill="none" xmlns="http://www.w3.org/2000/svg">
<path d="M343.736 67.9348H328.368C278.44 67.9348 237.965 108.41 237.965 158.338V173.706C237.965 223.634 278.44 264.109 328.368 264.109H343.736C393.664 264.109 434.139 223.634 434.139 173.706V158.338C434.139 108.41 393.664 67.9348 343.736 67.9348Z" fill="#494FC9" fill-opacity="0.1"/>
<path d="M336.105 322.955C315.496 322.955 295.088 318.896 276.047 311.01C257.006 303.123 239.705 291.564 225.131 276.991C210.558 262.418 198.998 245.117 191.11 226.076C183.223 207.036 179.164 186.628 179.164 166.018C179.165 124.396 195.701 84.4785 225.133 55.0475C254.565 25.6164 294.483 9.08212 336.105 9.08185C357.418 9.05631 378.512 13.3849 398.092 21.802C417.672 30.2191 435.327 42.5474 449.973 58.0308C457.552 65.966 467.581 71.1204 478.444 72.6645C489.308 74.2085 500.376 72.0523 509.866 66.5429H509.875C537.215 50.7609 542.903 13.4791 521.18 -9.4285C497.378 -34.5992 468.683 -54.6409 436.857 -68.324C405.031 -82.0071 370.744 -89.0429 336.101 -88.9998C195.256 -88.9998 81.0781 25.1727 81.0781 166.027C81.0781 306.873 195.251 421.055 336.105 421.055C370.306 421.096 404.164 414.237 435.652 400.889C467.14 387.54 495.612 367.976 519.362 343.366C541.634 320.354 536.552 282.606 508.82 266.594C499.38 261.116 488.38 258.953 477.57 260.451C466.76 261.948 456.761 267.019 449.166 274.857C434.542 290.088 416.985 302.202 397.555 310.468C378.124 318.734 357.221 322.982 336.105 322.955Z" fill="#494FC9" fill-opacity="0.1"/>
<path d="M336.063 578C468.497 578 586.326 515.505 661.692 418.4C665.989 412.865 669.05 406.475 670.67 399.658C672.29 392.841 672.431 385.757 671.083 378.881C669.736 372.005 666.932 365.498 662.859 359.796C658.786 354.095 653.539 349.332 647.472 345.829C637.22 339.902 625.17 337.889 613.549 340.16C601.928 342.432 591.523 348.834 584.257 358.184C554.951 396.104 517.337 426.796 474.308 447.899C431.28 469.003 383.985 479.955 336.06 479.914C288.135 479.955 240.84 469.003 197.812 447.899C154.784 426.796 117.17 396.104 87.863 358.184C80.5976 348.834 70.1923 342.432 58.5713 340.16C46.9502 337.889 34.8998 339.902 24.6486 345.829C18.581 349.332 13.3342 354.095 9.26139 359.796C5.18854 365.498 2.3841 372.005 1.03675 378.881C-0.310599 385.757 -0.169591 392.841 1.45029 399.658C3.07017 406.475 6.13135 412.865 10.4278 418.4C85.7999 515.505 203.629 578 336.063 578Z" fill="#494FC9" fill-opacity="0.1"/>
</svg>
