<svg width="24" height="24" viewBox="0 0 24 24" fill="none" xmlns="http://www.w3.org/2000/svg">
<path d="M10.3386 19.3963H4.01994C3.71525 19.3963 3.42303 19.2753 3.20758 19.0598C2.99213 18.8444 2.87109 18.5521 2.87109 18.2475V3.31242C2.87109 3.00773 2.99213 2.71552 3.20758 2.50006C3.42303 2.28461 3.71525 2.16357 4.01994 2.16357H16.0828C16.3875 2.16357 16.6798 2.28461 16.8952 2.50006C17.1107 2.71552 17.2317 3.00773 17.2317 3.31242V9.05666" stroke="white" stroke-width="1.7" stroke-linecap="round" stroke-linejoin="round"/>
<rect x="5.9955" y="8.95815" width="7.48424" height="0.608195" rx="0.304097" stroke="white" stroke-width="0.608195"/>
<rect x="5.9955" y="12.3041" width="4.00125" height="0.608195" rx="0.304097" stroke="white" stroke-width="0.608195"/>
<rect x="5.9955" y="5.73525" width="8.2018" height="0.608195" rx="0.304097" stroke="white" stroke-width="0.608195"/>
<path d="M15.6152 21.8361C16.5126 21.8361 21.1326 18.8656 21.1326 14.8459C21.1326 13.8013 21.0368 12.9714 20.9281 12.325C20.8346 11.768 20.2182 11.4842 19.6622 11.5835C18.5691 11.7789 17.4369 11.4641 16.2762 10.4992C15.896 10.1832 15.3343 10.1832 14.9541 10.4992C13.7934 11.4641 12.6612 11.7789 11.5681 11.5835C11.0121 11.4842 10.3956 11.768 10.3021 12.325C10.1935 12.9714 10.0977 13.8013 10.0977 14.8459C10.0977 18.8656 14.7177 21.8361 15.6152 21.8361Z" stroke="white" stroke-width="1.34"/>
<path d="M18.3864 14.2808C18.2393 14.0472 17.914 14.0093 17.7171 14.2028L14.6326 17.2348L13.4008 16.0157C13.2094 15.8263 12.8882 15.8832 12.7736 16.1268C12.7032 16.2763 12.7347 16.4538 12.8521 16.57L14.486 18.1874C14.541 18.2417 14.6152 18.2721 14.6924 18.2721C14.7697 18.2721 14.8439 18.2417 14.8989 18.1874L18.3236 14.8197C18.4686 14.6771 18.4947 14.4529 18.3864 14.2808Z" fill="white"/>
</svg>
