<svg width="16" height="16" viewBox="0 0 16 16" fill="none" xmlns="http://www.w3.org/2000/svg">
<path d="M13.1714 4.04199H3.02373C2.08943 4.04199 1.33203 4.79939 1.33203 5.73369V11.653C1.33203 12.5873 2.08943 13.3447 3.02373 13.3447H13.1714C14.1057 13.3447 14.8631 12.5873 14.8631 11.653V5.73369C14.8631 4.79939 14.1057 4.04199 13.1714 4.04199Z" fill="#E0E1E6" stroke="#676779" stroke-linecap="round" stroke-linejoin="round"/>
<path d="M1.33203 7.42456H7.20676" stroke="#676779" stroke-linecap="round" stroke-linejoin="round"/>
<path d="M8.98828 7.42456H14.863" stroke="#676779" stroke-linecap="round" stroke-linejoin="round"/>
<path d="M10.6329 4.04199H5.55859L5.86392 2.57063C5.91865 2.39576 6.03081 2.24448 6.18222 2.1413C6.33364 2.03811 6.51545 1.98904 6.69822 2.00205H9.49323C9.67601 1.98904 9.85782 2.03811 10.0092 2.1413C10.1606 2.24448 10.2728 2.39576 10.3275 2.57063L10.6329 4.04199Z" stroke="#676779" stroke-linecap="round" stroke-linejoin="round"/>
<path d="M8.56617 6.57874H7.62954C7.3962 6.57874 7.20703 6.7679 7.20703 7.00125V8.69294C7.20703 8.92629 7.3962 9.11546 7.62954 9.11546H8.56617C8.79951 9.11546 8.98868 8.92629 8.98868 8.69294V7.00125C8.98868 6.7679 8.79951 6.57874 8.56617 6.57874Z" fill="#E0E1E6" stroke="#676779" stroke-linecap="round" stroke-linejoin="round"/>
</svg>
