<svg width="36" height="36" viewBox="0 0 36 36" fill="none" xmlns="http://www.w3.org/2000/svg">
<rect width="36" height="36" rx="18" fill="black" fill-opacity="0.2"/>
<path d="M14.0454 11.955C14.0485 12.3543 13.8944 12.7387 13.6164 13.0253C13.3384 13.3118 12.9588 13.4775 12.5596 13.4865C12.1613 13.4719 11.7838 13.3048 11.5052 13.0198C11.2266 12.7348 11.0681 12.3536 11.0625 11.955C11.0798 11.5667 11.2441 11.1996 11.5221 10.9279C11.8001 10.6563 12.171 10.5005 12.5596 10.4922C12.9471 10.5007 13.3167 10.6568 13.5929 10.9287C13.869 11.2006 14.0309 11.5678 14.0454 11.955ZM11.2225 16.2065C11.2225 15.3265 11.7825 15.4636 12.5596 15.4636C13.3368 15.4636 13.8854 15.3265 13.8854 16.2065V24.7779C13.8854 25.6693 13.3254 25.4865 12.5596 25.4865C11.7939 25.4865 11.2225 25.6693 11.2225 24.7779V16.2065Z" fill="white"/>
<path d="M16.1943 16.2064C16.1943 15.7149 16.3772 15.5321 16.6629 15.4749C16.9486 15.4178 17.9315 15.4749 18.2743 15.4749C18.6172 15.4749 18.7097 16.1648 18.6983 16.5876C18.9915 16.194 19.4256 15.7524 19.8738 15.5523C20.322 15.3522 20.8751 15.1895 21.3639 15.2339C21.844 15.2046 22.2638 15.3576 22.7142 15.5262C23.1646 15.6948 23.5745 15.9563 23.9172 16.2936C24.26 16.631 24.5279 17.0367 24.7036 17.4843C24.8794 17.932 24.9589 18.4116 24.9372 18.8921V24.7435C24.9372 25.6349 24.3886 25.4521 23.6115 25.4521C22.8343 25.4521 22.2858 25.6349 22.2858 24.7435V20.1721C22.3059 19.9368 22.2751 19.7 22.1955 19.4776C22.116 19.2553 21.9895 19.0527 21.8247 18.8836C21.6599 18.7144 21.4607 18.5828 21.2405 18.4975C21.0203 18.4122 20.7843 18.3753 20.5486 18.3892C20.314 18.3833 20.0808 18.4272 19.8644 18.5182C19.648 18.6091 19.4535 18.745 19.2936 18.9168C19.1336 19.0886 19.0121 19.2924 18.9368 19.5147C18.8616 19.737 18.8345 19.9728 18.8572 20.2064V24.7778C18.8572 25.6692 18.2972 25.4864 17.5201 25.4864C16.7429 25.4864 16.1943 25.6692 16.1943 24.7778V16.2064Z" fill="white"/>
</svg>
