<svg width="18" height="18" viewBox="0 0 18 18" fill="none" xmlns="http://www.w3.org/2000/svg">
<path d="M11.0113 15.8535C11.7151 16.3075 12.5538 16.5054 13.3863 16.4138C14.2189 16.3222 14.9945 15.9468 15.5827 15.3506L16.097 14.8477C16.3225 14.6171 16.4487 14.3074 16.4487 13.9849C16.4487 13.6624 16.3225 13.3526 16.097 13.122L13.9142 10.962C13.6855 10.7373 13.3777 10.6113 13.057 10.6113C12.7364 10.6113 12.4286 10.7373 12.1999 10.962V10.962C11.9693 11.1875 11.6596 11.3137 11.337 11.3137C11.0145 11.3137 10.7048 11.1875 10.4742 10.962L7.04561 7.53345C6.93123 7.42074 6.84041 7.28641 6.77841 7.13828C6.71642 6.99015 6.68449 6.83117 6.68449 6.6706C6.68449 6.51002 6.71642 6.35104 6.77841 6.20291C6.84041 6.05478 6.93123 5.92045 7.04561 5.80774V5.80774C7.27036 5.57905 7.39629 5.27124 7.39629 4.95059C7.39629 4.62995 7.27036 4.32214 7.04561 4.09345L4.87418 1.92202C4.64356 1.69655 4.33385 1.57031 4.01132 1.57031C3.6888 1.57031 3.37908 1.69655 3.14846 1.92202L2.64561 2.43631C2.04943 3.02459 1.67399 3.8002 1.58241 4.63273C1.49083 5.46526 1.6887 6.30394 2.14275 7.00774C4.50852 10.4943 7.51868 13.4967 11.0113 15.8535V15.8535Z" stroke="black" stroke-width="1.71429" stroke-linecap="round" stroke-linejoin="round"/>
</svg>
