<svg aria-label="Graphics Symbol" role="graphics-symbol" width="24" height="24" viewBox="0 0 24 24" fill="none" xmlns="http://www.w3.org/2000/svg">
						<g clip-path="url(#clip0_811_16045)">
							<path d="M12.8534 10.6934H19.6178C21.4857 10.6934 23 12.2076 23 14.0756V17.4578C23 19.3257 21.4857 20.84 19.6178 20.84L19.2483 22.3508C19.0672 23.091 18.1578 23.3648 17.5981 22.8475L15.4261 20.84H12.8534C10.9855 20.84 9.47119 19.3257 9.47119 17.4578V14.0756C9.47119 12.2076 10.9855 10.6934 12.8534 10.6934Z" fill="#D7D8F3" stroke="#494FC9" stroke-width="1.5"></path>
							<path d="M13 1.2627H5C2.79086 1.2627 1 3.05356 1 5.2627V9.2627C1 11.4718 2.79086 13.2627 5 13.2627L5.51073 15.3507C5.6918 16.0909 6.60121 16.3647 7.16085 15.8475L9.95736 13.2627H13C15.2091 13.2627 17 11.4718 17 9.2627V5.2627C17 3.05356 15.2091 1.2627 13 1.2627Z" fill="#D7D8F3" stroke="#494FC9" stroke-width="1.5"></path>
							<path d="M10.1397 10.7908C10.0098 10.7908 9.88797 10.7734 9.77427 10.7384C9.66058 10.7093 9.5144 10.6598 9.33574 10.5899C9.17333 10.5259 9.03527 10.4793 8.92158 10.4502C8.8133 10.4152 8.6996 10.3978 8.5805 10.3978C8.41808 10.3978 8.28002 10.4182 8.16633 10.4589C8.05264 10.4997 7.93624 10.5754 7.81713 10.686C7.74134 10.7617 7.64388 10.7996 7.52478 10.7996C7.42733 10.7996 7.33529 10.7734 7.24867 10.721C7.16204 10.6685 7.09166 10.5958 7.03752 10.5026C6.96714 10.3861 6.93195 10.2755 6.93195 10.1707C6.93195 10.0251 7.00775 9.88244 7.15934 9.74269C7.47876 9.45736 7.69532 9.23608 7.80901 9.07886C7.92812 8.91581 7.98767 8.74403 7.98767 8.56352C7.98767 8.37718 7.9606 8.22578 7.90646 8.10932H7.2243C7.08354 8.10932 6.97255 8.07147 6.89135 7.99577C6.81014 7.91425 6.76953 7.80361 6.76953 7.66386C6.76953 7.51829 6.81014 7.40765 6.89135 7.33195C6.97255 7.25043 7.08354 7.20967 7.2243 7.20967H7.42733C7.33529 7.05244 7.27032 6.90687 7.23242 6.77294C7.19453 6.63318 7.17558 6.47305 7.17558 6.29254C7.17558 5.7277 7.35153 5.28806 7.70344 4.97362C8.06076 4.65918 8.55614 4.50195 9.18957 4.50195C9.63351 4.50195 10.0341 4.60677 10.3915 4.8164C10.7542 5.02603 11.033 5.31718 11.2279 5.68985C11.2604 5.75973 11.2766 5.82669 11.2766 5.89075C11.2766 6.04797 11.1954 6.17608 11.033 6.27507C10.9302 6.33912 10.8327 6.37115 10.7407 6.37115C10.5837 6.37115 10.4402 6.28089 10.3103 6.10038C10.1533 5.8791 9.98813 5.71314 9.81488 5.60251C9.64163 5.48605 9.4332 5.42782 9.18957 5.42782C8.8918 5.42782 8.659 5.50643 8.49117 5.66365C8.32875 5.81505 8.24754 6.02759 8.24754 6.30127C8.24754 6.45267 8.27461 6.60116 8.32875 6.74673C8.3883 6.89231 8.47763 7.04662 8.59674 7.20967H9.96918C10.0991 7.20967 10.1993 7.25043 10.2697 7.33195C10.3454 7.40765 10.3833 7.51829 10.3833 7.66386C10.3833 7.80361 10.3454 7.91425 10.2697 7.99577C10.1993 8.07147 10.0991 8.10932 9.96918 8.10932H8.99467C9.03798 8.26655 9.05963 8.41794 9.05963 8.56352C9.05963 8.7615 9.00279 8.95075 8.88909 9.13127C8.7754 9.30596 8.59403 9.49521 8.34499 9.69901L8.35311 9.71648C8.47222 9.6699 8.57508 9.63496 8.66171 9.61167C8.74833 9.58838 8.84849 9.57673 8.96218 9.57673C9.09212 9.57673 9.2031 9.59129 9.29514 9.6204C9.38718 9.64369 9.48192 9.67863 9.57937 9.72522C9.68765 9.7718 9.7824 9.80674 9.8636 9.83003C9.95023 9.85332 10.0531 9.86497 10.1722 9.86497C10.3671 9.86497 10.5485 9.78345 10.7163 9.6204C10.8138 9.51559 10.9193 9.46318 11.033 9.46318C11.1251 9.46318 11.2198 9.49812 11.3172 9.568C11.4364 9.66116 11.4959 9.77762 11.4959 9.91738C11.4959 10.028 11.4553 10.1357 11.3741 10.2406C11.2333 10.4211 11.0547 10.5579 10.8381 10.6511C10.6216 10.7442 10.3888 10.7908 10.1397 10.7908Z" fill="#494FC9"></path>
							<circle cx="1" cy="1" r="1" transform="matrix(1 0 0 -1 12.2354 16.7461)" fill="#494FC9"></circle>
							<circle cx="1" cy="1" r="1" transform="matrix(1 0 0 -1 15.2354 16.7461)" fill="#494FC9"></circle>
							<circle cx="1" cy="1" r="1" transform="matrix(1 0 0 -1 18.2354 16.7461)" fill="#494FC9"></circle>
						</g>
						<defs>
							<clipPath id="clip0_811_16045">
								<rect width="24" height="24" fill="white"></rect>
							</clipPath>
						</defs>
					</svg>