<svg aria-label="Graphics Symbol" role="graphics-symbol" width="24" height="24" viewBox="0 0 24 24" fill="none" xmlns="http://www.w3.org/2000/svg">
						<g clip-path="url(#clip0_811_16057)">
							<path d="M12.0004 22.7147C18.8576 22.7147 22.7147 18.8576 22.7147 12.0004C22.7147 5.14328 18.8576 1.28613 12.0004 1.28613C5.14328 1.28613 1.28613 5.14328 1.28613 12.0004C1.28613 18.8576 5.14328 22.7147 12.0004 22.7147Z" fill="#D7E0FF" stroke="#494FC9" stroke-width="1.71429" stroke-linecap="round" stroke-linejoin="round"></path>
							<path d="M14.7451 8.5035C14.6079 7.9548 13.922 6.85742 12.276 6.85742C10.7429 6.85742 9.94865 8.12519 9.80684 8.91503C9.62777 9.91242 9.94825 10.3617 10.6299 11.7957C11.4541 13.5296 9.86412 15.7613 8.57227 17.1454C9.37429 16.6461 10.2602 16.3224 11.0414 16.3224C12.1163 16.3224 12.4779 17.0861 13.5222 17.1454C13.8969 17.1557 14.5907 17.1454 15.1566 16.7339" stroke="#494FC9" stroke-width="1.71429" stroke-linecap="round" stroke-linejoin="round"></path>
							<path d="M7.71484 12H13.7148" stroke="#494FC9" stroke-width="1.71429" stroke-linecap="round"></path>
						</g>
						<defs>
							<clipPath id="clip0_811_16057">
								<rect width="24" height="24" fill="white"></rect>
							</clipPath>
						</defs>
					</svg>