<svg width="24" height="25" viewBox="0 0 24 25" fill="none" xmlns="http://www.w3.org/2000/svg">
										<path d="M19.5972 5.54565C16.6732 2.98185 13.329 4.98911 12.0224 6.05736C8.42708 3.02643 5.41313 4.56412 4.29435 5.73323C1.32521 8.71953 2.93537 12.7447 4.29435 14.3123C7.27844 17.7545 10.4871 20.2969 11.5561 21.1986C11.9742 21.4633 12.359 21.3089 12.4991 21.1986C15.635 18.6348 18.5378 15.5395 19.5972 14.3123C22.9026 10.1382 20.9744 6.72867 19.5972 5.54565Z" fill="#D7E0FF"></path>
										<path fill-rule="evenodd" clip-rule="evenodd" d="M7.32569 5.16996C6.21051 5.29594 5.35462 5.86204 4.91211 6.32445L4.90646 6.33035L4.9007 6.33614C3.63447 7.6097 3.34533 9.08352 3.51945 10.4465C3.69795 11.8439 4.36383 13.0873 4.94042 13.7524C7.5463 16.7583 10.3252 19.0645 11.6731 20.183C11.806 20.2933 11.925 20.3921 12.0286 20.4789C15.0772 17.9757 17.8991 14.9691 18.9381 13.7676C20.4485 11.8538 20.7081 10.1998 20.5088 8.94114C20.3033 7.64347 19.5945 6.67052 19.0401 6.19431L19.0335 6.18864L19.0336 6.18861C17.8158 5.12089 16.5452 5.00746 15.3955 5.27269C14.2062 5.54706 13.1615 6.23056 12.5636 6.71938L12.014 7.16867L11.4713 6.71114C9.8314 5.32865 8.408 5.04768 7.32569 5.16996ZM12.0345 4.97738C10.2734 3.6749 8.58903 3.30635 7.13372 3.47076C5.56789 3.64766 4.35984 4.43099 3.68245 5.13614C1.98431 6.8477 1.59507 8.87713 1.82324 10.6632C2.04727 12.417 2.86596 13.97 3.64835 14.8725L4.27245 14.3314L3.64835 14.8725C6.35365 17.9931 9.24156 20.3882 10.5837 21.5013C10.7485 21.6379 10.8899 21.7553 11.0049 21.8522L11.0495 21.8899L11.0988 21.9211C11.8958 22.4256 12.6771 22.1467 13.028 21.8705L13.0342 21.8656L13.0403 21.8606C16.2247 19.2572 19.1627 16.1242 20.2444 14.8712L20.2563 14.8574L20.2675 14.8432C22.0527 12.5889 22.4799 10.4561 22.1977 8.67369C21.9215 6.92967 20.9798 5.60755 20.1577 4.90004C18.4523 3.40657 16.5902 3.24216 15.0111 3.60645C13.8127 3.88292 12.7715 4.46133 12.0345 4.97738Z" fill="#494FC9"></path>
										<path d="M10.8223 9.81934C10.8223 9.54319 11.0461 9.31934 11.3223 9.31934H12.6783C12.9545 9.31934 13.1783 9.54319 13.1783 9.81934V15.3193C13.1783 15.5955 12.9545 15.8193 12.6783 15.8193H11.3223C11.0461 15.8193 10.8223 15.5955 10.8223 15.3193V9.81934Z" fill="#494FC9"></path>
										<path d="M9.24988 13.7476C8.97374 13.7476 8.74988 13.5237 8.74988 13.2476V11.8915C8.74988 11.6154 8.97374 11.3915 9.24988 11.3915H14.7499C15.026 11.3915 15.2499 11.6153 15.2499 11.8915V13.2476C15.2499 13.5237 15.026 13.7476 14.7499 13.7476H9.24988Z" fill="#494FC9"></path>
									</svg>