<svg width="24" height="24" viewBox="0 0 24 24" fill="none" xmlns="http://www.w3.org/2000/svg">
										<path d="M19.5972 4.72485C16.6732 2.16105 13.329 4.16831 12.0224 5.23656C8.42708 2.20563 5.41313 3.74332 4.29435 4.91243C1.32521 7.89873 2.93537 11.9239 4.29435 13.4915C7.27844 16.9337 10.4871 19.4761 11.5561 20.3778C11.9742 20.6425 12.359 20.4881 12.4991 20.3778C15.635 17.814 18.5378 14.7187 19.5972 13.4915C22.9026 9.31743 20.9744 5.90787 19.5972 4.72485Z" fill="#E0E1E6"></path>
										<path fill-rule="evenodd" clip-rule="evenodd" d="M7.32569 4.34915C6.21051 4.47514 5.35462 5.04124 4.91211 5.50365L4.90646 5.50955L4.9007 5.51534C3.63447 6.7889 3.34533 8.26271 3.51945 9.62573C3.69795 11.0231 4.36383 12.2665 4.94042 12.9316C7.5463 15.9375 10.3252 18.2437 11.6731 19.3622C11.806 19.4725 11.925 19.5713 12.0286 19.6581C15.0772 17.1549 17.8991 14.1483 18.9381 12.9468C20.4485 11.033 20.7081 9.37896 20.5088 8.12034C20.3033 6.82267 19.5945 5.84972 19.0401 5.37351L19.0335 5.36784L19.0336 5.36781C17.8158 4.30009 16.5452 4.18666 15.3955 4.45189C14.2062 4.72625 13.1615 5.40976 12.5636 5.89858L12.014 6.34787L11.4713 5.89034C9.8314 4.50785 8.408 4.22688 7.32569 4.34915ZM12.0345 4.15658C10.2734 2.8541 8.58903 2.48555 7.13372 2.64996C5.56789 2.82686 4.35984 3.61019 3.68245 4.31534C1.98431 6.0269 1.59507 8.05633 1.82324 9.84242C2.04727 11.5962 2.86596 13.1492 3.64835 14.0517L4.27245 13.5106L3.64835 14.0517C6.35365 17.1723 9.24156 19.5674 10.5837 20.6805C10.7485 20.8171 10.8899 20.9345 11.0049 21.0314L11.0495 21.0691L11.0988 21.1003C11.8958 21.6048 12.6771 21.3259 13.028 21.0497L13.0342 21.0448L13.0403 21.0398C16.2247 18.4364 19.1627 15.3034 20.2444 14.0504L20.2563 14.0366L20.2675 14.0224C22.0527 11.7681 22.4799 9.63525 22.1977 7.85289C21.9215 6.10887 20.9798 4.78675 20.1577 4.07924C18.4523 2.58577 16.5902 2.42136 15.0111 2.78565C13.8127 3.06212 12.7715 3.64053 12.0345 4.15658Z" fill="#676779"></path>
										<path d="M10.8223 8.99854C10.8223 8.72239 11.0461 8.49854 11.3223 8.49854H12.6783C12.9545 8.49854 13.1783 8.72239 13.1783 8.99854V14.4985C13.1783 14.7747 12.9545 14.9985 12.6783 14.9985H11.3223C11.0461 14.9985 10.8223 14.7747 10.8223 14.4985V8.99854Z" fill="#676779"></path>
										<path d="M9.24988 12.9268C8.97374 12.9268 8.74988 12.7029 8.74988 12.4268V11.0707C8.74988 10.7945 8.97374 10.5707 9.24988 10.5707H14.7499C15.026 10.5707 15.2499 10.7945 15.2499 11.0707V12.4268C15.2499 12.7029 15.026 12.9268 14.7499 12.9268H9.24988Z" fill="#676779"></path>
									</svg>