<svg width="24" height="24" viewBox="0 0 24 24" fill="none" xmlns="http://www.w3.org/2000/svg">
										<path d="M3.89392 18.461C3.98147 19.9807 5.17216 21.2038 6.69035 21.3146C10.3049 21.5783 13.6949 21.5783 17.3095 21.3146C18.8276 21.2038 20.0184 19.9807 20.1059 18.461C20.3573 14.0988 20.3573 9.90085 20.1059 5.53868C20.0184 4.01898 18.8276 2.79594 17.3095 2.68514C13.6949 2.42136 10.3049 2.42136 6.69035 2.68514C5.17216 2.79594 3.98147 4.01898 3.89392 5.53868C3.64262 9.90085 3.64262 14.0988 3.89392 18.461Z" fill="#D7E0FF" stroke="#494FC9" stroke-width="1.57797"></path>
										<path d="M20.2738 9.87276H3.72607C3.75391 8.43825 3.80985 6.99764 3.89391 5.53868C3.98145 4.01898 5.17214 2.79594 6.69033 2.68514C10.3049 2.42136 13.6949 2.42136 17.3094 2.68514C18.8276 2.79594 20.0183 4.01898 20.1059 5.53868C20.19 6.99764 20.2459 8.43825 20.2738 9.87276Z" fill="white" stroke="#494FC9" stroke-width="1.57797" stroke-linejoin="round"></path>
										<path d="M14.0735 6.18018H16.2407" stroke="#494FC9" stroke-width="1.57797" stroke-linecap="round" stroke-linejoin="round"></path>
										<path d="M7.74622 17.4175H8.1906" stroke="#494FC9" stroke-width="1.57797" stroke-linecap="round" stroke-linejoin="round"></path>
										<path d="M11.7776 17.4175H12.222" stroke="#494FC9" stroke-width="1.57797" stroke-linecap="round" stroke-linejoin="round"></path>
										<path d="M15.8711 17.4175H16.3155" stroke="#494FC9" stroke-width="1.57797" stroke-linecap="round" stroke-linejoin="round"></path>
										<path d="M7.74622 13.8667H8.1906" stroke="#494FC9" stroke-width="1.57797" stroke-linecap="round" stroke-linejoin="round"></path>
										<path d="M11.7776 13.8667H12.222" stroke="#494FC9" stroke-width="1.57797" stroke-linecap="round" stroke-linejoin="round"></path>
										<path d="M15.8711 13.8667H16.3155" stroke="#494FC9" stroke-width="1.57797" stroke-linecap="round" stroke-linejoin="round"></path>
									</svg>