<svg aria-label="Graphics Symbol" role="graphics-symbol" width="20" height="20" viewBox="0 0 20 20" fill="none" xmlns="http://www.w3.org/2000/svg">
                      <path d="M16.466 5.05078H3.78137C2.6135 5.05078 1.66675 5.99753 1.66675 7.1654V14.5645C1.66675 15.7324 2.6135 16.6791 3.78137 16.6791H16.466C17.6339 16.6791 18.5806 15.7324 18.5806 14.5645V7.1654C18.5806 5.99753 17.6339 5.05078 16.466 5.05078Z" fill="#E5E5E5" stroke="#616161" stroke-width="1.7" stroke-linecap="round" stroke-linejoin="round"></path>
                      <path d="M1.66675 9.28125H9.01016" stroke="#616161" stroke-width="1.7" stroke-linecap="round" stroke-linejoin="round"></path>
                      <path d="M11.2371 9.28125H18.5805" stroke="#616161" stroke-width="1.7" stroke-linecap="round" stroke-linejoin="round"></path>
                      <path d="M13.2952 5.05249H6.95239L7.33406 3.21329C7.40247 2.9947 7.54266 2.80561 7.73193 2.67662C7.9212 2.54763 8.14846 2.4863 8.37693 2.50257H11.8707C12.0992 2.4863 12.3264 2.54763 12.5157 2.67662C12.705 2.80561 12.8451 2.9947 12.9136 3.21329L13.2952 5.05249Z" stroke="#616161" stroke-width="1.7" stroke-linecap="round" stroke-linejoin="round"></path>
                      <path d="M10.7092 8.22266H9.53839C9.24671 8.22266 9.01025 8.45911 9.01025 8.7508V10.8654C9.01025 11.1571 9.24671 11.3936 9.53839 11.3936H10.7092C11.0009 11.3936 11.2373 11.1571 11.2373 10.8654V8.7508C11.2373 8.45911 11.0009 8.22266 10.7092 8.22266Z" fill="#E5E5E5" stroke="#616161" stroke-width="1.7" stroke-linecap="round" stroke-linejoin="round"></path>
                    </svg>