<svg width="24" height="24" viewBox="0 0 24 24" fill="none" xmlns="http://www.w3.org/2000/svg">
										<path d="M20.3565 2.12402H3.64362C3.24066 2.12402 2.85421 2.2841 2.56927 2.56903C2.28434 2.85396 2.12427 3.24042 2.12427 3.64337V16.5578C2.12427 16.9608 2.28434 17.3472 2.56927 17.6322C2.85421 17.9171 3.24066 18.0772 3.64362 18.0772H6.68231V21.8756L11.4227 18.0772H20.3565C20.7594 18.0772 21.1459 17.9171 21.4308 17.6322C21.7157 17.3472 21.8758 16.9608 21.8758 16.5578V3.64337C21.8758 3.24042 21.7157 2.85396 21.4308 2.56903C21.1459 2.2841 20.7594 2.12402 20.3565 2.12402Z" fill="#D7E0FF" stroke="#494FC9" stroke-width="1.71" stroke-linecap="round" stroke-linejoin="round"></path>
										<path d="M9.72107 8.20139C9.72107 7.75064 9.85473 7.31001 10.1052 6.93523C10.3556 6.56045 10.7115 6.26834 11.1279 6.09584C11.5444 5.92335 12.0026 5.87822 12.4447 5.96616C12.8868 6.05409 13.2929 6.27115 13.6116 6.58987C13.9303 6.9086 14.1474 7.31468 14.2353 7.75677C14.3233 8.19886 14.2781 8.65709 14.1056 9.07353C13.9331 9.48997 13.641 9.8459 13.2663 10.0963C12.8915 10.3467 12.4508 10.4804 12.0001 10.4804V11.2401" stroke="#494FC9" stroke-width="1.71" stroke-linecap="round" stroke-linejoin="round"></path>
										<path d="M12.0001 13.519C11.7747 13.519 11.5544 13.5859 11.367 13.7111C11.1796 13.8363 11.0336 14.0143 10.9473 14.2225C10.8611 14.4307 10.8385 14.6598 10.8825 14.8809C10.9265 15.1019 11.035 15.3049 11.1944 15.4643C11.3537 15.6237 11.5568 15.7322 11.7778 15.7762C11.9988 15.8201 12.228 15.7976 12.4362 15.7113C12.6444 15.6251 12.8224 15.479 12.9476 15.2916C13.0728 15.1042 13.1396 14.8839 13.1396 14.6586C13.1357 14.3576 13.0144 14.07 12.8015 13.8572C12.5887 13.6443 12.3011 13.523 12.0001 13.519Z" fill="#494FC9"></path>
									</svg>