<svg aria-label="Graphics Symbol" role="graphics-symbol" width="24" height="24" viewBox="0 0 24 24" fill="none" xmlns="http://www.w3.org/2000/svg"> <g clip-path="url(#clip0_1416_99002_23123)"> <path d="M12.9902 21.943C15.1764 20.0484 20.2234 15.0764 20.2234 9.55016C20.2234 5.00845 16.5417 1.32666 12 1.32666C7.45828 1.32666 3.77649 5.00845 3.77649 9.55016C3.77649 15.0764 8.82355 20.0484 11.0098 21.943C11.5844 22.4408 12.4156 22.4408 12.9902 21.943Z" fill="#D7E0FF" stroke="#494FC9" stroke-width="1.71429" stroke-linecap="round" stroke-linejoin="round"></path> <path d="M12 12.4356C13.8602 12.4356 15.3682 10.9276 15.3682 9.06741C15.3682 7.20721 13.8602 5.69922 12 5.69922C10.1398 5.69922 8.63184 7.20721 8.63184 9.06741C8.63184 10.9276 10.1398 12.4356 12 12.4356Z" fill="white" stroke="#494FC9" stroke-width="1.71429" stroke-linecap="round" stroke-linejoin="round"></path> </g> <defs> <clipPath id="clip0_1416_99002_23123"> <rect width="24" height="24" fill="white" transform="translate(0 0.0410156)"></rect> </clipPath> </defs> </svg>