<svg aria-label="Graphics Symbol" role="graphics-symbol" width="24" height="24" viewBox="0 0 24 24" fill="none" xmlns="http://www.w3.org/2000/svg"> <path d="M12.9902 21.902C15.1764 20.0074 20.2234 15.0354 20.2234 9.50914C20.2234 4.96743 16.5417 1.28564 12 1.28564C7.45828 1.28564 3.77649 4.96743 3.77649 9.50914C3.77649 15.0354 8.82355 20.0074 11.0098 21.902C11.5844 22.3998 12.4156 22.3998 12.9902 21.902Z" fill="#E5E5E5" stroke="#616161" stroke-width="1.71429" stroke-linecap="round" stroke-linejoin="round"></path> <path d="M12 12.3946C13.8602 12.3946 15.3682 10.8866 15.3682 9.0264C15.3682 7.16619 13.8602 5.6582 12 5.6582C10.1398 5.6582 8.63184 7.16619 8.63184 9.0264C8.63184 10.8866 10.1398 12.3946 12 12.3946Z" fill="white" stroke="#616161" stroke-width="1.71429" stroke-linecap="round" stroke-linejoin="round"></path> </svg>