<svg
                        aria-label="Graphics Symbol"
                        role="graphics-symbol"
                        width="20"
                        height="20"
                        viewBox="0 0 20 20"
                        fill="none"
                        xmlns="http://www.w3.org/2000/svg"
                      >
                        <path
                          d="M4.62488 10.5521L1.2866 13.7926C1.12 13.9543 1.11773 14.221 1.28156 14.3856L4.56212 17.6804C4.72541 17.8444 4.99105 17.8439 5.15374 17.6793L6.02979 16.793C6.10807 16.7138 6.21478 16.6692 6.32614 16.6692H13.0084C13.8789 16.5779 14.5278 15.9361 14.7434 15.6267L18.9072 10.971C19.0714 10.7553 19.0147 10.5215 18.9658 10.4316C18.258 9.33252 17.1794 10.068 16.6849 10.4316L13.9333 12.7092C13.3355 13.2041 12.5838 13.4748 11.8078 13.4748H9.66613C9.56449 13.465 9.36122 13.388 9.36122 13.1582C9.36122 12.9833 9.4789 12.3237 9.57996 12.0114C9.61913 11.8903 9.73004 11.8456 9.85731 11.8456H11.8749C12.3153 11.8574 13.1577 11.609 13.1577 10.8315C13.1577 10.1165 12.3192 10.0911 11.8749 10.1165H10.0934C9.4096 10.1046 8.75736 9.84706 8.58705 9.75351C6.69725 8.88676 5.20508 9.99553 4.62488 10.5521Z"
                          fill="#E5E5E5"
                        />
                        <path
                          fill-rule="evenodd"
                          clip-rule="evenodd"
                          d="M5.11965 11.0652L1.99795 14.0955L4.85672 16.9668L5.52314 16.2925C5.73526 16.0779 6.02447 15.9571 6.32623 15.9571H12.9671C13.5398 15.882 14.0113 15.4316 14.1589 15.2197L14.1836 15.1843L18.2348 10.6545C18.1869 10.6103 18.149 10.5915 18.1253 10.5824C18.0783 10.5644 18.009 10.5552 17.8978 10.5795C17.6482 10.6342 17.3717 10.8125 17.1232 10.9942L14.3877 13.2585C13.6621 13.8591 12.7498 14.1877 11.8079 14.1877H9.63205L9.59803 14.1844C9.44116 14.1693 9.22954 14.11 9.03934 13.9627C8.82192 13.7943 8.64882 13.5183 8.64882 13.1586C8.64882 12.9948 8.69209 12.7223 8.73234 12.5063C8.77598 12.2719 8.83727 11.993 8.90215 11.7924C9.07983 11.2433 9.59027 11.1335 9.85741 11.1335H11.8845L11.894 11.1338C11.9995 11.1366 12.1836 11.102 12.3176 11.0224C12.3775 10.9868 12.4073 10.9541 12.4214 10.9325C12.4293 10.9202 12.4391 10.9018 12.4433 10.8677C12.3902 10.85 12.3128 10.8352 12.2126 10.8281C12.112 10.821 12.0088 10.8229 11.9156 10.8282L11.8953 10.8294H10.0872L10.081 10.8293C9.2912 10.8155 8.55121 10.5381 8.27244 10.3935C6.81195 9.73458 5.64433 10.5625 5.11965 11.0652ZM4.13177 10.0382C4.76608 9.42981 6.57467 8.04702 8.88418 9.10627L8.90759 9.11701L8.93005 9.12935C8.92986 9.12924 8.93262 9.13074 8.93887 9.13381C8.94538 9.13701 8.95438 9.14128 8.96595 9.1465C8.98922 9.15701 9.02005 9.17011 9.05785 9.1849C9.1336 9.21454 9.23151 9.24872 9.3446 9.28123C9.5728 9.34682 9.84036 9.39915 10.1001 9.40438H11.8554C12.0974 9.39154 12.524 9.38658 12.9178 9.52404C13.1296 9.59797 13.374 9.72732 13.5669 9.95849C13.7694 10.2012 13.8703 10.5027 13.8703 10.8319C13.8703 11.532 13.4702 11.9952 13.0454 12.2475C12.6524 12.481 12.2006 12.5654 11.8667 12.5585H10.1751C10.1611 12.6236 10.1472 12.6926 10.1341 12.7627H11.8079C12.418 12.7627 13.009 12.5498 13.479 12.1608L16.2464 9.87006L16.2629 9.85792C16.5047 9.68017 17.0082 9.31553 17.5931 9.18749C17.9019 9.11988 18.2659 9.11014 18.6356 9.25194C19.0098 9.39547 19.3214 9.66801 19.565 10.0462L19.5793 10.0685L19.5919 10.0918C19.7326 10.3506 19.8559 10.9013 19.4743 11.4029L19.4572 11.4254L15.3001 16.0735C14.9961 16.4881 14.2001 17.261 13.0828 17.3782L13.0458 17.3821H6.44979L5.66058 18.1806C5.21972 18.6266 4.49982 18.628 4.05731 18.1835L0.776746 14.8887C0.332787 14.4428 0.338943 13.72 0.790427 13.2817L4.13177 10.0382Z"
                          fill="#616161"
                          class="hoverrule"
                        />
                        <path
                          d="M14.6304 3.35828C13.7559 2.59147 12.746 3.32181 12.3552 3.64131C11.2799 2.73478 10.3881 3.06471 10.0535 3.41439C9.16543 4.30756 9.64701 5.51147 10.0535 5.98033C10.946 7.00987 11.9057 7.77027 12.2254 8.03995C12.3505 8.11912 12.4655 8.07294 12.5074 8.03995C13.4454 7.27314 14.3136 6.34737 14.6304 5.98033C15.6191 4.73189 15.0424 3.71211 14.6304 3.35828Z"
                          fill="#E5E5E5"
                        />
                        <path
                          fill-rule="evenodd"
                          clip-rule="evenodd"
                          d="M13.5214 3.77433C13.2478 3.85873 12.9856 4.04728 12.8061 4.19399L12.3482 4.5684L11.8959 4.18713C11.4698 3.82787 11.1448 3.76367 10.9495 3.76997C10.7373 3.77681 10.607 3.86743 10.5682 3.90806L10.5634 3.91298L10.5586 3.91781C10.2966 4.1814 10.2371 4.47313 10.2747 4.76726C10.3159 5.08997 10.4743 5.37917 10.5917 5.51469C11.2419 6.2647 11.9288 6.86374 12.3646 7.22951C13.1309 6.56462 13.8099 5.83985 14.0808 5.52756C14.4562 5.0484 14.4893 4.68273 14.4518 4.44633C14.4093 4.17807 14.2602 3.98066 14.1661 3.89983L14.1606 3.8951L14.1606 3.89508C13.9543 3.71415 13.7589 3.70107 13.5214 3.77433ZM15.0975 2.82133C14.4299 2.23772 13.6843 2.23281 13.1013 2.41265C12.8176 2.50016 12.5634 2.63258 12.3548 2.76393C11.183 2.04547 10.0886 2.35328 9.54367 2.91758C8.92147 3.54627 8.77856 4.30104 8.86119 4.94783C8.94036 5.56758 9.22604 6.11477 9.51502 6.44811L9.51502 6.44811C10.3508 7.41222 11.2438 8.15239 11.6435 8.48369C11.6919 8.52377 11.733 8.55787 11.7659 8.58566L11.8031 8.61702L11.8442 8.64303C12.285 8.92204 12.7305 8.77215 12.9481 8.60087L12.9532 8.5968L12.9583 8.59263C13.9367 7.79279 14.8342 6.83559 15.1697 6.447L15.1795 6.43557L15.1889 6.42372C15.7936 5.66009 15.9657 4.89562 15.8593 4.22345C15.7579 3.58319 15.4145 3.09481 15.0975 2.82133Z"
                          fill="#616161"
                          class="hoverrule"
                        />
                      </svg>