<svg width="182" height="59" viewBox="0 0 182 59" fill="none" xmlns="http://www.w3.org/2000/svg">
<path d="M176.659 34.3742V21.0731C176.659 19.5746 176.295 18.4129 175.566 17.588C174.851 16.7494 173.868 16.3301 172.617 16.3301C171.834 16.3301 171.139 16.5157 170.534 16.8868C169.943 17.2443 169.476 17.7598 169.132 18.4335C168.788 19.1071 168.617 19.8976 168.617 20.805L166.328 19.3408C166.314 17.8011 166.664 16.4469 167.379 15.2783C168.094 14.1098 169.057 13.2024 170.266 12.5563C171.49 11.8964 172.844 11.5664 174.329 11.5664C176.845 11.5664 178.749 12.3157 180.041 13.8142C181.347 15.299 182 17.2512 182 19.6708V34.3742H176.659ZM149.83 34.3742V12.1026H154.552V19.2996H155.212V34.3742H149.83ZM163.255 34.3742L163.276 21.0937C163.276 19.5952 162.911 18.4266 162.183 17.588C161.468 16.7494 160.485 16.3301 159.234 16.3301C158.024 16.3301 157.048 16.7425 156.305 17.5674C155.577 18.3922 155.212 19.4715 155.212 20.805L152.923 19.2171C152.923 17.7598 153.281 16.4538 153.996 15.299C154.724 14.1441 155.7 13.2368 156.924 12.5769C158.148 11.9032 159.522 11.5664 161.048 11.5664C162.767 11.5664 164.183 11.9307 165.296 12.6594C166.424 13.388 167.256 14.3641 167.792 15.5877C168.342 16.8112 168.617 18.1792 168.617 19.6914V34.3742H163.255Z" fill="black"/>
<path d="M133.394 34.9972C131.785 34.9972 130.424 34.6948 129.311 34.0898C128.211 33.4712 127.372 32.6532 126.795 31.6358C126.231 30.6047 125.949 29.4774 125.949 28.2539C125.949 27.1953 126.114 26.2398 126.444 25.3874C126.774 24.535 127.303 23.7927 128.032 23.1603C128.761 22.5141 129.716 21.9779 130.898 21.5518C131.751 21.2493 132.754 20.9881 133.909 20.7681C135.078 20.5344 136.377 20.3144 137.807 20.1082C139.25 19.8883 140.797 19.6545 142.447 19.4071L140.529 20.4794C140.529 19.0771 140.199 18.046 139.539 17.3861C138.879 16.7125 137.772 16.3757 136.219 16.3757C135.325 16.3757 134.418 16.5888 133.497 17.0149C132.589 17.4411 131.957 18.1904 131.6 19.2627L126.733 17.7161C127.297 15.8601 128.355 14.3616 129.909 13.2205C131.462 12.0657 133.566 11.4883 136.219 11.4883C138.199 11.4883 139.945 11.7976 141.457 12.4163C142.969 13.0349 144.11 14.0866 144.88 15.5714C145.306 16.3825 145.561 17.2005 145.643 18.0254C145.726 18.8365 145.767 19.7439 145.767 20.7475V34.3786H141.065V29.6974L141.787 30.5841C140.728 32.1239 139.553 33.2443 138.26 33.9455C136.968 34.6466 135.346 34.9972 133.394 34.9972ZM134.507 30.7697C135.58 30.7697 136.487 30.5841 137.229 30.2129C137.972 29.828 138.563 29.3812 139.003 28.8725C139.443 28.3638 139.738 27.9102 139.89 27.5115C140.165 26.8928 140.323 26.1779 140.364 25.3668C140.419 24.5557 140.446 23.8889 140.446 23.3665L142.055 23.7995C140.446 24.0607 139.12 24.2807 138.075 24.4594C137.03 24.6382 136.164 24.8031 135.477 24.9544C134.789 25.1056 134.184 25.2774 133.662 25.4699C133.098 25.6899 132.631 25.9305 132.26 26.1917C131.902 26.4529 131.634 26.7485 131.455 27.0784C131.277 27.3946 131.187 27.7589 131.187 28.1714C131.187 28.6938 131.318 29.1543 131.579 29.553C131.84 29.938 132.218 30.2404 132.713 30.4604C133.208 30.6666 133.806 30.7697 134.507 30.7697Z" fill="black"/>
<path d="M112.11 34.3791V12.1075H116.833V17.5517L116.297 16.8505C116.585 16.0806 116.963 15.3864 117.431 14.7677C117.912 14.1353 118.489 13.6198 119.163 13.2211C119.699 12.8774 120.29 12.6093 120.937 12.4168C121.583 12.2106 122.249 12.0869 122.937 12.0456C123.624 11.9906 124.305 12.0113 124.978 12.1075V17.098C124.332 16.9055 123.59 16.8436 122.751 16.9124C121.926 16.9811 121.177 17.1873 120.503 17.531C119.83 17.8747 119.273 18.3147 118.833 18.8508C118.393 19.3733 118.056 19.985 117.823 20.6862C117.603 21.3873 117.493 22.1641 117.493 23.0165V34.3791H112.11Z" fill="black"/>
<path d="M95.6029 35.0164C93.8982 35.0164 92.5028 34.7345 91.4167 34.1709C90.3306 33.5935 89.4714 32.8648 88.839 31.9849C88.2203 31.0913 87.7735 30.1565 87.4985 29.1804C87.2236 28.2043 87.0517 27.3038 86.983 26.4789C86.9143 25.6403 86.8799 25.0079 86.8799 24.5817V12.1055H92.3034V22.7051C92.3034 23.2825 92.3378 23.9837 92.4065 24.8085C92.489 25.6197 92.6815 26.4239 92.984 27.2213C93.3002 28.0187 93.7951 28.6786 94.4687 29.201C95.1424 29.7234 96.0704 29.9846 97.2527 29.9846C97.8026 29.9846 98.3663 29.9021 98.9437 29.7372C99.5211 29.5584 100.05 29.2422 100.532 28.7886C101.026 28.3211 101.425 27.6612 101.728 26.8089C102.03 25.9427 102.181 24.8292 102.181 23.4681L105.295 24.891C105.295 26.7057 104.931 28.383 104.202 29.9228C103.487 31.4625 102.408 32.6998 100.965 33.6347C99.5348 34.5558 97.7476 35.0164 95.6029 35.0164ZM102.841 34.3771V27.1801H102.181V12.1055H107.584V34.3771H102.841Z" fill="black"/>
<path d="M70.5588 34.9953C67.5892 34.9953 65.0321 34.3491 62.8874 33.0568C60.7428 31.7645 59.093 29.9567 57.9382 27.6333C56.7971 25.3099 56.2266 22.6084 56.2266 19.5289C56.2266 16.4494 56.7971 13.7479 57.9382 11.4245C59.093 9.10111 60.7428 7.29326 62.8874 6.00096C65.0321 4.70865 67.5892 4.0625 70.5588 4.0625C73.9682 4.0625 76.8209 4.91487 79.1168 6.61961C81.4265 8.3106 83.0487 10.6065 83.9836 13.5073L78.5807 14.9921C78.0307 13.1361 77.0821 11.6926 75.7348 10.6615C74.4013 9.6304 72.6759 9.11486 70.5588 9.11486C68.6203 9.11486 67.0049 9.54791 65.7126 10.414C64.4341 11.2664 63.4717 12.4762 62.8256 14.0435C62.1794 15.597 61.8563 17.4255 61.8563 19.5289C61.8563 21.6323 62.1794 23.4677 62.8256 25.0349C63.4717 26.5885 64.4341 27.7983 65.7126 28.6644C67.0049 29.5168 68.6203 29.9429 70.5588 29.9429C72.6759 29.9429 74.4013 29.4274 75.7348 28.3963C77.0821 27.3515 78.0307 25.9079 78.5807 24.0657L83.9836 25.5505C83.0487 28.4513 81.4265 30.7541 79.1168 32.4588C76.8209 34.1498 73.9682 34.9953 70.5588 34.9953Z" fill="black"/>
<path d="M175.284 55.2215C174.488 55.2215 173.797 55.0451 173.212 54.6922C172.633 54.3393 172.182 53.8428 171.859 53.2026C171.536 52.5624 171.375 51.8113 171.375 50.9493C171.375 50.0571 171.534 49.2858 171.851 48.6356C172.169 47.9853 172.615 47.4837 173.19 47.1309C173.769 46.778 174.452 46.6016 175.239 46.6016C176.045 46.6016 176.733 46.7881 177.303 47.1611C177.873 47.5291 178.304 48.0584 178.596 48.749C178.888 49.4396 179.022 50.2638 178.997 51.2215H177.863V50.8284C177.842 49.7698 177.613 48.9708 177.175 48.4314C176.741 47.892 176.106 47.6223 175.269 47.6223C174.392 47.6223 173.719 47.9072 173.25 48.4768C172.786 49.0464 172.555 49.858 172.555 50.9115C172.555 51.9399 172.786 52.7389 173.25 53.3085C173.719 53.8731 174.382 54.1554 175.239 54.1554C175.824 54.1554 176.333 54.0218 176.766 53.7546C177.205 53.4824 177.55 53.0917 177.802 52.5826L178.838 52.9833C178.515 53.6941 178.039 54.2461 177.409 54.6393C176.784 55.0274 176.076 55.2215 175.284 55.2215ZM172.161 51.2215V50.2915H178.399V51.2215H172.161Z" fill="black"/>
<path d="M166.982 54.996V46.8298H167.981V48.7957L167.784 48.5386C167.875 48.2967 167.993 48.0749 168.139 47.8732C168.286 47.6666 168.444 47.4977 168.616 47.3666C168.827 47.1801 169.074 47.039 169.357 46.9432C169.639 46.8424 169.924 46.7844 170.211 46.7693C170.498 46.7491 170.761 46.7693 170.998 46.8298V47.8732C170.7 47.7976 170.375 47.78 170.022 47.8203C169.669 47.8606 169.344 48.0018 169.047 48.2437C168.774 48.4555 168.57 48.71 168.434 49.0074C168.298 49.2998 168.207 49.6123 168.162 49.945C168.117 50.2727 168.094 50.5978 168.094 50.9205V54.996H166.982Z" fill="black"/>
<path d="M161.368 55.2215C160.753 55.2215 160.237 55.1106 159.818 54.8888C159.405 54.667 159.095 54.3721 158.888 54.0041C158.681 53.6361 158.578 53.2354 158.578 52.8019C158.578 52.3583 158.666 51.9802 158.843 51.6677C159.024 51.3501 159.269 51.0905 159.576 50.8888C159.889 50.6872 160.249 50.5335 160.657 50.4276C161.071 50.3268 161.527 50.2386 162.026 50.163C162.53 50.0823 163.022 50.0143 163.501 49.9588C163.984 49.8983 164.408 49.8403 164.771 49.7849L164.378 50.0269C164.393 49.2203 164.237 48.623 163.909 48.2348C163.581 47.8467 163.012 47.6526 162.2 47.6526C161.64 47.6526 161.167 47.7786 160.778 48.0307C160.395 48.2827 160.126 48.6809 159.969 49.2254L158.888 48.9078C159.075 48.1768 159.45 47.6097 160.015 47.2065C160.579 46.8032 161.313 46.6016 162.215 46.6016C162.961 46.6016 163.594 46.7427 164.113 47.025C164.637 47.3022 165.008 47.7055 165.225 48.2348C165.325 48.4717 165.391 48.7364 165.421 49.0288C165.451 49.3211 165.467 49.6185 165.467 49.921V54.9947H164.476V52.9455L164.763 53.0665C164.486 53.7672 164.055 54.3015 163.47 54.6695C162.886 55.0375 162.185 55.2215 161.368 55.2215ZM161.497 54.2612C162.016 54.2612 162.47 54.168 162.858 53.9814C163.246 53.7949 163.559 53.5404 163.795 53.2177C164.032 52.8901 164.186 52.5221 164.257 52.1138C164.317 51.8517 164.35 51.5643 164.355 51.2518C164.36 50.9342 164.363 50.6973 164.363 50.541L164.786 50.7603C164.408 50.8107 163.997 50.8611 163.553 50.9115C163.115 50.9619 162.681 51.0199 162.253 51.0854C161.83 51.151 161.446 51.2291 161.104 51.3198C160.872 51.3854 160.647 51.4786 160.431 51.5996C160.214 51.7156 160.035 51.8718 159.894 52.0684C159.758 52.265 159.69 52.5095 159.69 52.8019C159.69 53.0388 159.748 53.2682 159.864 53.49C159.985 53.7118 160.176 53.8957 160.438 54.0419C160.705 54.1881 161.058 54.2612 161.497 54.2612Z" fill="black"/>
<path d="M154.54 55.2215C153.719 55.2215 153.023 55.0375 152.453 54.6695C151.884 54.3015 151.45 53.7949 151.153 53.1497C150.861 52.4994 150.709 51.7534 150.699 50.9115C150.709 50.0546 150.866 49.3035 151.168 48.6582C151.47 48.008 151.907 47.5039 152.476 47.146C153.046 46.783 153.736 46.6016 154.548 46.6016C155.375 46.6016 156.093 46.8032 156.703 47.2065C157.318 47.6097 157.739 48.1617 157.966 48.8624L156.877 49.2102C156.685 48.7213 156.38 48.3432 155.962 48.076C155.549 47.8038 155.075 47.6677 154.54 47.6677C153.941 47.6677 153.444 47.8063 153.051 48.0836C152.658 48.3558 152.365 48.7364 152.174 49.2254C151.982 49.7143 151.884 50.2764 151.879 50.9115C151.889 51.8895 152.116 52.6758 152.559 53.2707C153.003 53.8605 153.663 54.1554 154.54 54.1554C155.095 54.1554 155.566 54.0293 155.954 53.7773C156.348 53.5202 156.645 53.1472 156.847 52.6582L157.966 52.9909C157.663 53.7168 157.22 54.2713 156.635 54.6544C156.05 55.0325 155.352 55.2215 154.54 55.2215Z" fill="black"/>
<path d="M143.329 58.8509C142.911 58.8509 142.498 58.7879 142.089 58.6619C141.686 58.5409 141.313 58.3469 140.97 58.0797C140.627 57.8176 140.34 57.4748 140.108 57.0513L141.114 56.4918C141.341 56.9455 141.658 57.2706 142.067 57.4672C142.48 57.6689 142.901 57.7697 143.329 57.7697C143.919 57.7697 144.395 57.6588 144.758 57.437C145.126 57.2202 145.394 56.8976 145.56 56.4691C145.726 56.0406 145.807 55.5063 145.802 54.8661V52.6884H145.93V46.8284H146.921V54.8812C146.921 55.1131 146.913 55.3349 146.898 55.5466C146.888 55.7634 146.866 55.9751 146.83 56.1818C146.734 56.7917 146.535 57.2933 146.233 57.6865C145.935 58.0797 145.542 58.3721 145.053 58.5636C144.569 58.7552 143.995 58.8509 143.329 58.8509ZM143.254 55.2215C142.493 55.2215 141.842 55.0325 141.303 54.6544C140.764 54.2713 140.35 53.7546 140.063 53.1043C139.776 52.454 139.632 51.7206 139.632 50.904C139.632 50.0924 139.773 49.3615 140.055 48.7112C140.343 48.0609 140.753 47.5467 141.288 47.1687C141.822 46.7906 142.462 46.6016 143.208 46.6016C143.975 46.6016 144.62 46.7881 145.144 47.1611C145.668 47.5341 146.064 48.0458 146.331 48.6961C146.603 49.3413 146.74 50.0773 146.74 50.904C146.74 51.7156 146.606 52.449 146.339 53.1043C146.072 53.7546 145.678 54.2713 145.159 54.6544C144.64 55.0325 144.005 55.2215 143.254 55.2215ZM143.367 54.1856C143.947 54.1856 144.426 54.0445 144.804 53.7622C145.182 53.4799 145.464 53.0917 145.651 52.5977C145.837 52.0987 145.93 51.5341 145.93 50.904C145.93 50.2638 145.837 49.6992 145.651 49.2102C145.464 48.7162 145.182 48.3306 144.804 48.0533C144.431 47.7761 143.959 47.6375 143.39 47.6375C142.805 47.6375 142.321 47.7811 141.938 48.0685C141.555 48.3558 141.27 48.7465 141.084 49.2405C140.902 49.7345 140.811 50.289 140.811 50.904C140.811 51.524 140.905 52.0835 141.091 52.5826C141.283 53.0766 141.568 53.4673 141.946 53.7546C142.324 54.0419 142.798 54.1856 143.367 54.1856Z" fill="black"/>
<path d="M137.461 54.9915V50.8252C137.461 50.3715 137.418 49.9556 137.333 49.5776C137.247 49.1945 137.108 48.8618 136.917 48.5795C136.73 48.2922 136.486 48.0704 136.183 47.9141C135.886 47.7578 135.523 47.6797 135.094 47.6797C134.701 47.6797 134.353 47.7477 134.051 47.8838C133.753 48.0199 133.501 48.2165 133.295 48.4736C133.093 48.7257 132.939 49.0332 132.834 49.3961C132.728 49.7591 132.675 50.1724 132.675 50.6362L131.888 50.4623C131.888 49.6255 132.035 48.9223 132.327 48.3526C132.619 47.783 133.023 47.352 133.537 47.0597C134.051 46.7673 134.641 46.6211 135.306 46.6211C135.795 46.6211 136.221 46.6967 136.584 46.8479C136.952 46.9992 137.262 47.2033 137.514 47.4604C137.771 47.7175 137.978 48.0124 138.134 48.3451C138.29 48.6727 138.404 49.0231 138.474 49.3961C138.545 49.7641 138.58 50.1321 138.58 50.5001V54.9915H137.461ZM131.556 54.9915V46.8253H132.561V48.8366H132.675V54.9915H131.556Z" fill="black"/>
<path d="M128.639 45.2789V44.0312H129.75V45.2789H128.639ZM128.639 54.9952V46.8289H129.75V54.9952H128.639Z" fill="black"/>
<path d="M125.857 54.9949L125.864 49.6339C125.864 49.0038 125.688 48.5098 125.335 48.1519C124.987 47.7889 124.544 47.6075 124.004 47.6075C123.697 47.6075 123.397 47.678 123.105 47.8192C122.812 47.9603 122.57 48.1872 122.379 48.4997C122.192 48.8122 122.099 49.2206 122.099 49.7247L121.441 49.5356C121.426 48.9509 121.539 48.4392 121.781 48.0007C122.028 47.5621 122.366 47.2218 122.795 46.9799C123.228 46.7329 123.717 46.6094 124.261 46.6094C125.083 46.6094 125.741 46.8639 126.235 47.3731C126.729 47.8772 126.976 48.5602 126.976 49.4222L126.968 54.9949H125.857ZM116.11 54.9949V46.8287H117.108V48.84H117.229V54.9949H116.11ZM120.995 54.9949L121.003 49.7095C121.003 49.0593 120.829 48.5476 120.481 48.1746C120.138 47.7965 119.684 47.6075 119.12 47.6075C118.555 47.6075 118.099 47.8015 117.751 48.1897C117.403 48.5728 117.229 49.0845 117.229 49.7247L116.564 49.3617C116.564 48.8375 116.688 48.3687 116.935 47.9553C117.182 47.5369 117.519 47.2092 117.948 46.9723C118.376 46.7304 118.863 46.6094 119.407 46.6094C119.926 46.6094 120.388 46.7203 120.791 46.9421C121.199 47.1639 121.519 47.4865 121.751 47.9099C121.983 48.3334 122.099 48.8475 122.099 49.4524L122.091 54.9949H120.995Z" fill="black"/>
<path d="M111.127 54.996V46.8298H112.125V48.7957L111.928 48.5386C112.019 48.2967 112.138 48.0749 112.284 47.8732C112.43 47.6666 112.589 47.4977 112.76 47.3666C112.972 47.1801 113.219 47.039 113.501 46.9432C113.784 46.8424 114.068 46.7844 114.356 46.7693C114.643 46.7491 114.905 46.7693 115.142 46.8298V47.8732C114.845 47.7976 114.519 47.78 114.167 47.8203C113.814 47.8606 113.489 48.0018 113.191 48.2437C112.919 48.4555 112.715 48.71 112.579 49.0074C112.443 49.2998 112.352 49.6123 112.307 49.945C112.261 50.2727 112.238 50.5978 112.238 50.9205V54.996H111.127Z" fill="black"/>
<path d="M106.039 55.2215C105.227 55.2215 104.534 55.0375 103.959 54.6695C103.385 54.3015 102.944 53.7924 102.636 53.1421C102.329 52.4919 102.175 51.7458 102.175 50.904C102.175 50.047 102.331 49.2959 102.644 48.6507C102.956 48.0055 103.4 47.5039 103.974 47.146C104.554 46.783 105.242 46.6016 106.039 46.6016C106.855 46.6016 107.551 46.7856 108.126 47.1535C108.705 47.5165 109.146 48.0231 109.449 48.6734C109.756 49.3186 109.91 50.0621 109.91 50.904C109.91 51.7609 109.756 52.5145 109.449 53.1648C109.141 53.81 108.698 54.3141 108.118 54.6771C107.538 55.04 106.845 55.2215 106.039 55.2215ZM106.039 54.1554C106.946 54.1554 107.621 53.8554 108.065 53.2556C108.509 52.6506 108.73 51.8668 108.73 50.904C108.73 49.916 108.506 49.1296 108.058 48.5448C107.614 47.9601 106.941 47.6677 106.039 47.6677C105.429 47.6677 104.925 47.8063 104.526 48.0836C104.133 48.3558 103.838 48.7364 103.642 49.2254C103.45 49.7093 103.354 50.2688 103.354 50.904C103.354 51.8869 103.581 52.6758 104.035 53.2707C104.489 53.8605 105.156 54.1554 106.039 54.1554Z" fill="black"/>
<path d="M98.8251 54.9941V46.2229C98.8251 46.0112 98.8352 45.802 98.8554 45.5953C98.8806 45.3887 98.9284 45.1921 98.999 45.0055C99.0696 44.814 99.1805 44.6376 99.3317 44.4763C99.4981 44.2948 99.6795 44.1637 99.8761 44.0831C100.073 43.9974 100.277 43.9419 100.489 43.9167C100.705 43.8915 100.917 43.8789 101.124 43.8789H102.167V44.8165H101.199C100.776 44.8165 100.458 44.9199 100.247 45.1265C100.04 45.3332 99.9366 45.6583 99.9366 46.1019V54.9941H98.8251ZM97.4111 47.7806V46.8278H102.167V47.7806H97.4111Z" fill="black"/>
<path d="M93.5712 55.2139C92.6134 55.2139 91.8245 55.0073 91.2045 54.5939C90.5895 54.1806 90.2115 53.6059 90.0703 52.8699L91.2045 52.6809C91.3255 53.1446 91.6002 53.5152 92.0287 53.7924C92.4622 54.0646 92.9966 54.2007 93.6317 54.2007C94.2517 54.2007 94.7407 54.0722 95.0986 53.8151C95.4565 53.553 95.6355 53.1976 95.6355 52.7489C95.6355 52.4969 95.5775 52.2927 95.4616 52.1365C95.3507 51.9752 95.1213 51.8265 94.7735 51.6904C94.4256 51.5542 93.9064 51.3929 93.2158 51.2064C92.4748 51.0048 91.8951 50.8032 91.4767 50.6015C91.0583 50.3999 90.7609 50.168 90.5845 49.9059C90.4081 49.6387 90.3198 49.3136 90.3198 48.9305C90.3198 48.4667 90.4509 48.0609 90.713 47.7131C90.9752 47.3602 91.3381 47.088 91.8019 46.8965C92.2656 46.6999 92.805 46.6016 93.42 46.6016C94.035 46.6016 94.5844 46.7024 95.0684 46.904C95.5573 47.1006 95.9505 47.3779 96.2479 47.7358C96.5453 48.0937 96.7218 48.5095 96.7772 48.9834L95.643 49.1875C95.5674 48.7087 95.328 48.3306 94.9247 48.0533C94.5265 47.7711 94.0199 47.6249 93.4049 47.6148C92.8252 47.5997 92.3538 47.7106 91.9909 47.9475C91.6279 48.1794 91.4465 48.4894 91.4465 48.8775C91.4465 49.0943 91.512 49.2808 91.6431 49.4371C91.7741 49.5883 92.0111 49.732 92.3538 49.8681C92.7017 50.0042 93.1957 50.1529 93.8359 50.3142C94.587 50.5057 95.1767 50.7074 95.6052 50.9191C96.0337 51.1308 96.3387 51.3803 96.5201 51.6677C96.7016 51.955 96.7924 52.3104 96.7924 52.7338C96.7924 53.5051 96.505 54.1125 95.9304 54.5561C95.3607 54.9947 94.5744 55.2139 93.5712 55.2139Z" fill="black"/>
<path d="M87.8976 54.9915V50.8252C87.8976 50.3715 87.8548 49.9556 87.7691 49.5776C87.6834 49.1945 87.5447 48.8618 87.3532 48.5795C87.1667 48.2922 86.9222 48.0704 86.6197 47.9141C86.3223 47.7578 85.9594 47.6797 85.5309 47.6797C85.1377 47.6797 84.7899 47.7477 84.4874 47.8838C84.19 48.0199 83.938 48.2165 83.7313 48.4736C83.5297 48.7257 83.3759 49.0332 83.2701 49.3961C83.1642 49.7591 83.1113 50.1724 83.1113 50.6362L82.3249 50.4623C82.3249 49.6255 82.4711 48.9223 82.7634 48.3526C83.0558 47.783 83.4591 47.352 83.9733 47.0597C84.4874 46.7673 85.0772 46.6211 85.7426 46.6211C86.2316 46.6211 86.6575 46.6967 87.0205 46.8479C87.3885 46.9992 87.6985 47.2033 87.9505 47.4604C88.2076 47.7175 88.4143 48.0124 88.5706 48.3451C88.7268 48.6727 88.8403 49.0231 88.9108 49.3961C88.9814 49.7641 89.0167 50.1321 89.0167 50.5001V54.9915H87.8976ZM81.9922 54.9915V46.8253H82.9978V48.8366H83.1113V54.9915H81.9922Z" fill="black"/>
<path d="M76.3897 55.2215C75.7748 55.2215 75.2581 55.1106 74.8397 54.8888C74.4263 54.667 74.1163 54.3721 73.9096 54.0041C73.7029 53.6361 73.5996 53.2354 73.5996 52.8019C73.5996 52.3583 73.6878 51.9802 73.8643 51.6677C74.0457 51.3501 74.2902 51.0905 74.5977 50.8888C74.9102 50.6872 75.2707 50.5335 75.679 50.4276C76.0923 50.3268 76.5485 50.2386 77.0476 50.163C77.5517 50.0823 78.0432 50.0143 78.522 49.9588C79.006 49.8983 79.4294 49.8403 79.7924 49.7849L79.3992 50.0269C79.4143 49.2203 79.258 48.623 78.9304 48.2348C78.6027 47.8467 78.0331 47.6526 77.2215 47.6526C76.662 47.6526 76.1881 47.7786 75.8 48.0307C75.4169 48.2827 75.1472 48.6809 74.9909 49.2254L73.9096 48.9078C74.0961 48.1768 74.4717 47.6097 75.0363 47.2065C75.6008 46.8032 76.3343 46.6016 77.2366 46.6016C77.9827 46.6016 78.6153 46.7427 79.1345 47.025C79.6588 47.3022 80.0293 47.7055 80.246 48.2348C80.3469 48.4717 80.4124 48.7364 80.4426 49.0288C80.4729 49.3211 80.488 49.6185 80.488 49.921V54.9947H79.4975V52.9455L79.7848 53.0665C79.5075 53.7672 79.0765 54.3015 78.4918 54.6695C77.9071 55.0375 77.2064 55.2215 76.3897 55.2215ZM76.5183 54.2612C77.0375 54.2612 77.4912 54.168 77.8793 53.9814C78.2675 53.7949 78.58 53.5404 78.8169 53.2177C79.0539 52.8901 79.2076 52.5221 79.2782 52.1138C79.3387 51.8517 79.3714 51.5643 79.3765 51.2518C79.3815 50.9342 79.384 50.6973 79.384 50.541L79.8075 50.7603C79.4294 50.8107 79.0186 50.8611 78.575 50.9115C78.1364 50.9619 77.7029 51.0199 77.2744 51.0854C76.851 51.151 76.4679 51.2291 76.1251 51.3198C75.8932 51.3854 75.6689 51.4786 75.4521 51.5996C75.2354 51.7156 75.0564 51.8718 74.9153 52.0684C74.7792 52.265 74.7111 52.5095 74.7111 52.8019C74.7111 53.0388 74.7691 53.2682 74.885 53.49C75.006 53.7118 75.1976 53.8957 75.4597 54.0419C75.7269 54.1881 76.0797 54.2612 76.5183 54.2612Z" fill="black"/>
<path d="M69.3623 54.996V46.8298H70.3604V48.7957L70.1638 48.5386C70.2545 48.2967 70.373 48.0749 70.5192 47.8732C70.6654 47.6666 70.8242 47.4977 70.9956 47.3666C71.2073 47.1801 71.4543 47.039 71.7366 46.9432C72.0189 46.8424 72.3037 46.7844 72.591 46.7693C72.8783 46.7491 73.1405 46.7693 73.3774 46.8298V47.8732C73.08 47.7976 72.7548 47.78 72.402 47.8203C72.0491 47.8606 71.724 48.0018 71.4266 48.2437C71.1543 48.4555 70.9502 48.71 70.8141 49.0074C70.678 49.2998 70.5872 49.6123 70.5419 49.945C70.4965 50.2727 70.4738 50.5978 70.4738 50.9205V54.996H69.3623Z" fill="black"/>
<path d="M64.444 54.9938V45.1716H60.6406V44.1055H69.3589V45.1716H65.5555V54.9938H64.444Z" fill="black"/>
<path d="M26.2021 11.9727H25.0302C21.2225 11.9727 18.1357 15.0594 18.1357 18.8671V20.039C18.1357 23.8467 21.2225 26.9334 25.0302 26.9334H26.2021C30.0098 26.9334 33.0965 23.8467 33.0965 20.039V18.8671C33.0965 15.0594 30.0098 11.9727 26.2021 11.9727Z" fill="#494FC9"/>
<path d="M25.6248 31.4167C24.0531 31.4168 22.4967 31.1073 21.0446 30.5058C19.5925 29.9044 18.2731 29.0228 17.1617 27.9114C16.0502 26.8 15.1686 25.4806 14.5671 24.0285C13.9656 22.5765 13.6561 21.0201 13.6561 19.4484C13.6562 16.2741 14.9172 13.2299 17.1618 10.9854C19.4064 8.74095 22.4506 7.48 25.6248 7.47998C27.2502 7.47803 28.8588 7.80814 30.3521 8.45005C31.8454 9.09196 33.1917 10.0322 34.3087 11.213C34.8867 11.8181 35.6515 12.2112 36.48 12.329C37.3085 12.4467 38.1526 12.2823 38.8763 11.8621H38.877C40.962 10.6585 41.3957 7.81533 39.7392 6.06833C37.9239 4.14875 35.7356 2.62031 33.3084 1.57681C30.8813 0.533298 28.2665 -0.0032729 25.6245 1.50193e-05C14.8833 1.50193e-05 6.17578 8.70711 6.17578 19.4491C6.17578 30.1903 14.8829 38.8981 25.6248 38.8981C28.2331 38.9013 30.8152 38.3782 33.2165 37.3602C35.6179 36.3422 37.7892 34.8502 39.6005 32.9734C41.299 31.2184 40.9114 28.3397 38.7965 27.1185C38.0766 26.7008 37.2377 26.5358 36.4133 26.65C35.5889 26.7642 34.8264 27.151 34.2472 27.7487C33.1319 28.9103 31.793 29.8341 30.3111 30.4645C28.8293 31.0949 27.2352 31.4188 25.6248 31.4167Z" fill="#494FC9"/>
<path d="M25.6198 50.8718C35.7196 50.8718 44.7056 46.1057 50.4532 38.7003C50.7808 38.2782 51.0143 37.7908 51.1378 37.2709C51.2614 36.7511 51.2721 36.2108 51.1694 35.6864C51.0666 35.162 50.8527 34.6658 50.5421 34.231C50.2315 33.7962 49.8314 33.433 49.3687 33.1658C48.5869 32.7138 47.6679 32.5602 46.7816 32.7335C45.8954 32.9067 45.1018 33.395 44.5478 34.108C42.3128 36.9999 39.4442 39.3406 36.1628 40.95C32.8813 42.5594 29.2745 43.3946 25.6196 43.3915C21.9647 43.3946 18.3579 42.5594 15.0764 40.9499C11.795 39.3405 8.92643 36.9999 6.69143 34.108C6.13736 33.395 5.34381 32.9067 4.45756 32.7335C3.57131 32.5602 2.65232 32.7138 1.87053 33.1658C1.4078 33.433 1.00767 33.7962 0.697063 34.231C0.386457 34.6658 0.172583 35.162 0.0698305 35.6864C-0.032922 36.2108 -0.0221684 36.7511 0.101368 37.2709C0.224905 37.7908 0.458358 38.2782 0.786019 38.7003C6.5341 46.1057 15.5201 50.8718 25.6198 50.8718Z" fill="#494FC9"/>
</svg>
