<svg width="16" height="16" viewBox="0 0 16 16" fill="none" xmlns="http://www.w3.org/2000/svg">
<path d="M1.17933 12.0389C1.31523 13.1335 2.19954 13.9982 3.2966 14.1129C4.81466 14.2716 6.38798 14.4391 8.00028 14.4391C9.61258 14.4391 11.1859 14.2716 12.7039 14.1129C13.801 13.9982 14.6853 13.1335 14.8212 12.0389C14.9835 10.7319 15.1431 9.38037 15.1431 7.9969C15.1431 6.61343 14.9835 5.26188 14.8212 3.95497C14.6853 2.86034 13.801 1.99561 12.7039 1.88093C11.1859 1.72224 9.61258 1.55469 8.00028 1.55469C6.38798 1.55469 4.81464 1.72224 3.2966 1.88093C2.19954 1.99561 1.31523 2.86034 1.17932 3.95497C1.01707 5.26188 0.857422 6.61343 0.857422 7.9969C0.857422 9.38037 1.01707 10.7319 1.17933 12.0389Z" stroke="black" stroke-width="1.71429"/>
<path d="M1.21094 3.66016L6.58479 7.89725C7.41478 8.55168 8.58522 8.55168 9.41521 7.89725L14.789 3.66016" stroke="black" stroke-width="1.71429" stroke-linejoin="round"/>
</svg>
