<svg width="36" height="36" viewBox="0 0 36 36" fill="none" xmlns="http://www.w3.org/2000/svg">
<rect width="36" height="36" rx="18" fill="black" fill-opacity="0.2"/>
<path d="M19.1429 14.5694C19.1429 13.4266 19.7143 13.4266 20.2858 13.4266H20.9715C21.086 13.4281 21.1996 13.4067 21.3057 13.3636C21.4118 13.3205 21.5081 13.2566 21.5891 13.1756C21.67 13.0946 21.734 12.9983 21.7771 12.8922C21.8202 12.7861 21.8416 12.6725 21.8401 12.558V11.4837C21.8401 11.3687 21.8172 11.2548 21.7729 11.1487C21.7285 11.0425 21.6635 10.9463 21.5816 10.8655C21.4998 10.7847 21.4027 10.7209 21.2959 10.678C21.1892 10.635 21.0751 10.6136 20.9601 10.6151L19.3372 10.5923C18.8647 10.574 18.3938 10.6585 17.9571 10.8399C17.5203 11.0213 17.1282 11.2953 16.8077 11.643C16.4871 11.9907 16.2459 12.4038 16.1005 12.8538C15.9552 13.3038 15.9092 13.7799 15.9658 14.2494V15.9066H15.0629C14.8325 15.9066 14.6116 15.9981 14.4487 16.161C14.2858 16.3239 14.1943 16.5448 14.1943 16.7751V17.8494C14.1943 18.0798 14.2858 18.3007 14.4487 18.4636C14.6116 18.6265 14.8325 18.718 15.0629 18.718H15.9658V24.8551C15.9658 25.0067 16.026 25.152 16.1331 25.2592C16.2403 25.3664 16.3856 25.4266 16.5372 25.4266H18.6058C18.7513 25.4178 18.888 25.3538 18.9878 25.2476C19.0877 25.1413 19.1432 25.0009 19.1429 24.8551V18.718H20.1486C20.379 18.718 20.5999 18.6265 20.7628 18.4636C20.9257 18.3007 21.0172 18.0798 21.0172 17.8494V16.7751C21.0172 16.5448 20.9257 16.3239 20.7628 16.161C20.5999 15.9981 20.379 15.9066 20.1486 15.9066H19.1429V14.5694Z" fill="white"/>
</svg>
