<svg width="16" height="16" viewBox="0 0 16 16" fill="none" xmlns="http://www.w3.org/2000/svg">
<g clip-path="url(#clip0_8606_19522)">
<path d="M8.66002 14.5958C10.1175 13.3327 13.4822 10.0181 13.4822 6.33389C13.4822 3.30609 11.0277 0.851562 7.99991 0.851562C4.9721 0.851562 2.51758 3.30609 2.51758 6.33389C2.51758 10.0181 5.88229 13.3327 7.33978 14.5958C7.72282 14.9277 8.277 14.9277 8.66002 14.5958Z" stroke="black" stroke-width="1.71429" stroke-linecap="round" stroke-linejoin="round"/>
<path d="M8.00035 8.25655C9.24047 8.25655 10.2458 7.25122 10.2458 6.01109C10.2458 4.77095 9.24047 3.76562 8.00035 3.76562C6.76021 3.76562 5.75488 4.77095 5.75488 6.01109C5.75488 7.25122 6.76021 8.25655 8.00035 8.25655Z" stroke="black" stroke-width="1.71429" stroke-linecap="round" stroke-linejoin="round"/>
</g>
<defs>
<clipPath id="clip0_8606_19522">
<rect width="16" height="16" fill="white" transform="translate(0 -0.00390625)"/>
</clipPath>
</defs>
</svg>
